<svg width="26" height="35" viewBox="0 0 26 35" fill="none" xmlns="http://www.w3.org/2000/svg">
<path d="M16.9282 34.7512C16.0955 34.7512 15.3337 34.4636 14.9412 34.0006L0.503179 16.93C0.27971 16.6652 0.201982 16.3723 0.278738 16.0837C0.387558 15.6757 0.784944 15.3196 1.36791 15.1078C1.70894 14.9844 2.09564 14.9193 2.48525 14.9193C3.31986 14.9193 4.0816 15.2074 4.47413 15.6708L5.05417 16.3558L5.24364 16.5797L5.4331 16.3558L11.7252 8.91913C11.7417 8.90019 11.7592 8.87978 11.7777 8.85938L11.9195 8.69809L11.7806 8.53389L6.47369 2.2583C6.25022 1.99451 6.17152 1.70351 6.24828 1.4164C6.35612 1.00784 6.75351 0.651265 7.33842 0.438484C7.68042 0.314604 8.06712 0.248535 8.4577 0.248535C9.29134 0.248535 10.0531 0.537102 10.4446 1.00104L24.8817 18.0692C25.1052 18.334 25.1839 18.6259 25.1071 18.914C24.9983 19.3231 24.6009 19.6792 24.016 19.8919C23.674 20.0158 23.2883 20.0819 22.8977 20.0819C22.0641 20.0819 21.3023 19.7933 20.9108 19.3294L20.834 19.2385L20.6475 19.0185L20.457 19.2342L13.9774 26.5771L13.8355 26.7384L13.9745 26.9026L18.9131 32.7409C19.1366 33.0052 19.2134 33.2977 19.1366 33.5862C19.0278 33.9943 18.6304 34.3499 18.0484 34.5607C17.7074 34.6846 17.3197 34.7507 16.9282 34.7512ZM15.2502 12.6365L15.0598 12.8522L8.5811 20.197L8.43924 20.3583L8.57818 20.5225L10.4534 22.7392L10.6428 22.9637L10.8323 22.7392L17.1604 15.2569C17.1681 15.2491 17.1759 15.2404 17.1827 15.2316L17.31 15.0718L17.1779 14.9154L15.4358 12.8561L15.2502 12.6365Z" fill="#6546ED"/>
<path d="M16.9268 34.5025C17.2892 34.5021 17.6478 34.4413 17.9626 34.3267C18.46 34.1464 18.8088 33.8457 18.8953 33.5217C18.9507 33.3128 18.8924 33.1039 18.7214 32.9013L13.5048 26.735L20.65 18.6377L21.0989 19.1687C21.4399 19.5724 22.1453 19.8333 22.8964 19.8333C23.2578 19.8333 23.6153 19.7725 23.9292 19.6584C24.4296 19.4767 24.7793 19.1745 24.8658 18.8505C24.9212 18.6416 24.8619 18.4327 24.6899 18.2296L10.2538 1.16193C9.91281 0.758232 9.20743 0.497357 8.45638 0.497357C8.09397 0.497357 7.73739 0.558082 7.42259 0.672245C6.92221 0.853935 6.57341 1.1561 6.48693 1.48013C6.43252 1.68806 6.49082 1.8955 6.66279 2.09807L12.2476 8.70207L11.9629 9.02416C11.9464 9.0431 11.9299 9.06205 11.9133 9.08148L5.24231 16.9651L4.28236 15.8312C3.94133 15.4285 3.23595 15.1681 2.48392 15.1681C2.12249 15.1681 1.76591 15.2283 1.45208 15.342C0.953646 15.5227 0.603868 15.8244 0.518367 16.148C0.462014 16.3573 0.521282 16.5667 0.692285 16.7698L15.1303 33.8399C15.4714 34.2421 16.1758 34.5025 16.9268 34.5025ZM15.2527 12.2562L17.6312 15.0675L17.3757 15.3872C17.366 15.3993 17.3553 15.411 17.3446 15.4227L10.6415 23.349L8.10854 20.355L8.39322 20.0329L15.2527 12.2562ZM16.9268 35C16.0524 35 15.2042 34.6969 14.7504 34.1615L0.312387 17.0909C-0.353162 16.3029 0.0792021 15.3109 1.28205 14.8742C2.48489 14.4399 3.99768 14.7246 4.66226 15.5101L5.24231 16.1951L11.5344 8.75842C11.5529 8.73705 11.5713 8.71567 11.5898 8.69478L6.2829 2.41919C5.6154 1.63365 6.04971 0.642126 7.25256 0.204904C8.45346 -0.231832 9.96819 0.0523618 10.6337 0.840819L25.0698 17.9085C25.7373 18.6965 25.303 19.6885 24.0992 20.1257C22.9002 20.5615 21.3845 20.2778 20.719 19.4898L20.6422 19.3989L14.1626 26.7419L19.1013 32.5802C19.7668 33.3682 19.3315 34.3602 18.1316 34.7945C17.7488 34.9339 17.3349 34.9995 16.9268 35ZM15.245 13.017L8.76632 20.3618L10.6415 22.5785L16.9744 15.0904C16.9793 15.0855 16.9832 15.0811 16.9871 15.0763L15.245 13.017Z" fill="#6546ED"/>
</svg>
