<svg width="1366" height="348" viewBox="0 0 1366 348" fill="none" xmlns="http://www.w3.org/2000/svg">
<path d="M1366 0H0V346H1366V0Z" fill="#090412"/>
<path d="M1366 272.719L1358.03 276.565L1349.59 268.4C1348.73 267.616 1347.6 267.142 1346.36 267.225L1336.49 267.699C1335.55 267.781 1334.6 268.008 1333.83 268.565L1330.61 270.761C1326.81 273.276 1322.16 274.771 1317.33 274.998L1308.41 275.39L1307.17 274.214C1303.85 271.07 1299.11 269.42 1294.28 269.658L1292.38 269.74L1281 265.183L1273.88 262.121C1271.99 261.338 1269.71 261.575 1268.19 262.833L1267.53 263.379C1265.26 265.183 1261.75 265.266 1259.38 263.534L1253.98 259.523C1253.21 258.977 1252.37 258.657 1251.32 258.503L1241.74 257.327L1236.05 252.616L1235.19 251.987C1231.87 249.4 1227.04 248.771 1222.96 250.492L1209.11 257.09C1206.83 258.503 1203.04 261.956 1200.01 264.792C1197.73 266.833 1195.83 268.637 1195.17 268.957C1194.04 269.585 1176.01 266.915 1164.35 264.946C1158.27 263.926 1151.54 265.029 1146.51 268.245L1133.23 276.802L1128.68 281.039C1125.74 283.792 1122.04 285.988 1118.05 287.4L1108.66 292.431L1103.62 295.101H1093.19L1084.93 292.431H1073.83L1040.06 265.41C1038.07 263.843 1034.84 263.998 1033.13 265.719L1017.95 281.039L1004.39 284.493L994.334 292.431L983.138 301.545L975.932 308.38L968.148 312.782L955.251 322.205L936.086 332.256L929.539 344.349L913.89 347.731H1366" fill="#C0B1FF"/>
<path d="M971.375 347.422V343.814L966.252 345.463L958.757 343.896L953.159 340.989H949.746L945.004 339.102L942.344 337.298L937.602 335.803L931.437 339.576L927.932 337.298L924.612 336.36L920.158 333.061L917.024 329.607L911.148 326.545L904.983 322.617L893.312 315.391L878.993 322.617L856.415 320.102L845.219 315.391C842.848 314.762 840.662 313.741 838.868 312.401L836.116 310.36L828.239 306.277C825.301 304.71 821.311 304.318 817.899 305.019C811.26 306.277 801.012 308.081 800.352 307.844C799.971 307.689 798.837 306.823 797.414 305.803C795.517 304.39 793.332 302.741 791.909 302.03L783.754 298.968C781.383 298.184 778.63 298.576 776.826 299.988L776.352 300.298L773.218 302.813L767.713 303.597C767.146 303.679 766.671 303.906 766.29 304.143L763.352 306.339C762.022 307.277 760.032 307.359 758.702 306.494L758.321 306.256C757.372 305.627 756.042 305.545 755.001 306.019L751.022 307.751L744.671 310.339H743.63C740.784 310.339 738.125 311.277 736.423 313.009L735.764 313.638H730.454C727.702 313.638 724.949 313.009 722.671 311.751L720.681 310.731C720.207 310.494 719.64 310.339 719.166 310.339H713.475C712.815 310.339 712.052 310.576 711.671 311.05L707.114 315.452L702.371 313.648L693.742 315.452H684.536L671.732 317.885L657.69 312.391H647.329L637.082 313.731L629.772 308.071C629.587 307.916 629.298 307.834 628.917 307.834H621.896L614.308 303.823L604.628 302.019L596.473 297.617L583.761 293.452C579.968 292.112 575.504 292.514 572.287 294.473L571.998 294.627L550.843 303.741L542.689 307.751L529.596 309.318L521.812 307.751L521.152 307.205C520.297 306.494 518.781 306.421 517.833 307.122L515.08 309.164L509.863 309.401L508.255 308.38C505.028 306.256 500.946 305.164 496.781 305.164L491.853 303.823L481.42 299.112H472.976L459.883 302.019L455.43 305.081L443.955 306.184L440.924 310.195H422.048L415.223 307.999L405.831 300.535C404.594 299.514 402.8 299.122 400.996 299.359L393.789 301.792L385.16 304.854L380.233 300.452L377.294 298.566C376.346 297.937 374.83 298.019 373.975 298.803L370.748 301.792L368.088 306.195L361.253 308.628C360.212 309.019 359.17 309.494 358.222 310.04L354.242 312.318L350.16 311.452C346.366 310.669 342.284 311.298 339.16 313.256L338.397 313.731H334.696C333.655 313.731 332.706 313.813 331.665 313.885L323.129 310.669L322.84 310.514C319.427 308.628 314.964 308.39 311.262 309.968L298.84 314.679L290.963 319.391L281.478 321.587L274.076 325.906L267.056 326.215C266.767 326.215 266.489 326.37 266.2 326.525L263.354 328.958L250.829 331.71L249.024 331.556L238.684 331.948L228.055 336.741L223.313 337.762L212.209 336.113L203.003 336.504L194.271 335.092L189.714 337.051L184.879 332.813C184.405 332.422 183.745 332.185 182.982 332.185L177.291 332.422C176.724 332.422 176.25 332.576 175.776 332.896L173.879 333.999C171.693 335.339 169.044 336.04 166.198 336.195L161.075 336.432L160.415 335.803C158.518 334.154 155.765 333.288 153.013 333.442L151.971 333.525L145.425 331.164L141.342 329.597C140.301 329.205 138.971 329.36 138.023 329.989L137.641 330.298C136.311 331.236 134.322 331.236 132.992 330.38L129.858 328.339C129.476 328.03 128.909 327.865 128.342 327.793L122.837 327.164L119.61 324.731L119.136 324.422C117.239 323.081 114.486 322.772 112.115 323.638L104.146 327.092C102.816 327.803 100.641 329.607 98.9293 331.02C97.5994 332.123 96.5582 332.978 96.1767 333.216C95.5169 333.525 85.1765 332.195 78.4342 331.174C74.929 330.628 71.032 331.257 68.1866 332.906L60.5989 337.308L58.0524 339.484C56.3411 340.896 54.2586 341.999 51.8874 342.783L46.4852 345.37L43.6398 346.783H37.6604L32.918 345.37H26.5674L8.53621 332.411C6.63928 330.999 3.70109 331.154 1.89694 332.721L0 334.143V347.339" fill="#C0B1FF"/>
</svg>
