<svg width="1366" height="698" viewBox="0 0 1366 698" fill="none" xmlns="http://www.w3.org/2000/svg">
<g clip-path="url(#clip0_300_769)">
<rect width="1366" height="698" fill="#C0B1FF"/>
<path d="M1366 0H0V674H1366V0Z" fill="#090412"/>
<path d="M971 687V682.453L965.878 684.532L958.386 682.557L952.79 678.893H949.379L944.639 676.516L941.98 674.242L937.239 672.358L931.077 677.113L927.573 674.242L924.254 673.06L919.803 668.902L916.67 664.55L910.796 660.692L904.633 655.742L892.967 646.635L878.653 655.742L856.084 652.572L844.892 646.635C842.522 645.842 840.337 644.556 838.544 642.867L835.793 640.295L827.919 635.15C824.982 633.175 820.994 632.681 817.583 633.565C810.946 635.15 800.702 637.423 800.043 637.125C799.662 636.93 798.528 635.838 797.106 634.552C795.21 632.772 793.025 630.694 791.603 629.797L783.451 625.939C781.081 624.951 778.329 625.445 776.526 627.225L776.052 627.615L772.919 630.785L767.416 631.772C766.849 631.876 766.375 632.162 765.994 632.461L763.057 635.228C761.727 636.41 759.738 636.514 758.409 635.423L758.028 635.124C757.079 634.331 755.75 634.227 754.709 634.825L750.731 637.008L744.383 640.269H743.342C740.498 640.269 737.839 641.451 736.139 643.633L735.479 644.426H730.172C727.42 644.426 724.669 643.633 722.391 642.048L720.402 640.762C719.928 640.463 719.362 640.269 718.888 640.269H713.199C712.539 640.269 711.777 640.567 711.395 641.165L706.84 646.713L702.1 644.439L693.474 646.713H684.271L671.472 649.779L657.436 642.854H647.079L636.836 644.543L629.529 637.41C629.343 637.216 629.055 637.112 628.674 637.112H621.656L614.071 632.058L604.394 629.784L596.242 624.237L583.536 618.988C579.743 617.299 575.281 617.806 572.066 620.274L571.777 620.469L550.63 631.954L542.479 637.008L529.391 638.982L521.61 637.008L520.951 636.319C520.095 635.423 518.58 635.332 517.632 636.215L514.881 638.788L509.666 639.086L508.059 637.8C504.833 635.124 500.752 633.747 496.589 633.747L491.663 632.058L481.234 626.121H472.793L459.705 629.784L455.254 633.643L443.784 635.033L440.754 640.087H421.884L415.062 637.319L405.674 627.913C404.437 626.627 402.644 626.134 400.841 626.432L393.637 629.498L385.012 633.357L380.086 627.81L377.149 625.432C376.2 624.64 374.686 624.743 373.83 625.731L370.605 629.498L367.946 635.046L361.113 638.112C360.072 638.606 359.032 639.203 358.083 639.892L354.106 642.763L350.025 641.672C346.232 640.684 342.151 641.477 339.029 643.945L338.266 644.543H334.566C333.526 644.543 332.577 644.647 331.537 644.738L323.004 640.684L322.715 640.489C319.304 638.112 314.842 637.813 311.142 639.801L298.724 645.738L290.851 651.675L281.37 654.443L273.97 659.886L266.952 660.276C266.664 660.276 266.386 660.471 266.097 660.666L263.253 663.732L250.732 667.201L248.928 667.006L238.592 667.499L227.967 673.541L223.226 674.827L212.127 672.748L202.925 673.242L194.196 671.462L189.641 673.93L184.808 668.591C184.334 668.097 183.674 667.798 182.911 667.798L177.223 668.097C176.656 668.097 176.182 668.292 175.708 668.695L173.812 670.085C171.627 671.774 168.978 672.657 166.134 672.852L161.012 673.151L160.353 672.358C158.457 670.28 155.705 669.188 152.953 669.383L151.913 669.487L145.369 666.512L141.288 664.537C140.247 664.044 138.917 664.238 137.969 665.031L137.588 665.421C136.259 666.603 134.27 666.603 132.94 665.525L129.807 662.952C129.426 662.562 128.859 662.355 128.293 662.264L122.789 661.471L119.564 658.405L119.09 658.015C117.194 656.326 114.442 655.937 112.072 657.028L104.106 661.38C102.776 662.277 100.602 664.55 98.8911 666.33C97.5617 667.72 96.5208 668.799 96.1395 669.097C95.48 669.487 85.1436 667.811 78.4039 666.525C74.9 665.836 71.0045 666.629 68.1602 668.708L60.5754 674.255L58.03 676.996C56.3193 678.776 54.2376 680.166 51.8673 681.154L46.4673 684.415L43.623 686.194H37.6458L32.9053 684.415H26.5571L8.53291 668.084C6.63671 666.304 3.69966 666.499 1.8962 668.474L0 670.267V686.896" fill="#C0B1FF"/>
<path d="M1366.11 606.753L1358.14 610.858L1349.7 602.143C1348.84 601.307 1347.71 600.801 1346.47 600.889L1336.6 601.395C1335.66 601.483 1334.71 601.725 1333.94 602.319L1330.72 604.663C1326.92 607.348 1322.27 608.943 1317.44 609.185L1308.52 609.603L1307.28 608.349C1303.96 604.993 1299.22 603.233 1294.39 603.486L1292.49 603.574L1281.11 598.71L1274 595.442C1272.1 594.606 1269.82 594.859 1268.3 596.202L1267.64 596.785C1265.37 598.71 1261.86 598.798 1259.49 596.95L1254.09 592.67C1253.32 592.086 1252.48 591.745 1251.43 591.58L1241.85 590.326L1236.16 585.298L1235.3 584.626C1231.98 581.865 1227.15 581.193 1223.07 583.031L1209.22 590.073C1206.94 591.58 1203.15 595.266 1200.12 598.292C1197.84 600.471 1195.94 602.396 1195.28 602.737C1194.15 603.409 1176.12 600.559 1164.46 598.457C1158.39 597.368 1151.65 598.545 1146.62 601.978L1133.34 611.111L1128.79 615.633C1125.85 618.571 1122.15 620.914 1118.16 622.422L1108.77 627.791L1103.73 630.641H1093.3L1085.04 627.791H1073.94L1040.17 598.952C1038.18 597.28 1034.95 597.445 1033.24 599.282L1018.06 615.633L1004.5 619.319L994.444 627.791L983.248 637.518L976.042 644.813L968.259 649.511L955.361 659.568L936.196 670.296L929.65 683.203L914 686.812H1366.11" fill="#C0B1FF"/>
</g>
<defs>
<clipPath id="clip0_300_769">
<rect width="1366" height="698" fill="white"/>
</clipPath>
</defs>
</svg>
