<svg width="1376" height="206" viewBox="0 0 1376 206" fill="none" xmlns="http://www.w3.org/2000/svg">
<g clip-path="url(#clip0_312_773)">
<path d="M180.548 62.3134L184.276 59.769L195.034 54.7403C199.073 52.847 204.411 52.3362 209.115 53.1576C218.149 54.7403 232.064 56.9241 232.999 56.5835C233.57 56.3731 235.128 55.3213 236.986 54.0691C239.51 52.3662 242.573 50.3026 244.453 49.4812L255.605 45.6846C258.835 44.723 262.584 45.2238 265.066 46.9668L265.678 47.3976L269.905 50.523L277.361 51.5348C278.108 51.635 278.804 51.8854 279.354 52.256L283.383 54.9406C285.138 56.1127 287.87 56.1728 289.739 55.0909L290.299 54.7603C291.566 54.0191 293.363 53.9089 294.796 54.4699L300.196 56.5935L308.908 59.779H310.362C314.183 59.779 317.797 60.9811 320.227 63.0547L321.13 63.826H328.161C331.941 63.826 335.637 63.0246 338.753 61.522L341.411 60.2398C342.034 59.9393 342.771 59.779 343.519 59.779H351.224C352.19 59.779 353.104 60.0896 353.706 60.6105L359.926 66.0198L366.344 63.816L378.109 66.0198H390.633L408.057 68.995L427.144 62.2233H441.194L455.098 63.816L465.015 56.9141C465.317 56.7037 465.722 56.5935 466.137 56.5935H475.711L486.096 51.695L499.232 49.4912L510.384 44.1019L527.643 38.963C532.804 37.3101 538.848 37.811 543.323 40.2653L543.728 40.4856L572.555 51.7051L583.708 56.6036L601.579 58.5269L612.234 56.6036L613.179 55.8923C614.383 54.9807 616.408 54.9306 617.696 55.7821L621.476 58.2664L628.641 58.5269L630.811 57.2647C635.225 54.7002 640.77 53.2978 646.492 53.2978L653.21 51.7051L667.416 45.9451H678.87L696.741 49.5012L702.847 53.2978L718.278 54.8906L722.401 59.7891H748.06L757.396 57.0543L770.231 47.8985C771.934 46.6864 774.385 46.1554 776.763 46.486L786.545 49.5012L798.3 53.2978L805.039 47.9084L809.006 45.5644C810.356 44.763 812.381 44.8832 813.513 45.8449L817.874 49.5113L821.54 54.9006L830.896 57.9258C832.36 58.3966 833.741 58.9776 835.029 59.6488L840.481 62.4937L846.088 61.4018C851.291 60.3901 856.867 61.2015 861.073 63.5856L862.174 64.2067H867.2C868.581 64.2067 869.962 64.2768 871.322 64.4171L882.984 60.4202L883.41 60.2098C888.062 57.9258 894.136 57.6453 899.162 59.4885L916.016 65.2585L926.754 71.0485L939.713 73.7332L949.724 79.0023L959.288 79.3529C959.703 79.3729 960.098 79.5031 960.388 79.7135L964.231 82.6787L981.323 86.0745L983.774 85.8842L997.813 86.3951L1012.34 92.2352L1018.85 93.5274L1033.99 91.524L1046.51 91.9847L1058.41 90.2117L1064.65 92.6459L1071.27 87.467C1071.92 86.9661 1072.85 86.6856 1073.82 86.7256L1081.51 87.0061C1082.27 87.0362 1082.99 87.2165 1083.59 87.537L1086.15 88.9095C1089.15 90.5223 1092.79 91.4639 1096.56 91.5941L1103.58 91.8546L1104.53 91.1233C1107.11 89.1398 1110.82 88.078 1114.63 88.2183L1116.08 88.2683L1125.01 85.4034L1130.57 83.48C1132.05 82.9691 1133.83 83.1495 1135.04 83.9308L1135.58 84.2814C1137.37 85.4334 1140.1 85.4735 1141.95 84.3616L1146.16 81.8272C1146.75 81.4766 1147.45 81.2562 1148.21 81.1861L1155.73 80.4548L1160.18 77.4897L1160.84 77.079C1163.45 75.4362 1167.23 75.0655 1170.38 76.1473L1181.23 80.3446C1183.05 81.2361 1185.96 83.4099 1188.34 85.203C1190.11 86.5253 1191.6 87.6272 1192.15 87.8576C1193.05 88.2282 1207.12 86.5554 1216.26 85.3132C1221.02 84.6621 1226.31 85.3733 1230.19 87.4069L1240.57 92.8262L1244.1 95.5109C1246.42 97.2739 1249.28 98.6463 1252.46 99.5178L1259.83 102.703L1263.77 104.406H1271.92L1278.38 102.703H1287.04L1312.61 86.1346C1314.62 84.8324 1317.85 84.9626 1319.61 86.4051L1330.77 95.5109L1341.39 97.6846L1349.29 102.713L1358.07 108.473L1363.73 112.791L1369.86 115.566L1376 118.03V147H543.074L344.287 140.439L184.286 140.759L0.0996094 140.399V101.05L7.04671 103.034L17.296 101.06L24.887 97.4542H29.5184L35.9774 95.1202L39.6431 92.9164L46.154 91.0431L54.503 95.6712L59.3005 92.9164L63.8385 91.7744L69.9237 87.7274L74.2436 83.44L82.2187 79.7035L90.5677 74.9052L106.518 66.0098L125.968 74.9052L156.685 71.8399L171.898 66.0098C175.148 65.2485 178.107 63.9863 180.548 62.3134Z" fill="#0F0A22"/>
<path d="M439.252 103H494.909L524.805 106.347C529.25 107.035 539.618 108.479 545.501 108.788C551.385 109.097 583.838 108.918 599.32 108.788C608.67 110.761 629.496 115.044 637.956 116.379C646.417 117.714 671.538 114.965 683.035 113.42L709.445 116.877H741.159L763.534 116.379L799.084 119.029H806.435L861.053 116.379L887.733 120.115H1008.25L1044.56 126.551L1102.48 131.263L1157.19 126.551L1192.12 131.263L1235.33 126.551H1376V198L987.091 178.514L887.723 182.628H304.884L0.0996094 196.177V108.788H31.3642L71.3588 116.379L114.57 108.788H180.765L238.689 113.42H315.003L368.332 108.788L439.252 103Z" fill="#090412"/>
<path d="M1376 147H-6V213H1376V147Z" fill="#090412"/>
</g>
<defs>
<clipPath id="clip0_312_773">
<rect width="1376" height="206" fill="white"/>
</clipPath>
</defs>
</svg>
