<svg width="1366" height="348" viewBox="0 0 1366 348" fill="none" xmlns="http://www.w3.org/2000/svg">
<path d="M1366 0H0V346H1366V0Z" fill="#090412"/>
<path d="M1366 0H0V346H1366V0Z" fill="#090412"/>
<path d="M1067.82 241.628L1072.73 256.241L1079.14 252.95L1072.49 239.137C1072.49 239.137 1068.14 241.387 1067.82 241.628Z" fill="#79E1CF"/>
<path d="M1099.58 200.174C1107.82 197.849 1115.79 194.666 1123.36 190.678L1160.83 196.566C1160.83 196.566 1167.68 200.536 1168.51 200.657C1170.86 200.466 1173.21 200.993 1175.25 202.167C1178.01 204.084 1183.54 204.084 1184.97 204.325C1187.04 204.995 1189.02 205.923 1190.86 207.088C1192.29 207.933 1198.66 209.971 1199.75 210.696C1200.84 211.421 1203.34 212.206 1203.95 215.225C1204.79 218.935 1205.3 222.715 1205.46 226.517C1205.33 229.279 1204.63 236.722 1203.54 239.605C1202.45 242.489 1197.77 257.495 1197.5 259.231C1197.23 260.967 1196.67 272.681 1195.99 275.097C1195.31 277.512 1192.03 290.193 1191.46 292.503C1190.89 294.813 1186.54 306.316 1185.82 308.354C1185.09 310.392 1184 314.121 1184.31 315.676C1184.74 317.36 1184.86 319.11 1184.67 320.839C1184.43 322.771 1186 332.251 1185.51 332.916C1185.03 333.58 1168.21 334.35 1162.34 332.553C1156.47 330.757 1133.04 333.278 1123.54 332.795C1114.05 332.312 1088.96 332.07 1085.36 331.285C1081.77 330.5 1077.32 330.334 1079.48 327.934C1081.64 325.534 1081.88 322.167 1082 318.876C1082.31 315.901 1082.92 312.965 1083.79 310.105L1076.25 258.4L1087.33 235.756L1099.58 200.174Z" fill="#BED4FC"/>
<path d="M1203.83 185.38C1205.71 186.708 1205.47 186.421 1203.83 186.633C1202.18 186.844 1201.32 186.904 1201.12 187.976C1200.96 188.849 1200.71 189.704 1200.38 190.528C1200.31 190.47 1200.24 190.404 1200.17 190.331C1197.15 185.893 1199.49 187.04 1193.95 186.587C1192.85 186.587 1195.89 185.561 1196.78 183.568C1197.11 182.828 1195.55 180.066 1196.43 180.549C1199.09 181.953 1198.23 181.44 1198.56 181.636C1199.55 182.255 1202.51 179.824 1203.64 179.492C1203.99 181.938 1201.2 183.447 1203.83 185.38Z" fill="#FFEAB6"/>
<path d="M1226.17 138.581C1226.91 138.853 1224.66 139.502 1223.74 140.196C1222.23 141.313 1223.65 142.249 1223.53 143.819C1222.35 143.321 1221.02 140.8 1219.27 140.8C1216.11 141.857 1215.92 142.31 1215.36 142.31C1215.54 141.178 1218.2 138.883 1216.69 137.66C1216.1 137.207 1214.63 135.048 1215.37 135.214C1218.3 135.894 1218.29 136.03 1218.85 135.637C1221.79 133.614 1221.87 130.504 1222.41 134.762C1222.88 138.581 1221.93 137.071 1226.17 138.581Z" fill="#FFEAB6"/>
<path d="M1222.5 88.8537C1222.42 88.9594 1222.36 89.0952 1222.26 89.1405C1218.45 91.1031 1218.2 90.8615 1218.42 92.1598C1219 95.7376 1218.86 95.1791 1218.77 95.798C1214.74 92.1447 1216.34 92.6127 1215.75 92.507C1214.63 92.341 1212.55 93.5939 1210.54 94.0166C1209.85 94.0166 1210.12 93.8657 1211.86 90.9974C1213.77 87.8724 1204.44 84.1738 1212.54 86.4685C1214.05 86.9063 1213.77 86.6949 1216.52 82.9963C1217.4 81.8037 1216.84 87.1931 1218.88 87.3743C1219.59 87.3743 1220.57 88.2197 1222.18 88.582C1222.3 88.6561 1222.41 88.7477 1222.5 88.8537Z" fill="#FFEAB6"/>
<path d="M1066.34 154.583C1074.01 152.862 1066.34 155.277 1068.05 158.146C1069.45 160.621 1070.03 160.395 1067.29 159.791C1064.12 159.082 1065.56 158.87 1062.27 162.207C1061.87 162.614 1062.34 160.954 1062.46 159.384C1062.6 157.512 1058.98 156.908 1058.45 155.927C1058.7 155.927 1058.25 155.927 1060.58 155.7C1063.44 155.459 1062.09 153.843 1063.34 151.277C1064.37 152.168 1065.42 154.779 1066.34 154.583Z" fill="#FFEAB6"/>
<path d="M1081.77 120.646C1082.15 121.28 1080.26 120.646 1077.59 119.65C1076.08 119.092 1076.43 117.959 1072.86 122.941C1071.49 124.888 1073.5 118.654 1071.22 117.808C1066.06 115.876 1066.06 116.299 1071.73 114.246C1072.97 113.793 1072.38 111.09 1073.24 108.766C1078.63 113.808 1074.09 113.385 1081.97 111.574C1080.81 114.683 1078.39 115.574 1079.78 117.189C1080.55 118.277 1081.22 119.434 1081.77 120.646Z" fill="#FFEAB6"/>
<path d="M1122.94 209.247C1123.65 212.598 1124.34 212.99 1123.56 212.87C1116.72 211.798 1110.05 205.035 1108.67 199.359C1108.42 198.287 1108.24 198.392 1109.38 198C1112.75 196.807 1114.49 195.524 1114.06 196.279C1113.22 197.788 1113.82 199.736 1113.72 200.43C1113.32 203.042 1115.14 205.246 1117.75 206.635C1118.09 206.816 1117.97 206.786 1120.28 206.937C1121.79 206.575 1121.99 206.424 1122.17 206.937C1122.51 207.678 1122.77 208.452 1122.94 209.247Z" fill="#FFC6A6"/>
<path d="M1069.53 69.8168C1069.77 70.6012 1069.76 71.4392 1069.51 72.2198C1069.26 73.0002 1068.78 73.6867 1068.13 74.1881C1067.48 74.6895 1066.7 74.9823 1065.88 75.0277C1065.06 75.073 1064.25 74.8689 1063.55 74.4422C1062.85 74.0156 1062.3 73.3865 1061.96 72.6383C1061.63 71.8902 1061.53 71.0581 1061.68 70.2523C1061.83 69.4464 1062.22 68.705 1062.8 68.1258C1063.38 67.5466 1064.12 67.1572 1064.93 67.0089C1065.9 66.8324 1066.91 67.0207 1067.76 67.5383C1068.61 68.0557 1069.24 68.8665 1069.53 69.8168Z" fill="#9EDEFF"/>
<path d="M1054.57 82.815C1055.23 82.0602 1056.08 81.3054 1056.49 82.3168C1056.49 82.3168 1042.76 97.6547 1042.73 97.6849C1041.62 96.915 1041.18 98.485 1054.57 82.815Z" fill="#9EDEFF"/>
<path d="M1063.67 96.1606C1063.94 96.8097 1063.82 96.5682 1054.31 105.988C1053.83 106.486 1054.05 106.471 1053.53 98.9081C1053.53 98.1986 1059.56 93.4734 1061.51 91.1486C1063.46 88.8237 1062.95 89.2162 1063.67 96.1606Z" fill="#9EDEFF"/>
<path d="M1047.13 76.6858C1048.29 76.5348 1045 79.2069 1042.6 82.83C1042.05 83.615 1040 86.3625 1039.2 86.4682C1039.2 86.4682 1031.65 86.6946 1031.65 86.6493C1031.44 86.3625 1035.47 82.513 1039.2 78.2407C1039.67 77.5312 1039.67 77.6519 1047.13 76.6858Z" fill="#9EDEFF"/>
<path d="M1083.83 54.7812C1083.68 56.9173 1083.21 59.0189 1082.44 61.0159C1078.8 69.8926 1079.12 69.0925 1078.12 67.3111C1073.5 59.0836 1067.1 58.2533 1068.31 57.5136C1071.37 55.2591 1074.81 53.5718 1078.47 52.5318C1084.19 51.0222 1083.55 52.5318 1083.83 54.7812Z" fill="#FF8E92"/>
<path d="M1175.41 165.316C1174.25 161.346 1177.12 151.337 1177.98 149.118C1179.15 145.117 1179.49 140.921 1178.98 136.784C1178.37 132.059 1175.05 124.058 1173.3 120.178C1171.55 116.299 1163.94 109.113 1161.53 107.241C1159.11 105.369 1147.53 100.508 1143.41 98.6964C1139.29 96.8848 1131.88 96.4772 1131.88 96.4772C1130.77 95.0931 1129.23 94.1257 1127.5 93.7336C1125.77 93.3413 1123.96 93.5475 1122.37 94.3184C1117.84 96.3263 1117.08 101.157 1116.69 101.263C1107.33 101.157 1106.02 108.705 1106.02 108.705C1102.54 112.223 1103.51 114.442 1104.96 116.752C1106.41 119.061 1111.1 119.122 1111.1 119.122C1111.1 119.122 1139.65 112.917 1148.36 126.504C1157.07 140.09 1153.65 162.252 1153.65 162.252L1153.89 184.262C1155.27 185.576 1157 186.466 1158.87 186.834C1160.74 187.2 1162.68 187.025 1164.45 186.33C1159.03 182.194 1160.08 179.839 1160.08 179.839C1168.29 184.911 1171.91 179.839 1171.91 179.839C1170.52 179.566 1169.21 178.956 1168.1 178.061C1167 177.166 1166.13 176.015 1165.57 174.706C1167.99 175.44 1170.49 175.88 1173.01 176.02C1179.76 176.669 1181.27 173 1181.27 173C1181.27 173 1176.56 169.287 1175.41 165.316Z" fill="#FFB564"/>
<path d="M1117.6 176.322C1117.17 175.851 1116.94 175.241 1116.94 174.608C1116.94 173.976 1117.17 173.365 1117.6 172.895C1108.31 167.173 1110.3 162.448 1108.31 163.399C1106.18 164.342 1103.89 164.914 1101.56 165.09C1100.96 165.271 1103.24 169.166 1108.27 170.842C1112.52 172.261 1103.74 176.322 1102.39 176.428C1100.21 176.594 1109.44 182.134 1114.68 178.601C1114.81 178.502 1114.96 178.443 1115.12 178.434C1115.27 178.425 1115.43 178.466 1115.56 178.551C1115.7 178.637 1115.8 178.761 1115.86 178.908C1115.92 179.056 1115.93 179.218 1115.89 179.371C1115.47 181.481 1114.71 183.509 1113.64 185.38C1116.25 185.848 1119.24 184.127 1121.42 182.647C1121.99 182.27 1121.78 181.606 1122 181.138C1122.09 180.926 1120.19 179.522 1117.6 176.322Z" fill="#FFB564"/>
<path d="M1093.82 194.92C1096.58 200.657 1096.7 200.37 1096.02 200.612L1065.33 210.741C1064.97 210.741 1065.47 211.602 1058.64 198.106C1058.3 197.426 1056.47 198.347 1078.01 191.131C1081.76 189.878 1085.32 188.625 1089.32 187.312C1090.35 186.98 1089.49 185.953 1093.82 194.92ZM1089.7 199.827C1089.05 198.71 1088.54 199.48 1087.74 199.51C1087.54 199.51 1067.99 205.548 1066.6 206.213C1065.92 206.499 1065.3 207.405 1066.13 207.616C1066.45 207.692 1088.54 201.17 1089.7 199.827ZM1084.96 193.456C1085.44 193.215 1085.77 192.369 1084.75 192.158C1084.57 192.158 1083.4 192.505 1081.73 192.928C1075.76 194.437 1074.93 195.555 1073.39 195.524C1071.61 195.524 1071.69 196.249 1069.03 196.838C1062.99 198.181 1063.97 198.755 1062.36 198.83C1062.16 198.83 1061.85 199.298 1061.78 199.48C1061.65 200.023 1063.29 200.34 1064.08 199.902C1065.76 199 1067.59 198.422 1069.48 198.196C1071.97 197.759 1071.88 196.958 1073.35 197.034C1076.14 196.657 1077.2 195.524 1079.73 194.89C1082.27 194.256 1083.03 194.437 1084.96 193.456ZM1080.99 198.966C1081.24 198.983 1081.49 198.908 1081.69 198.756C1081.89 198.603 1082.04 198.384 1082.09 198.136C1082.09 196.4 1076.05 199.163 1073.2 199.646C1070.6 200.083 1064.7 201.804 1063.84 202.74C1063.23 203.405 1063.57 203.782 1064.38 203.827C1067.4 202.801 1066.99 202.665 1068.08 202.318C1074.36 200.551 1070.04 202.001 1076.7 200.083C1079.72 199.268 1079.92 198.966 1080.99 198.966Z" fill="#FFF5DB"/>
<path d="M1069.86 235.665C1070.31 236.586 1068.65 237.099 1067.69 237.281C1067.11 236.903 1068.38 239.002 1054.55 211.149C1045.71 193.547 1045.71 194.256 1046.61 194.256C1051.32 194.271 1044.03 183.87 1069.86 235.665Z" fill="#79E1CF"/>
<path d="M1049.96 205.231C1066.78 239.349 1066.46 237.779 1065.74 238.035C1056.68 241.145 1061.21 247.093 1060.27 249.131C1059.78 248.422 1028.57 184.489 1028.36 183.96C1028.6 183.87 1027.79 183.462 1041.01 191.358C1045.25 193.894 1042.79 190.663 1049.96 205.231Z" fill="#79E1CF"/>
<path d="M1096.43 188.505C1091.28 177.831 1091.63 178.465 1091.21 178.616C1086.68 180.232 1062.98 188.097 1058.98 189.41C1049.12 192.671 1049.74 192.037 1050.34 193.215C1073.44 238.368 1069.97 235.816 1072.61 235.107C1075.7 235.031 1073.63 240.179 1073.74 240.451C1073.85 240.723 1074.6 242.61 1075.02 242.459C1075.94 242.062 1076.87 241.714 1077.82 241.417C1079.95 241.101 1082.03 240.486 1083.99 239.59C1088.22 237.432 1088.28 244.21 1082.93 246.822C1081.49 247.701 1079.94 248.39 1078.31 248.875C1078.04 248.875 1077.98 249.086 1078.1 249.328C1079.19 251.622 1078.92 251.441 1079.61 251.441C1087.76 251.441 1086.8 250.128 1092.44 248.935C1094.11 248.573 1094.8 250.611 1094.15 251.954C1094 252.256 1094.26 252.226 1094.57 252.136C1094.57 252.136 1121.75 244.089 1122.92 243.712C1124.1 243.334 1123.54 244.693 1096.43 188.505ZM1097.03 201.804C1096.79 201.895 1068.71 211.209 1065.33 212.206C1064.08 212.07 1064.32 212.749 1057.33 198.211C1056.39 196.279 1055.16 197.185 1089.56 185.742C1090.92 185.289 1090.86 185.742 1092.75 189.607C1097.85 200.083 1098.97 201.14 1097.03 201.804Z" fill="#79E1CF"/>
<path d="M1178.43 276.621C1179.94 278.871 1180.29 275.338 1167.75 293.046C1166.39 294.887 1164.91 296.642 1163.34 298.3C1161.21 300.76 1159.5 303.508 1156.14 306.089C1148.26 312.128 1142.35 310.618 1135.48 302.572C1134.44 300.804 1133.7 298.876 1133.3 296.866C1132.31 292.895 1130.56 291.793 1129.34 287.294C1126.14 275.534 1129.63 218.712 1129.94 218.425C1131.24 217.232 1129.22 217.821 1126.31 214.017C1123.94 210.998 1125.04 207.767 1120.27 200.008C1120.17 199.797 1120.03 199.613 1119.85 199.465C1119.67 199.319 1119.46 199.215 1119.24 199.162C1118.32 199.011 1119.07 200.204 1119.5 201.14C1120.13 202.514 1118.83 201.638 1118.59 201.623C1117.97 201.547 1117.55 202.257 1119.66 203.495C1119.92 203.646 1120.61 203.661 1120.8 203.902C1120.97 204.24 1121.1 204.601 1121.17 204.974C1121.17 205.186 1121.17 205.246 1120.98 205.261C1119.32 205.457 1118.59 205.805 1117.22 204.642C1116.43 203.978 1115.03 202.468 1115.06 201.442C1115.13 198.422 1114.62 196.913 1117.22 195.403C1118.23 194.845 1118.41 193.894 1118.47 192.776C1118.58 190.723 1120.64 191.84 1121.49 189.168C1122.7 185.364 1128.22 188.716 1127.42 186.587C1124.98 180.171 1117.31 176.02 1118.37 174.178C1119.36 172.562 1123 175.567 1123.94 176.654C1126.86 179.96 1132.24 184.458 1132.72 187.598C1133.02 189.485 1134.34 190.135 1135.65 194.543C1138.02 202.453 1140.71 205.82 1141.02 214.56C1141.52 228.147 1155.55 280.29 1155.56 280.335C1155.95 281.15 1156.89 280.803 1156.85 279.958C1156.3 269.828 1150.66 258.657 1152.05 258.581C1154.33 258.423 1156.63 258.871 1158.69 259.88C1160.08 260.921 1168.65 268.545 1169.41 269.254C1172.7 272.183 1176.18 273.179 1178.43 276.621Z" fill="#FFC6A6"/>
<path d="M1161.35 148.56C1167.72 143.17 1175.25 147.548 1168.89 157.723C1167.63 159.731 1166.36 161.467 1160.82 163.762C1153.62 166.781 1152.76 148.348 1152.62 181.877C1152.62 191.388 1153.65 194.241 1167.01 200.718C1167.53 200.974 1162.9 204.431 1162.87 204.446C1154.82 210.213 1159.55 207.466 1150.64 211.043C1149.13 211.617 1142.9 214.199 1142.79 213.248C1141.58 203.148 1139.17 200.838 1137.51 194.921C1136 189.697 1134.31 188.369 1134.16 186.618C1133.95 184.051 1128.12 179.069 1127.41 178.164C1127.15 177.862 1127.18 177.741 1127.56 177.605C1144.57 172.065 1141.99 167.853 1140.27 168.864C1136.77 170.902 1121.08 176.518 1113.78 168.14C1105.76 158.931 1105.58 142.582 1108.9 143.608C1110.27 143.912 1111.7 143.833 1113.03 143.381C1114.36 142.928 1115.55 142.119 1116.45 141.042C1117.32 140.166 1116.45 143.503 1120.68 144.272C1121.55 144.439 1121.88 143.367 1121.35 143.11C1120.07 142.461 1118.86 142.159 1118.17 140C1117.63 138.325 1122.85 139.668 1122.7 135.743C1122.7 134.701 1121.69 134.671 1121.46 135.607C1121.05 137.223 1121.46 136.981 1119.05 137.434C1118.83 137.434 1118.77 137.434 1118.85 137.177C1120.18 132.996 1119.75 131.803 1121.11 130.791C1121.7 130.448 1122.37 130.268 1123.05 130.272C1123.74 130.275 1124.4 130.462 1124.99 130.812C1125.57 131.162 1126.05 131.663 1126.38 132.262C1126.7 132.862 1126.86 133.537 1126.83 134.218C1127.03 139.155 1131.82 146.386 1137.4 146.175C1145.31 145.858 1147.59 137.706 1149.03 136.815C1149.98 136.211 1150.97 136.588 1154.99 139.049C1156.17 139.759 1152.74 146.914 1158.33 149.36C1158.91 149.617 1157.63 150.402 1159.07 150.87C1159.23 151.051 1160.05 149.647 1161.35 148.56ZM1168.58 153.3C1168.79 152.878 1168.87 152.407 1168.83 151.938C1168.78 151.469 1168.61 151.023 1168.32 150.649C1168.03 150.275 1167.65 149.989 1167.21 149.822C1166.77 149.656 1166.29 149.616 1165.83 149.707C1163.38 150.236 1160.71 153.345 1162.01 155.866C1162.45 156.727 1162.01 158.508 1161.1 158.72C1159.31 159.112 1159.19 158.267 1158.75 159.082C1158.31 159.897 1159.28 160.592 1160.26 160.592C1163.37 160.592 1164.41 157.029 1163.41 155.112C1163.29 154.903 1163.21 154.665 1163.19 154.421C1163.18 154.176 1163.22 153.931 1163.32 153.708C1163.96 152.198 1167.11 149.345 1167.41 153.391C1167.49 153.813 1168.26 153.964 1168.58 153.3ZM1120.93 155.006C1120.93 154.463 1120.6 152.877 1119.33 152.847C1117.82 152.847 1117.6 155.097 1118.68 156.199C1119.33 156.878 1120.57 157.029 1120.93 155.006Z" fill="#FFC6A6"/>
<path d="M1096.54 267.519C1100.94 270.538 1100.26 267.654 1098.14 281.966C1097.1 288.14 1095.66 294.238 1093.8 300.217C1093.38 301.455 1094.01 296.67 1093.8 291.597C1093.59 284.713 1086.5 273.21 1085.74 273.482C1084.23 273.98 1087.25 275.746 1090.94 285.951C1093.46 293.107 1092.13 302.95 1090.36 305.576C1088.07 308.958 1086.07 310.392 1080.29 309.516C1077.7 309.125 1075.28 307.974 1073.34 306.209C1071.4 304.444 1070.03 302.143 1069.39 299.598C1068.58 296.247 1067.25 292.382 1067.88 288.321C1070.9 266.583 1069.09 276.652 1072.86 281.845H1073.54C1073.33 280.199 1073.18 280.335 1071.16 273.693C1070.52 271.579 1070.51 271.278 1069.85 270.855C1066.99 269.073 1067.52 268.787 1066.96 265.767C1066.61 263.941 1064.37 264.424 1064.65 261.857C1064.73 261.134 1064.62 260.402 1064.34 259.731C1064.06 259.06 1063.61 258.472 1063.04 258.023C1062 257.042 1062.24 254.143 1064.05 252.256C1067.28 248.905 1067.64 247.41 1070.78 245.085C1071.28 244.708 1071.4 244.844 1076.05 243.757C1077.06 243.515 1076.44 243.274 1078.57 242.896C1084.26 241.87 1085.7 239.877 1085.64 241.145C1085.51 242.167 1085.09 243.13 1084.45 243.931C1083.8 244.731 1082.94 245.334 1081.97 245.674C1080.74 246.386 1079.45 246.969 1078.1 247.41C1069.05 249.463 1069.53 255.532 1071.01 253.796C1072.94 251.532 1072.65 251.064 1073.38 252.392C1073.92 253.388 1073.65 252.936 1071.87 254.536C1070.36 255.894 1065.32 259.97 1067.76 259.608C1068.11 259.608 1068.31 259.382 1071.51 256.694C1073.79 254.762 1074.71 253.026 1082.07 252.951C1086.32 252.951 1089.62 251.003 1092.51 250.445C1093.61 250.218 1093.32 253.751 1085.59 255.834C1083.9 256.51 1082.15 257.015 1080.37 257.344C1078.95 257.414 1077.59 257.891 1076.44 258.717C1075.39 259.714 1074.6 260.227 1075.14 260.786C1075.34 260.997 1075.52 261.163 1075.81 260.861C1077.64 258.959 1079.52 259.05 1083.36 258.28C1084.5 258.053 1084.26 257.479 1086.09 257.298C1087.96 256.978 1089.81 256.554 1091.63 256.03C1093.14 256.03 1091.98 259.231 1084.08 262.28C1080.26 263.79 1078.47 264.197 1077.12 266.205C1076.76 266.749 1076.46 267.564 1077.12 267.866C1078.22 268.364 1077.56 266.054 1081.5 264.62C1082.18 264.379 1082.35 264.318 1082.59 267.337C1083.1 273.889 1080.68 276.757 1080.49 279.414C1080.49 279.777 1080.91 280.245 1081.36 279.686C1082.05 278.208 1082.66 276.697 1083.19 275.157C1086.57 265.043 1078.66 261.752 1089.23 264.997C1094.01 266.477 1094.68 266.25 1096.54 267.519Z" fill="#FFC6A6"/>
<path d="M1072.1 236.858C1074.15 236.39 1072.44 240.828 1068.68 242.896C1065.66 244.602 1065.36 244.768 1064.94 245.281C1064.52 245.795 1064.94 246.444 1065.33 246.308C1067.81 245.583 1071.91 241.16 1063.49 250.837C1061.5 253.131 1061.8 253.297 1061.53 251.275C1061.55 250.506 1061.62 249.74 1061.74 248.98C1062.12 247.183 1060.14 242.941 1062.25 241.598C1064.99 239.935 1067.89 238.568 1070.92 237.522C1071.28 237.253 1071.68 237.03 1072.1 236.858Z" fill="#FFC6A6"/>
<path d="M1109.59 124.994C1109.59 124.783 1110.8 118.956 1112.28 116.827C1113.76 114.699 1118.83 109.279 1118.83 109.279C1118.83 109.279 1122.61 111.242 1122.95 107.769C1122.95 107.769 1124.37 109.113 1125.97 106.622C1127.57 104.131 1131.76 104.388 1133.27 105.052C1134.78 105.716 1138.93 106.471 1141.22 110.321C1143.52 114.17 1151.38 127.591 1152.79 129.523C1154.19 131.455 1158.64 137.071 1155.34 138.022L1149.3 134.58C1149.3 134.58 1147.2 128.436 1141.93 127.561C1136.66 126.685 1130.4 126.157 1127.83 130.58C1127.83 130.58 1122.77 127.561 1119.26 130.776C1119.26 130.776 1118.46 126.051 1114.06 125.311C1109.67 124.572 1109.59 124.994 1109.59 124.994Z" fill="#FFC6A6"/>
<path d="M1008.5 153.949L1007.79 149.677L1011.18 152.545L1015.56 150.492L1014.08 155.368L1017.19 159.897L1012 159.006L1009.94 163.596L1008.63 158.085L1004.12 155.942L1008.5 153.949Z" fill="#FFEAB6"/>
<path d="M1225.93 152.665C1218.88 158.281 1218.12 169.045 1214.57 166.464C1210.51 163.444 1207.92 160.289 1207.8 155.76C1207.8 154.507 1207.12 153.284 1205.91 153.737C1204.93 154.165 1203.92 154.528 1202.89 154.824C1199.43 155.73 1199.57 152.59 1197.97 154.054C1197.32 154.5 1196.72 155.005 1196.17 155.564C1195.67 156.017 1195.92 155.76 1194.77 154.9C1193.62 154.039 1191.96 155.217 1192.19 155.881C1192.3 156.042 1192.46 156.162 1192.64 156.219C1192.83 156.277 1193.03 156.269 1193.21 156.198C1194.1 155.805 1194.24 156.651 1195.15 157.375C1196.66 158.598 1197.85 154.613 1199.15 155.534C1201.31 157.043 1202.29 156.53 1205.58 155.413C1207.62 154.734 1203.71 159.247 1211.87 166.177C1216.4 170.056 1217.17 168.834 1220.72 161.738C1222.02 159.142 1224.57 154.915 1226.88 153.496C1227.83 152.907 1228.95 152.605 1231.27 154.25C1236.72 158.115 1234.29 159.096 1233.58 160.772C1233.46 161.074 1234.11 161.617 1234.4 161.225C1236.19 158.764 1235.69 159.534 1236.07 158.342C1235.42 154.598 1229.31 149.978 1225.93 152.665Z" fill="#575785"/>
<path d="M1223.66 133.418C1223.54 132.663 1223.3 131.908 1223.15 131.168C1223.13 130.99 1223.06 130.82 1222.94 130.683C1222.83 130.546 1222.67 130.446 1222.5 130.399C1221.91 130.217 1221.84 130.549 1219.81 132.95C1218.02 135.078 1219.09 134.716 1214.68 133.629C1214.44 133.672 1214.21 133.769 1214.01 133.913C1213.8 134.057 1213.64 134.243 1213.52 134.459C1213.22 134.897 1213.25 135.063 1214.59 137.237C1215.74 139.094 1216.1 138.641 1215.56 139.441C1212.7 143.713 1211.42 145.117 1216.67 143.2C1219.69 142.113 1219.57 141.947 1220.01 142.385C1222.05 144.423 1224.86 147.865 1225.02 144.982C1225.09 143.85 1224.92 142.717 1224.51 141.66C1224.3 140.573 1228.45 140.015 1228.69 138.46C1228.71 138.393 1228.72 138.322 1228.71 138.252C1228.7 138.182 1228.68 138.114 1228.64 138.053C1228.61 137.992 1228.56 137.939 1228.5 137.898C1228.45 137.856 1228.38 137.827 1228.31 137.811C1222.56 135.773 1224.34 137.766 1223.66 133.418ZM1223.74 140.166C1222.23 141.283 1223.65 142.219 1223.53 143.789C1222.35 143.291 1221.02 140.77 1219.27 140.77C1216.11 141.826 1215.92 142.279 1215.36 142.279C1215.54 141.147 1218.2 138.853 1216.69 137.63C1216.1 137.177 1214.64 135.018 1215.37 135.184C1218.3 135.863 1218.29 135.999 1218.85 135.607C1221.79 133.584 1221.87 130.474 1222.41 134.731C1222.88 138.566 1221.93 136.996 1226.17 138.535C1226.86 138.822 1224.69 139.472 1223.74 140.166Z" fill="#575785"/>
<path d="M1204.82 108.871C1204.94 114.91 1208.73 117.929 1202.39 117.114C1192.67 115.846 1190.72 113.506 1191.64 120.571C1191.76 121.522 1191.81 121.22 1187.11 123.122C1184.76 124.088 1185.83 125.281 1187.11 124.783C1191.4 123.032 1193.29 122.775 1193.15 120.903C1192.85 117.597 1192.43 117.008 1193.68 117.22C1202.15 118.578 1203.58 118.895 1205.11 118.729C1211.06 118.095 1203.48 108.63 1207.54 106.652C1210.39 105.233 1211.34 107.498 1225.04 112.947C1225.79 113.249 1226.55 113.551 1226.79 112.842C1227.03 112.132 1226.33 112.087 1225.96 111.936C1212.37 106.365 1213.76 106.094 1210.86 105.143C1210.22 104.844 1209.52 104.709 1208.82 104.75C1208.11 104.79 1207.43 105.005 1206.83 105.375C1206.23 105.745 1205.74 106.259 1205.39 106.869C1205.03 107.479 1204.84 108.167 1204.82 108.871Z" fill="#575785"/>
<path d="M1210.68 90.3787C1209.55 92.2355 1206.92 96.2813 1209.35 95.6775C1210.26 95.4661 1211.99 95.134 1212.37 94.9831C1214.68 94.198 1214.75 93.881 1215.07 94.2131C1218.09 97.2324 1220.25 100.538 1220.1 95.0132C1220.01 92.4167 1219.43 91.994 1220.17 91.7072C1221.16 91.2845 1223.1 90.1975 1223.65 90.0617C1225.5 89.5031 1225.59 88.2954 1224.79 87.9331C1223.99 87.5708 1221.77 87.1481 1220.4 86.5593C1218.21 85.578 1219.15 86.9216 1217.74 81.3662C1217.71 81.2009 1217.63 81.0503 1217.5 80.9358C1217.38 80.8213 1217.22 80.749 1217.05 80.7289C1216.89 80.7087 1216.72 80.7421 1216.57 80.824C1216.42 80.9059 1216.31 81.0323 1216.23 81.185C1216.05 81.4266 1215.42 82.3323 1213.49 85.1704C1213.03 85.8498 1208.7 83.5702 1207.99 84.4156C1206.21 86.4838 1211.27 89.4125 1210.68 90.3787ZM1212.49 86.5442C1214 86.982 1213.73 86.7707 1216.48 83.0721C1217.35 81.8795 1216.79 87.2688 1218.83 87.45C1219.53 87.45 1220.52 88.2954 1222.14 88.6577C1222.27 88.7047 1222.39 88.7709 1222.5 88.8539C1222.42 88.9596 1222.36 89.0955 1222.26 89.1408C1218.45 91.1033 1218.2 90.8618 1218.42 92.16C1219 95.7379 1218.86 95.1793 1218.77 95.7983C1214.74 92.1449 1216.34 92.6129 1215.75 92.5073C1214.63 92.3412 1212.55 93.5942 1210.54 94.0169C1209.85 94.0169 1210.12 93.8659 1211.86 90.9976C1213.73 87.9029 1204.4 84.2345 1212.49 86.5442Z" fill="#575785"/>
<path d="M1204.84 184.413C1203.66 183.658 1204.11 183.568 1204.37 182.451C1205.41 177.922 1205.37 178.239 1205.3 177.922C1205.3 177.795 1205.25 177.672 1205.18 177.566C1205.11 177.46 1205.01 177.378 1204.89 177.327C1204.77 177.275 1204.65 177.256 1204.52 177.274C1204.39 177.292 1204.27 177.343 1204.17 177.424C1202.66 178.616 1200.94 179.326 1199.4 180.443C1198.69 180.926 1196.31 178.511 1195.76 178.722C1194.96 179.054 1194.38 179.447 1194.63 180.428C1195.7 184.308 1195.37 183.9 1194.81 184.262C1193.17 185.319 1191.79 185.772 1191.9 187.116C1191.9 188.202 1195.19 188.127 1196.43 188.142C1197.67 188.157 1197.41 188.686 1197.83 189.38C1199.72 192.49 1200.85 194.286 1201.79 190.754C1202.6 187.825 1201.59 188.142 1206.6 187.976C1208.75 187.81 1207.13 185.878 1204.84 184.413ZM1203.76 186.602C1202 186.829 1201.26 186.874 1201.06 187.946C1200.9 188.819 1200.65 189.673 1200.32 190.497C1200.25 190.439 1200.17 190.374 1200.11 190.301C1197.09 185.863 1199.43 187.01 1193.89 186.557C1192.79 186.557 1195.82 185.53 1196.71 183.538C1197.05 182.798 1195.49 180.035 1196.37 180.518C1199.02 181.922 1198.16 181.409 1198.5 181.605C1199.49 182.224 1202.45 179.794 1203.58 179.462C1203.99 181.953 1201.12 183.462 1203.83 185.364C1205.73 186.678 1205.47 186.391 1203.76 186.602Z" fill="#575785"/>
<path d="M1188 204.839C1183.72 202.574 1180.26 204.265 1174.98 201.276C1173.46 200.213 1171.61 199.721 1169.77 199.887C1168.49 200.219 1157.34 195.358 1154.94 190.074C1154.44 188.697 1154.17 187.24 1154.16 185.772C1154.05 184.625 1159.7 189.546 1165.16 186.859C1165.31 186.81 1165.43 186.72 1165.52 186.602C1165.62 186.484 1165.67 186.342 1165.69 186.193C1165.7 186.044 1165.67 185.893 1165.6 185.759C1165.54 185.626 1165.43 185.515 1165.3 185.44C1163.32 184.61 1161.65 183.178 1160.53 181.349C1160.35 181.047 1160.14 180.443 1160.83 180.911C1166.98 185.093 1175.04 180.624 1172.58 179.401C1170.39 178.846 1168.45 177.583 1167.05 175.808C1166.75 175.431 1167.05 175.491 1167.23 175.597C1171.76 177.62 1178.13 177.333 1181.72 173.876C1183.6 172.064 1177.59 171.295 1176.28 164.229C1174.96 157.164 1179.29 152.53 1180.05 140.468C1180.44 134.188 1175.76 122.549 1172.8 118.201C1164.76 106.396 1153.18 100.629 1138.73 96.5225C1135.31 95.7354 1131.75 95.834 1128.37 96.8093C1127.77 97.0509 1127.91 98.0472 1128.63 97.9416C1133.85 96.7903 1139.3 97.4618 1144.07 99.8437C1149.96 102.621 1161.6 105.248 1170.43 117.672C1189.82 144.846 1165.9 158.433 1177.88 170.842C1180.4 173.453 1180.76 173.031 1179.57 173.74C1177.43 174.937 1175 175.508 1172.55 175.391C1170.1 175.274 1167.74 174.471 1165.72 173.076C1164.79 172.472 1163.82 173.076 1164.32 174.208C1166.42 179.281 1171.52 179.945 1170.21 180.398C1163.26 182.738 1160.45 178.48 1159.47 177.937C1157.39 176.82 1157.01 181.349 1162.75 185.712C1163.94 186.617 1153.92 185.847 1154.01 182.572C1154.84 154.975 1152.18 167.083 1160.2 165.966C1166.85 165.014 1174.54 155.579 1172.7 148.922C1171.46 144.499 1167.37 145.012 1166.34 144.272C1156.39 137.132 1151.11 134.928 1148.23 130.399C1144.81 125.055 1132.09 123.213 1127.6 129.508C1127.44 129.75 1127.3 129.81 1127.08 129.508C1126.66 129.011 1126.15 128.603 1125.57 128.312C1124.99 128.02 1124.36 127.85 1123.71 127.811C1123.07 127.773 1122.42 127.868 1121.81 128.09C1121.2 128.311 1120.65 128.655 1120.18 129.1C1119.98 129.312 1119.89 129.312 1119.81 129.01C1119.03 125.779 1114.64 124.254 1111.03 124.058C1110.47 124.058 1110.36 124.254 1111.81 120.495C1112.09 119.801 1113.66 119.65 1115.98 121.311C1118.08 122.609 1116.61 117.748 1113.28 117.823C1111.77 117.823 1117.69 111.347 1118.61 110.275C1119.09 109.732 1119.23 110.668 1120.42 110.773C1120.92 110.773 1121.23 109.988 1120.63 109.52C1112.89 103.482 1121.1 91.0727 1128.4 95.0733C1129.91 95.9338 1130.65 94.3335 1129.19 93.5636C1124.03 91.0426 1118.18 94.4845 1116.55 100.131C1116.34 100.825 1116.3 100.025 1112.78 100.84C1111.2 101.212 1109.76 101.995 1108.58 103.108C1107.41 104.222 1106.55 105.627 1106.09 107.181C1105.89 107.893 1105.49 108.536 1104.94 109.037C1101.47 112.781 1103.13 117.552 1107.09 118.744C1107.38 118.835 1108.51 118.971 1108.6 118.442C1108.84 117.567 1108.13 117.552 1107.57 117.386C1102.29 115.801 1105.38 108.69 1105.97 111.211C1106.56 113.732 1109.97 116.903 1110.71 115.604C1111.45 114.306 1105.34 112.736 1107.6 107.075C1109.38 102.546 1116.13 101.036 1116.12 102.803C1116.03 108.388 1118.5 108.841 1117.9 109.475C1114.88 112.63 1113.37 113.747 1111.51 117.672C1111.38 118.011 1111.13 118.29 1110.8 118.457C1108.52 119.514 1107.68 122.986 1108.55 122.473C1110.42 121.22 1109.82 121.296 1109.35 123.635C1109.13 124.738 1107.62 123.726 1103.81 125.779C1097.03 129.523 1100.33 138.415 1106.09 142.355C1108.28 143.865 1101.77 145.963 1108.24 161.467C1108.27 161.517 1108.28 161.573 1108.29 161.632C1108.29 161.69 1108.28 161.748 1108.26 161.802C1108.23 161.855 1108.2 161.902 1108.15 161.938C1108.11 161.975 1108.05 161.999 1107.99 162.01C1105.62 163.079 1103.05 163.645 1100.45 163.671C1099.54 163.58 1099.57 164.577 1099.84 165.301C1102.09 171.34 1108.33 171.898 1107.15 172.593C1102.39 175.431 1102.5 174.903 1101.23 175.205C1101 175.227 1100.78 175.342 1100.63 175.523C1100.48 175.704 1100.41 175.937 1100.43 176.171C1100.33 177.393 1101.28 178.088 1102.61 179.039C1108.28 183.085 1113.87 180.549 1114.15 180.82C1113.71 182.343 1112.99 183.769 1112.03 185.032C1109.94 187.674 1115.87 188.051 1120.81 184.942C1120.9 184.919 1120.99 184.919 1121.08 184.942C1120.91 186.039 1120.67 187.123 1120.36 188.187C1119.63 190.588 1117.81 189.697 1117.11 192.188C1116.49 194.498 1104.78 197.728 1103.25 198.694C1102.76 198.996 1103.12 199.223 1098.56 189.908C1092.1 176.759 1092.52 176.775 1090.86 177.333C1087 178.571 1088.34 179.22 1085.92 174.314C1084.69 171.793 1056.44 179.16 1047.78 189.471C1045.95 191.735 1047.05 192.294 1047.67 191.735C1048.02 191.433 1050.43 186.663 1064.02 180.79C1070.46 177.997 1077.27 176.117 1084.23 175.205C1085.02 175.114 1084.7 174.887 1086.26 178.329C1086.65 179.205 1048.91 190.844 1047.97 192.037C1047.04 193.23 1044.95 192.852 1045.59 192.369C1045.73 192.273 1045.83 192.129 1045.86 191.963C1045.9 191.797 1045.87 191.624 1045.78 191.478C1042.76 184.489 1039.32 183.93 1039.74 182.421C1039.74 182.134 1038.42 179.009 1038.66 178.556C1038.9 178.103 1046.02 184.443 1045.78 188.625C1045.78 189.682 1047.47 190.135 1047.2 188.202C1046.43 182.541 1038.9 174.842 1036.91 177.288C1036.56 177.695 1038.02 180.669 1038.05 181.56C1037.09 181.273 1031.79 177.031 1030.11 179.13C1029.74 179.582 1029.92 179.643 1032.27 183.991C1032.86 185.093 1031.17 183.855 1029.49 182.858C1024.47 179.839 1026.47 182.753 1029.15 188.414C1058.9 249.69 1061.27 253.328 1060.97 255.019C1060.82 255.922 1060.9 256.849 1061.21 257.711C1061.52 258.573 1062.04 259.341 1062.74 259.94C1062.97 260.182 1063.14 260.479 1063.23 260.804C1063.31 261.129 1063.32 261.471 1063.23 261.797C1063.07 265.526 1065.74 264.922 1065.71 267.005C1065.73 268.42 1066.26 269.78 1067.22 270.825C1069.51 272.5 1068.53 269.224 1066.49 287.944C1065.92 293.182 1067.55 297.454 1068.44 300.7C1070.33 307.463 1077.5 311.177 1082.48 311.268C1083 311.268 1083.21 311.086 1082.48 313.336C1080.17 320.567 1083.1 322.061 1079.63 326.5C1079.01 327.392 1078.66 328.437 1078.6 329.519C1078.62 329.664 1078.69 329.797 1078.8 329.896C1078.9 329.996 1079.04 330.056 1079.18 330.068C1079.33 330.078 1079.47 330.039 1079.59 329.954C1079.71 329.871 1079.8 329.749 1079.84 329.61C1080.56 326.907 1082.86 325.73 1082.95 321.956C1082.95 321.292 1083.04 317.125 1083.19 316.491C1084.53 310.679 1084.25 311.283 1085.02 311.162C1089.92 310.377 1090.97 307.629 1093.73 303.886C1095.66 301.259 1099.77 283.747 1101.05 271.413C1101.05 270.93 1101.05 270.432 1101.49 270.1C1101.93 269.768 1104.1 256.287 1104.05 255.004C1104.05 254.505 1103.18 254.309 1103 254.762C1102.5 255.955 1101.74 263.352 1100.79 268.258C1100.69 268.862 1100.45 268.485 1098.18 266.884C1095.16 264.741 1094.72 265.254 1090.97 264.182C1084.93 262.416 1086.44 263.307 1089.8 261.163C1094.33 258.234 1094.03 255.502 1093.52 254.853C1093 254.204 1091.37 254.581 1093.52 253.962C1113.49 248.18 1121.14 246.006 1123.88 244.904C1125.76 244.18 1125.39 243.968 1124.93 243.485C1124.93 243.485 1122.06 237.658 1103.8 200.476C1103.53 199.902 1103.36 200.113 1106.98 198.966C1107.22 198.966 1107.3 198.966 1107.35 199.223C1108.25 203.17 1110.36 206.738 1113.38 209.428C1121.49 216.236 1124.46 213.866 1125.08 214.908C1130.23 223.679 1127.6 203.118 1126.59 266.447C1126.59 290.525 1128.72 289.091 1131.59 296.141C1131.82 296.669 1133.1 302.18 1133.99 303.161C1142.82 313.623 1149.89 313.441 1157.65 307.116C1164.15 301.817 1175.07 284.683 1175.91 285.332C1176.76 285.981 1178.15 286.042 1179.48 286.947C1181.27 288.17 1184.08 289.363 1186.15 288.759C1187.85 288.261 1187.4 289.438 1196.26 263.397C1196.73 262.008 1195.85 274.719 1192.9 286.298C1188.82 302.21 1182.33 311.298 1183.84 317.367C1184.44 319.722 1183.4 320.567 1183.84 324.432C1185.35 335.603 1184.61 334.893 1185.82 334.999C1187.02 335.105 1185.68 326.319 1185.57 325.805C1184.65 321.11 1185.85 319.767 1185.23 317.17C1183.63 310.543 1192.43 299.885 1196.34 276.606C1198.06 266.416 1196.75 262.446 1200.23 252.588C1204.58 240.39 1207.39 231.801 1205.35 218.939C1203.84 209.534 1200.93 211.662 1188 204.839ZM1046.61 194.271C1051.32 194.271 1044 183.855 1069.82 235.68C1070.27 236.601 1068.61 237.115 1067.64 237.296C1067.07 236.918 1068.34 239.017 1054.51 211.164C1045.71 193.547 1045.71 194.256 1046.61 194.256V194.271ZM1031.7 180.247C1033.71 180.005 1042.27 185.847 1044.33 191.675C1040.82 189.925 1037.44 187.907 1034.23 185.636C1033.95 184.413 1031.95 181.122 1031.7 180.232V180.247ZM1060.28 249.146C1059.78 248.422 1028.57 184.504 1028.36 183.975C1028.6 183.885 1027.79 183.477 1041.01 191.373C1045.25 193.909 1042.79 190.693 1049.96 205.246C1066.78 239.364 1066.46 237.794 1065.74 238.05C1056.7 241.145 1061.2 247.078 1060.28 249.131V249.146ZM1061.53 251.32C1061.55 250.551 1061.62 249.784 1061.74 249.026C1062.12 247.229 1060.14 242.987 1062.25 241.643C1064.99 239.98 1067.89 238.614 1070.92 237.567C1071.28 237.288 1071.68 237.054 1072.1 236.873C1074.15 236.42 1072.44 240.843 1068.68 242.911C1065.66 244.617 1065.36 244.783 1064.94 245.297C1064.52 245.81 1064.94 246.459 1065.33 246.323C1067.81 245.599 1071.91 241.175 1063.49 250.852C1061.5 253.162 1061.8 253.313 1061.53 251.305V251.32ZM1073.09 242.262C1073.35 242.896 1073.26 242.791 1070.9 243.259C1070.9 243.259 1070.9 243.259 1070.9 243.138C1072.22 242.338 1072.41 241.432 1072.67 241.492C1072.93 241.553 1072.88 241.794 1073.09 242.308V242.262ZM1085.53 255.758C1083.84 256.434 1082.1 256.94 1080.31 257.268C1078.89 257.339 1077.53 257.815 1076.38 258.642C1075.33 259.638 1074.54 260.151 1075.08 260.71C1075.28 260.921 1075.46 261.087 1075.75 260.786C1077.58 258.883 1079.46 258.974 1083.3 258.204C1084.44 257.978 1084.2 257.404 1086.03 257.223C1087.9 256.902 1089.75 256.478 1091.57 255.955C1093.08 255.955 1091.92 259.155 1084.02 262.205C1080.19 263.714 1078.41 264.122 1077.06 266.13C1076.7 266.673 1076.4 267.488 1077.06 267.79C1078.16 268.288 1077.5 265.979 1081.44 264.544C1082.12 264.303 1082.29 264.243 1082.53 267.262C1083.04 273.814 1080.63 276.682 1080.43 279.339C1080.43 279.701 1080.85 280.169 1081.3 279.611C1081.76 279.052 1082.98 275.474 1083.13 275.082C1086.51 264.967 1078.6 261.676 1089.17 264.922C1094.02 266.432 1094.62 266.175 1096.48 267.443C1100.88 270.462 1100.2 267.579 1098.08 281.89C1097.04 288.065 1095.6 294.162 1093.74 300.142C1093.32 301.38 1093.96 296.594 1093.74 291.522C1093.53 284.638 1086.44 273.134 1085.68 273.406C1084.17 273.904 1087.19 275.67 1090.88 285.876C1093.4 293.031 1092.07 302.874 1090.3 305.501C1088.01 308.882 1086.01 310.317 1080.23 309.441C1077.64 309.05 1075.22 307.9 1073.28 306.134C1071.34 304.369 1069.97 302.068 1069.33 299.523C1068.52 296.171 1067.19 292.307 1067.82 288.246C1070.84 266.507 1069.03 276.576 1072.81 281.769H1073.48C1073.27 280.124 1073.12 280.26 1071.1 273.617C1070.47 271.504 1070.45 271.202 1069.79 270.779C1066.93 268.998 1067.46 268.711 1066.9 265.692C1066.56 263.865 1064.31 264.348 1064.59 261.782C1064.67 261.059 1064.56 260.326 1064.28 259.656C1064 258.985 1063.55 258.397 1062.98 257.947C1061.94 256.966 1062.18 254.068 1063.99 252.181C1067.22 248.829 1067.58 247.335 1070.72 245.01C1071.22 244.632 1071.34 244.768 1075.99 243.681C1077 243.44 1076.38 243.198 1078.51 242.821C1084.2 241.794 1085.64 239.802 1085.58 241.07C1085.45 242.091 1085.03 243.056 1084.39 243.855C1083.74 244.655 1082.88 245.259 1081.91 245.599C1080.68 246.312 1079.39 246.893 1078.04 247.335C1068.99 249.388 1069.47 255.457 1070.95 253.72C1072.88 251.456 1072.59 250.988 1073.32 252.316C1073.86 253.313 1073.59 252.86 1071.81 254.46C1070.3 255.819 1065.26 259.895 1067.7 259.533C1068.05 259.533 1068.25 259.306 1071.45 256.619C1073.73 254.687 1074.65 252.951 1082.01 252.875C1086.26 252.875 1089.56 250.928 1092.45 250.369C1093.55 250.188 1093.26 253.72 1085.53 255.804V255.758ZM1075.11 252.407C1074.92 252.226 1075.01 252.513 1074.15 250.762C1073.95 250.339 1074.28 250.218 1076.4 249.569C1076.67 249.478 1076.91 249.977 1077.53 251.35C1077.67 251.713 1077.41 251.803 1075.11 252.452V252.407ZM1122.85 243.712C1121.64 244.089 1094.54 252.12 1094.5 252.135C1094.18 252.226 1093.92 252.256 1094.08 251.954C1094.72 250.565 1094.08 248.527 1092.37 248.935C1086.72 250.128 1087.69 251.426 1079.54 251.441C1078.92 251.441 1079.19 251.622 1078.03 249.327C1077.91 249.086 1078.03 248.935 1078.24 248.875C1079.86 248.39 1081.41 247.701 1082.86 246.821C1088.2 244.21 1088.14 237.432 1083.92 239.59C1081.95 240.486 1079.88 241.101 1077.74 241.417C1076.79 241.714 1075.86 242.062 1074.95 242.459C1074.53 242.61 1073.86 240.949 1073.67 240.451C1073.47 239.953 1075.63 235.031 1072.53 235.107C1069.89 235.816 1073.36 238.367 1050.27 193.214C1049.66 192.037 1049.04 192.671 1058.9 189.41C1062.9 188.097 1086.66 180.232 1091.13 178.616C1091.55 178.465 1091.13 177.831 1096.36 188.504C1123.54 244.693 1123.97 243.41 1122.85 243.757V243.712ZM1156.41 140.558C1156.41 139.955 1156.11 139.955 1163.5 144.755C1164.47 145.374 1162.22 145.118 1159.93 147.775C1159.49 148.288 1159.47 148.258 1158.84 147.956C1156.09 146.733 1156.02 143.744 1156.41 140.604V140.558ZM1129.76 129.523C1132.78 127.047 1142.6 127.108 1146.37 131.38C1149.66 135.124 1141.51 148.816 1133.46 143.185C1129.6 140.483 1126 132.542 1129.76 129.523ZM1110.26 136.377C1110.26 135.622 1109.41 126.232 1110.64 126.292C1112.93 126.211 1115.2 126.809 1117.16 128.013C1120.4 130.142 1116.72 144.846 1108.81 141.932C1107.96 141.6 1110.2 139.622 1110.26 136.377ZM1106.09 127.032C1106.88 126.791 1107.6 126.609 1108.48 126.398C1108.75 126.398 1108.89 126.398 1108.85 126.7C1108.07 133.508 1110.27 135.441 1107.66 140.664C1107.36 141.298 1107.3 141.328 1106.79 140.921C1100.46 135.758 1098.7 129.342 1106.09 127.032ZM1108.89 143.638C1110.26 143.942 1111.69 143.863 1113.02 143.41C1114.35 142.958 1115.53 142.149 1116.43 141.072C1117.29 140.196 1116.43 143.532 1120.66 144.302C1121.54 144.468 1121.87 143.397 1121.34 143.14C1120.06 142.491 1118.85 142.189 1118.15 140.03C1117.61 138.354 1122.83 139.698 1122.68 135.773C1122.68 134.731 1121.67 134.701 1121.45 135.637C1121.04 137.252 1121.45 137.011 1119.03 137.464C1118.82 137.464 1118.76 137.464 1118.83 137.207C1120.16 133.025 1119.74 131.833 1121.1 130.821C1121.69 130.477 1122.36 130.298 1123.04 130.301C1123.72 130.305 1124.39 130.492 1124.97 130.842C1125.56 131.192 1126.04 131.693 1126.36 132.292C1126.69 132.892 1126.85 133.567 1126.82 134.248C1127.02 139.185 1131.8 146.416 1137.39 146.204C1145.3 145.887 1147.58 137.735 1149.01 136.845C1149.96 136.241 1150.96 136.618 1154.97 139.079C1156.15 139.789 1152.72 146.944 1158.31 149.39C1158.9 149.646 1157.62 150.431 1159.05 150.899C1159.28 150.899 1160.09 149.556 1161.39 148.469C1167.76 143.08 1175.29 147.457 1168.94 157.632C1167.67 159.64 1166.4 161.376 1160.86 163.671C1153.66 166.69 1152.8 148.258 1152.66 181.787C1152.66 191.297 1153.69 194.15 1167.05 200.627C1167.58 200.883 1162.94 204.34 1162.91 204.356C1154.87 210.122 1159.59 207.375 1150.69 210.953C1149.18 211.526 1142.94 214.108 1142.84 213.157C1141.63 203.057 1139.21 200.747 1137.55 194.83C1136.04 189.606 1134.35 188.278 1134.2 186.527C1133.99 183.96 1128.16 178.979 1127.45 178.073C1127.2 177.771 1127.23 177.65 1127.6 177.514C1144.62 171.974 1142.04 167.762 1140.32 168.773C1136.81 170.811 1121.13 176.427 1113.82 168.049C1105.71 159.021 1105.53 142.672 1108.85 143.699L1108.89 143.638ZM1113.64 185.379C1114.7 183.499 1115.46 181.461 1115.87 179.341C1115.91 179.187 1115.9 179.025 1115.84 178.878C1115.79 178.731 1115.68 178.606 1115.55 178.521C1115.42 178.435 1115.26 178.395 1115.1 178.404C1114.94 178.412 1114.79 178.472 1114.67 178.571C1109.43 182.104 1100.19 176.563 1102.38 176.397C1103.69 176.291 1112.51 172.231 1108.25 170.811C1103.22 169.136 1100.94 165.241 1101.55 165.06C1103.91 164.904 1106.22 164.342 1108.39 163.399C1110.38 162.448 1108.39 167.173 1117.67 172.895C1117.25 173.365 1117.02 173.975 1117.02 174.608C1117.02 175.241 1117.25 175.851 1117.67 176.322C1120.27 179.492 1122.2 180.851 1122.06 181.152C1121.84 181.636 1122.06 182.3 1121.48 182.662C1119.23 184.187 1116.24 185.908 1113.64 185.379ZM1123.57 212.809C1116.74 211.738 1110.06 204.974 1108.69 199.298C1108.43 198.226 1108.25 198.332 1109.4 197.94C1112.76 196.747 1114.5 195.464 1114.08 196.219C1113.23 197.728 1113.84 199.676 1113.73 200.37C1113.34 202.982 1115.15 205.186 1117.76 206.575C1118.11 206.756 1117.99 206.726 1120.3 206.877C1121.81 206.514 1122 206.363 1122.18 206.877C1122.52 207.63 1122.77 208.414 1122.95 209.217C1123.56 212.553 1124.34 212.991 1123.56 212.87L1123.57 212.809ZM1167.76 292.986C1166.4 294.826 1164.93 296.581 1163.35 298.239C1161.22 300.7 1159.52 303.448 1156.15 306.029C1148.27 312.068 1142.37 310.558 1135.5 302.512C1134.46 300.743 1133.72 298.816 1133.31 296.805C1132.33 292.835 1130.58 291.733 1129.36 287.234C1126.16 275.474 1129.64 218.652 1129.96 218.365C1131.26 217.172 1129.23 217.761 1126.32 213.957C1123.95 210.937 1125.05 207.707 1120.28 199.947C1120.19 199.737 1120.05 199.552 1119.87 199.405C1119.69 199.259 1119.48 199.155 1119.26 199.102C1118.34 198.951 1119.09 200.144 1119.51 201.08C1120.15 202.453 1118.85 201.578 1118.61 201.563C1117.99 201.487 1117.57 202.197 1119.68 203.435C1119.94 203.586 1120.63 203.601 1120.81 203.842C1120.99 204.179 1121.12 204.54 1121.19 204.914C1121.19 205.125 1121.19 205.186 1120.99 205.201C1119.33 205.397 1118.61 205.744 1117.23 204.582C1116.45 203.918 1115.04 202.408 1115.07 201.382C1115.15 198.362 1114.64 196.853 1117.23 195.343C1118.24 194.784 1118.43 193.833 1118.49 192.716C1118.59 190.663 1120.66 191.78 1121.51 189.108C1122.71 185.304 1128.24 188.655 1127.44 186.527C1124.99 180.111 1117.32 175.959 1118.38 174.118C1119.38 172.502 1123 175.506 1123.95 176.593C1126.88 179.899 1132.25 184.398 1132.74 187.538C1133.04 189.41 1134.35 190.074 1135.67 194.483C1138.04 202.393 1140.72 205.759 1141.04 214.5C1141.54 228.087 1155.56 280.23 1155.58 280.275C1155.97 281.09 1156.91 280.758 1156.86 279.897C1156.32 269.768 1150.67 258.597 1152.06 258.521C1154.35 258.363 1156.64 258.81 1158.7 259.819C1160.09 260.861 1168.67 268.485 1169.42 269.194C1172.55 272.062 1176.03 273.059 1178.28 276.501C1179.88 278.871 1180.31 275.338 1167.75 293.046L1167.76 292.986ZM1122.47 185.591C1123.17 182.028 1123.09 182.164 1123.51 182.572C1124.27 183.402 1124.89 184.35 1125.34 185.379C1125.66 185.968 1124.69 185.757 1124.68 185.696C1122.52 186.089 1122.26 186.27 1122.38 185.651L1122.47 185.591ZM1187.27 284.653C1187.2 284.779 1187.12 284.892 1187.01 284.985C1186.93 284.902 1186.85 284.81 1186.78 284.713C1182.68 278.675 1180.61 277.165 1179.64 275.444C1178.42 273.285 1174.89 271.051 1172.76 269.753C1171.35 268.892 1168.62 266.084 1166.46 264.378C1161.59 260.529 1161.47 258.098 1154.51 257.147C1153.45 256.996 1151.83 257.464 1151.58 257.253C1151.32 257.042 1151.58 256.679 1152.8 254.324C1153.83 252.198 1155.05 250.175 1156.47 248.286C1162.72 239.47 1161.45 239.922 1163.58 236.284C1167.32 229.823 1168.3 230.608 1174.3 224.207C1182.51 215.421 1182.92 215.225 1183.46 213.836C1183.7 213.187 1183.13 212.885 1182.83 213.202C1164.05 233.038 1165.84 229.053 1161.99 236.239C1153.46 252.181 1158.45 241.085 1151.17 254.204C1150.4 255.577 1142.11 217.701 1142.91 215.164C1143.14 214.44 1143.98 215.602 1150.46 212.855C1160.26 208.673 1155.09 212.07 1163.29 206.031C1167.44 203.012 1169.33 199.645 1173.54 202.167C1178.98 205.427 1180.94 204.084 1186.04 205.593C1188.74 206.393 1188.47 207.284 1199.81 211.858C1203.13 213.202 1203.6 216.131 1203.99 219.014C1205.94 234.216 1204.58 236.058 1187.17 284.713L1187.27 284.653Z" fill="#575785"/>
<path d="M1176.74 94.3184C1180.88 96.0545 1182.04 96.3262 1179.25 97.0206C1177.5 96.5979 1177.28 96.5677 1176.23 94.4241C1176.12 94.1523 1176.45 94.1976 1176.74 94.3184Z" fill="#E6FCFF"/>
<path d="M1185.01 93.6546C1185.27 93.6546 1185.26 93.8357 1185.15 93.9716C1184.53 94.8019 1183.82 96.0247 1182.66 95.285C1179.64 93.3375 1173.75 92.4469 1175.37 89.9258C1176.03 88.8992 1175.49 90.0767 1178.93 91.5562C1182.66 93.1564 1184 93.7753 1185.01 93.6546Z" fill="#E6FCFF"/>
<path d="M1186.25 90.3936C1187.17 90.4842 1186.04 92.1297 1184.58 92.0995C1182.15 91.2541 1174.82 88.567 1176.85 86.9668C1177.09 86.7856 1176.97 86.2724 1177.32 86.3025C1177.92 86.3025 1177.12 86.9366 1181.12 88.5368C1185.12 90.137 1185.47 90.2729 1186.25 90.3936Z" fill="#E6FCFF"/>
<path d="M1178.69 83.0718C1186.69 89.1103 1189.86 86.0005 1187.45 88.8084C1186.99 89.3367 1185.24 88.4461 1184.58 88.2045C1181.35 87.0119 1175.96 85.2909 1178.69 83.0718Z" fill="#E6FCFF"/>
<path d="M1199.85 72.3381C1200.32 72.4739 1199.97 73.5759 1199.55 73.3495C1197.95 72.5343 1199.3 72.1569 1199.85 72.3381Z" fill="#FFD152"/>
<path d="M1183.9 68.2021C1183.07 68.8814 1182.69 67.568 1183.23 67.4171C1183.41 67.3718 1183.73 67.9455 1183.9 68.2021Z" fill="#FFD152"/>
<path d="M1189.59 55.8534C1208.29 55.7477 1212.32 80.3547 1192.88 82.5739C1190.34 82.8758 1189.86 82.1512 1189.07 83.1626C1187.66 85.1704 1188.58 86.0762 1187.41 85.7743C1185.04 85.168 1182.78 84.1897 1180.71 82.8758C1178.79 81.7134 1182.22 81.3662 1181.22 79.2074C1180.23 77.0486 1180.18 78.6941 1178.61 76.1881C1171.35 64.6093 1181.65 55.4156 1189.59 55.8534ZM1198.92 75.0861C1199.87 77.4411 1202.83 71.8706 1200.55 71.1309C1198.27 70.3911 1197.66 71.9913 1197.3 71.9008C1193.8 71.1158 1195.97 71.5687 1193.95 70.527C1193.02 70.0439 1192.28 71.1761 1191.52 70.1043C1190.33 68.3833 1191.19 70.1043 1185.59 67.8701C1185.2 67.7191 1184.98 67.1756 1184.68 66.8133C1184.38 66.451 1183.91 66.451 1183.35 66.3C1181.72 65.8622 1180.79 69.1985 1183.35 69.6363C1183.63 69.6363 1183.82 69.6363 1183.73 70.1043C1183.16 72.565 1186.49 74.6332 1185.83 75.8258C1184.93 77.5517 1184.29 79.4044 1183.94 81.3209C1183.87 81.7738 1184.27 81.5322 1184.44 81.6681C1185.07 82.2116 1185.38 79.3734 1187.01 76.3089C1188.11 74.2709 1184.91 72.2329 1184.98 70.4817C1185.07 68.2324 1185.95 69.5156 1188 70.1647C1189.15 70.527 1190.03 70.1647 1190.34 70.9195C1190.55 71.3228 1190.89 71.6392 1191.31 71.8109C1191.73 71.9828 1192.19 71.9985 1192.62 71.8555C1194.01 71.4932 1193.65 72.565 1195.28 72.9122C1196.91 73.2594 1196.89 73.184 1196.89 73.7878C1196.89 73.9992 1196.89 74.2256 1196.64 74.286C1195.86 74.5508 1195.12 74.9109 1194.43 75.3578C1193.57 75.7654 1193.95 75.071 1192.52 76.007C1190.36 77.4109 1190.72 76.5202 1189.81 77.2298C1188.3 78.4526 1185 81.9398 1186.06 82.7701C1187.11 83.6004 1187.23 81.4265 1189.38 79.464C1191.52 77.5015 1191.19 78.4526 1191.91 77.9544C1193.42 77.0184 1193.63 76.8826 1193.86 76.8675C1195.16 76.7618 1196.16 75.6748 1197.14 75.5843C1198.46 75.4635 1198.12 74.3011 1198.4 74.3917C1198.69 74.4822 1198.81 74.8295 1198.92 75.0861Z" fill="#FFD152"/>
<path d="M1174.99 93.836C1174.92 94.4255 1174.98 95.0226 1175.16 95.5888C1175.33 96.1552 1175.63 96.6783 1176.02 97.1246C1176.41 97.5709 1176.89 97.9306 1177.43 98.1806C1177.96 98.4306 1178.55 98.5654 1179.14 98.5762C1181.35 98.7725 1182.24 96.8855 1183.07 97.0666C1184.92 97.4289 1186.4 95.3758 1186.46 93.9115C1186.46 93.1416 1187.04 92.6283 1187.34 91.8886C1187.64 91.1488 1187.25 90.6809 1187.64 90.5601C1188.22 90.1628 1188.68 89.6236 1188.99 88.9945C1189.3 88.3653 1189.45 87.6673 1189.41 86.9672C1189.41 86.7709 1189.92 86.0765 1189.41 85.4575C1189.3 85.3217 1189.82 84.5065 1189.94 84.3857C1190.06 84.2649 1204.43 85.4122 1206.95 72.7464C1210.63 54.2384 1180.91 46.7506 1175.37 64.534C1172.35 74.1051 1180.2 79.1775 1179.73 80.1587C1178.51 82.6798 1177.72 81.6684 1177.27 82.7704C1176.06 85.5632 1177.27 85.216 1176.62 85.5632C1174.45 86.6803 1175.65 88.0541 1174.9 88.5825C1174.31 89.0152 1173.91 89.6586 1173.79 90.3786C1173.66 91.0984 1173.81 91.8395 1174.22 92.4471C1174.81 93.1416 1175.11 93.2925 1174.99 93.836ZM1179.25 97.0213C1177.5 96.5986 1177.29 96.5684 1176.23 94.4248C1176.09 94.153 1176.42 94.1983 1176.71 94.3191C1180.88 96.0401 1182.04 96.3118 1179.25 97.0213ZM1178.55 76.1884C1171.29 64.6699 1181.57 55.4159 1189.53 55.8537C1208.23 55.748 1212.26 80.355 1192.82 82.5741C1190.28 82.8761 1189.8 82.1514 1189.02 83.1629C1187.6 85.1707 1188.52 86.0765 1187.35 85.7746C1184.98 85.1683 1182.72 84.19 1180.65 82.8761C1178.73 81.7137 1182.16 81.3664 1181.16 79.2077C1180.17 77.0489 1180.18 78.6944 1178.55 76.1884ZM1178.63 83.0723C1186.63 89.1108 1189.8 86.001 1187.38 88.8089C1186.93 89.3373 1185.18 88.4466 1184.52 88.2051C1181.35 87.0125 1175.96 85.2915 1178.69 83.0723H1178.63ZM1176.79 86.9672C1177.03 86.786 1176.91 86.2727 1177.25 86.3029C1177.86 86.3029 1177.06 86.937 1181.06 88.5372C1185.06 90.1374 1185.41 90.3186 1186.19 90.394C1186.98 90.4695 1186.1 92.1301 1184.59 92.0999C1182.15 91.2545 1174.84 88.5674 1176.85 86.9672H1176.79ZM1175.28 89.9864C1175.94 88.9599 1175.4 90.1374 1178.84 91.6168C1182.57 93.2321 1183.91 93.836 1184.88 93.7152C1185.14 93.7152 1185.12 93.8964 1185.01 94.0322C1184.4 94.8625 1183.69 96.0853 1182.52 95.3456C1179.58 93.2925 1173.75 92.4471 1175.37 89.926L1175.28 89.9864Z" fill="#575785"/>
<path d="M1183.43 69.6363C1183.7 69.6363 1183.9 69.6363 1183.81 70.1043C1183.23 72.565 1186.57 74.6332 1185.91 75.8258C1185 77.5517 1184.37 79.4044 1184.02 81.3209C1183.94 81.7738 1184.35 81.5322 1184.52 81.6681C1185.15 82.2116 1185.45 79.3735 1187.08 76.3089C1188.18 74.2709 1184.98 72.2329 1185.06 70.4817C1185.15 68.2324 1186.03 69.5156 1188.08 70.1647C1189.23 70.527 1190.1 70.1647 1190.42 70.9195C1190.62 71.3229 1190.97 71.6392 1191.39 71.811C1191.8 71.9828 1192.27 71.9985 1192.7 71.8555C1194.09 71.4932 1193.73 72.565 1195.36 72.9122C1196.99 73.2595 1196.97 73.184 1196.97 73.7878C1196.97 73.9992 1196.97 74.2256 1196.71 74.286C1195.94 74.5508 1195.2 74.9109 1194.51 75.3578C1193.65 75.7654 1194.03 75.071 1192.59 76.007C1190.43 77.4109 1190.8 76.5203 1189.89 77.2298C1188.38 78.4526 1185.07 81.9398 1186.13 82.7701C1187.19 83.6004 1187.31 81.4266 1189.45 79.464C1191.6 77.5015 1191.26 78.4526 1191.99 77.9544C1193.5 77.0184 1193.71 76.8826 1193.94 76.8675C1195.23 76.7618 1196.23 75.6749 1197.21 75.5843C1198.54 75.4635 1198.19 74.3011 1198.48 74.3917C1198.77 74.4823 1198.77 74.7691 1198.87 75.0257C1199.82 77.3958 1202.78 71.8102 1200.5 71.0705C1198.22 70.3308 1197.62 71.931 1197.26 71.8404C1193.76 71.0554 1195.93 71.5083 1193.91 70.4666C1192.97 69.9836 1192.23 71.1158 1191.48 70.0439C1190.28 68.323 1191.14 70.0439 1185.54 67.8097C1185.15 67.6587 1184.94 67.1153 1184.64 66.7529C1184.34 66.3906 1183.87 66.3906 1183.31 66.2397C1181.72 65.8623 1180.79 69.1382 1183.43 69.6363ZM1199.85 72.3386C1200.32 72.4744 1199.98 73.5765 1199.55 73.35C1197.95 72.5348 1199.3 72.1574 1199.85 72.3386ZM1183.25 67.4172C1183.43 67.4172 1183.75 67.9456 1183.91 68.2022C1183.08 68.8815 1182.69 67.6285 1183.23 67.4172H1183.25Z" fill="#575785"/>
<path d="M1193.97 232.269C1188.96 234.835 1182.27 239.5 1166.79 240.451C1166.21 240.451 1165.62 240.723 1165.69 241.326C1165.77 241.93 1178.6 242.61 1194.38 233.506C1196.46 232.284 1195.34 231.574 1193.97 232.269Z" fill="#575785"/>
<path d="M1169.15 236.39C1177.23 233.869 1187.61 225.823 1186.95 224.947C1185.63 223.271 1182.31 230.004 1168.71 235.318C1168.23 235.499 1168.44 236.239 1169.15 236.39Z" fill="#575785"/>
<path d="M1163.46 133.644C1163.71 133.916 1169.68 139.321 1170.33 137.645C1170.57 137.011 1170.18 136.83 1168.09 135.38C1157.24 128.013 1152.63 113.098 1147.47 109.898C1147.12 109.687 1146.84 110.517 1146.97 110.773C1148.16 112.081 1149.23 113.485 1150.19 114.97C1156.51 125.085 1154.94 124.421 1163.46 133.644Z" fill="#575785"/>
<path d="M1164.23 210.213C1160.8 212.251 1160.72 213.232 1158.94 214.002C1157.77 214.515 1148.38 218.184 1149.18 219.558C1149.61 220.267 1149.54 219.693 1159.74 215.15C1161.2 214.246 1162.58 213.237 1163.88 212.13C1169.04 208.401 1169.77 208.462 1169.51 207.601C1169.06 206.228 1166.25 209.02 1164.23 210.213Z" fill="#575785"/>
<path d="M1160.3 160.531C1163.41 160.531 1164.45 156.968 1163.46 155.051C1163.33 154.842 1163.26 154.605 1163.24 154.36C1163.22 154.115 1163.27 153.871 1163.37 153.647C1164 152.137 1167.16 149.284 1167.46 153.33C1167.46 153.813 1168.24 153.964 1168.58 153.33C1168.79 152.908 1168.87 152.436 1168.83 151.968C1168.78 151.499 1168.61 151.053 1168.32 150.679C1168.03 150.305 1167.65 150.018 1167.21 149.852C1166.77 149.685 1166.29 149.646 1165.83 149.737C1163.38 150.265 1160.71 153.375 1162.01 155.896C1162.45 156.757 1162.01 158.538 1161.1 158.749C1159.31 159.142 1159.19 158.296 1158.75 159.112C1158.31 159.927 1159.28 160.531 1160.3 160.531Z" fill="#575785"/>
<path d="M1149.87 91.7823C1149.96 90.7557 1149.66 87.8723 1152.21 87.1779C1154.26 86.6042 1155.4 86.8005 1156.32 85.2003C1157.1 83.8416 1156.32 83.4189 1157.06 82.0149C1159.53 77.486 1158.26 78.1805 1161.59 76.7312C1170.46 72.7911 1163.1 67.764 1162.31 70.3002C1161.9 71.523 1162.69 72.2174 1163.22 71.0399C1163.49 70.421 1166.37 72.6552 1162.97 74.5121C1159.83 76.218 1158.31 76.2029 1157.46 78.3616C1156.62 80.5204 1155.26 81.8942 1155.31 83.8869C1155.31 85.3059 1153.99 85.2606 1152.47 85.5626C1151.26 85.8929 1150.2 86.6284 1149.48 87.6455C1148.75 88.6626 1148.39 89.8994 1148.47 91.1482C1148.5 93.8655 1149.67 94.1373 1149.87 91.7823Z" fill="#575785"/>
<path d="M1130.85 103.965C1129.87 103.943 1128.9 104.127 1128 104.507C1127.1 104.887 1126.29 105.454 1125.63 106.169C1124.74 107.12 1125.63 107.981 1126.53 107.211C1127.21 106.514 1128.05 105.997 1128.97 105.707C1129.9 105.417 1130.88 105.363 1131.83 105.55C1143.12 107.06 1143.91 120.994 1155.46 134.762C1156.83 136.377 1157.9 135.788 1157.37 134.837C1155.24 132.205 1153.27 129.448 1151.47 126.58C1141.95 109.49 1141.02 105.475 1130.85 103.965Z" fill="#575785"/>
<path d="M1131.76 117.975C1131.23 118.533 1130.83 119.741 1131.62 119.484C1132.71 119.047 1133.73 117.763 1136.47 117.794C1140.25 117.794 1141.63 123.349 1141.88 120.526C1141.57 116.042 1136.07 113.34 1131.76 117.975Z" fill="#575785"/>
<path d="M1134.37 135.743C1135.18 135.743 1135.23 135.2 1135.44 134.369C1135.2 132.769 1133.93 132.86 1133.63 133.78C1133.33 134.701 1133.48 135.698 1134.37 135.743Z" fill="#575785"/>
<path d="M1122.14 105.973C1122.14 106.984 1122.14 108.826 1123.18 108.66C1124.55 108.449 1122.29 105.882 1124.39 102.622C1124.62 102.17 1124.95 101.775 1125.36 101.467C1125.76 101.159 1126.23 100.945 1126.73 100.84C1126.9 100.769 1127.06 100.654 1127.17 100.505C1127.29 100.357 1127.37 100.181 1127.39 99.9948C1127.32 98.0021 1122.08 100.191 1122.14 105.973Z" fill="#575785"/>
<path d="M1112.13 50.0561C1112.58 50.1769 1113.23 49.5277 1113.96 49.407C1115.04 49.2258 1117.93 49.1352 1118.49 50.2372C1120.28 53.6943 1114.2 58.0119 1113.46 62.7823C1112.99 65.8015 1116.16 66.5866 1121.01 67.9301C1125.19 69.0774 1117.4 74.4064 1119.78 77.622C1120.18 78.1352 1121.29 79.1316 1122.2 80.0827C1124.48 82.4679 1121.52 85.6532 1123.01 85.9702C1124.51 86.2872 1125.61 81.3055 1123.01 78.7844C1120.13 75.8859 1119.83 76.8973 1122.89 71.5381C1123.69 70.1342 1124.13 67.6735 1122.38 66.9187C1120.63 66.1639 1120.87 66.7224 1116.67 65.092C1110.27 62.6313 1122.44 55.3247 1119.56 49.6334C1118.89 48.003 1117.49 48.1842 1115.57 48.003C1111.71 47.9124 1111.57 49.9051 1112.13 50.0561Z" fill="#575785"/>
<path d="M1120.93 155.005C1120.93 154.462 1120.6 152.877 1119.33 152.847C1117.82 152.847 1117.6 155.096 1118.68 156.198C1119.33 156.877 1120.57 157.028 1120.93 155.005Z" fill="#575785"/>
<path d="M1115.42 133.191C1115.3 131.682 1114.11 131.682 1113.91 132.255C1112.96 133.961 1114.94 135.562 1115.42 133.191Z" fill="#575785"/>
<path d="M1089.49 185.742C1055.08 197.2 1056.27 196.309 1057.25 198.211C1064.24 212.749 1064 212.07 1065.26 212.205C1068.7 211.209 1096.78 201.895 1096.96 201.804C1098.89 201.14 1097.77 200.083 1092.61 189.606C1090.8 185.802 1090.86 185.289 1089.49 185.742ZM1096.01 200.611L1065.33 210.741C1064.97 210.741 1065.47 211.602 1058.64 198.105C1058.3 197.426 1056.47 198.347 1078.01 191.131C1081.76 189.878 1085.32 188.625 1089.32 187.312C1090.36 186.979 1089.53 185.953 1093.85 194.86C1096.58 200.657 1096.7 200.385 1096.02 200.611H1096.01Z" fill="#575785"/>
<path d="M1087.74 199.51C1087.54 199.51 1067.99 205.548 1066.6 206.212C1065.92 206.499 1065.3 207.405 1066.13 207.616C1066.4 207.616 1088.49 201.17 1089.65 199.827C1089.05 198.71 1088.54 199.48 1087.74 199.51Z" fill="#575785"/>
<path d="M1069.51 198.196C1072 197.758 1071.91 196.958 1073.38 197.034C1076.17 196.656 1077.23 195.524 1079.76 194.89C1082.3 194.256 1083.02 194.437 1085 193.38C1085.49 193.139 1085.82 192.293 1084.79 192.082C1084.61 192.082 1083.45 192.429 1081.77 192.852C1075.81 194.362 1074.98 195.479 1073.44 195.449C1071.66 195.449 1071.73 196.173 1069.08 196.762C1063.04 198.105 1064.02 198.679 1062.4 198.755C1062.21 198.755 1061.89 199.223 1061.83 199.404C1061.69 199.947 1063.34 200.264 1064.12 199.826C1065.8 198.952 1067.63 198.4 1069.51 198.196Z" fill="#575785"/>
<path d="M1074.62 122.865C1076.82 119.937 1075.52 120.36 1082.78 122.865C1082.93 122.935 1083.1 122.956 1083.27 122.923C1083.43 122.89 1083.58 122.807 1083.69 122.684C1083.8 122.561 1083.87 122.406 1083.89 122.241C1083.91 122.075 1083.88 121.908 1083.79 121.763C1083 120.039 1082.08 118.374 1081.05 116.782C1080.43 115.997 1083.61 112.6 1083.67 110.743C1083.76 108.011 1078.16 112.555 1076.94 110.954C1075.96 109.671 1074.46 108.252 1073.48 106.697C1073.05 105.988 1072.2 105.731 1072.06 106.577C1070.9 114.291 1072.77 112.389 1068.47 114.049C1066.07 114.985 1066 114.97 1065.86 115.74C1065.44 118.171 1071.05 118.518 1071.07 119.62C1071.16 124.586 1070.96 124.285 1071.07 125.326C1071.09 125.466 1071.15 125.597 1071.24 125.706C1071.33 125.816 1071.44 125.899 1071.58 125.947C1071.71 125.994 1071.85 126.006 1071.99 125.979C1072.13 125.952 1072.26 125.888 1072.37 125.794C1073.2 124.883 1073.95 123.903 1074.62 122.865ZM1071.22 117.808C1066.06 115.876 1066.06 116.299 1071.73 114.245C1072.97 113.793 1072.38 111.09 1073.24 108.766C1078.63 113.808 1074.09 113.385 1081.97 111.573C1080.8 114.683 1078.39 115.574 1079.78 117.189C1080.55 118.276 1081.23 119.433 1081.79 120.646C1082.16 121.28 1080.28 120.646 1077.6 119.65C1076.09 119.091 1076.44 117.959 1072.88 122.941C1071.49 124.888 1073.5 118.654 1071.22 117.808Z" fill="#575785"/>
<path d="M1045.56 96.4772C1046.28 95.6922 1046.3 95.6922 1046.96 96.4772C1047.64 97.2812 1048.15 98.2094 1048.47 99.2096C1048.74 100.176 1047.72 99.6625 1047.4 99.6776C1045.89 99.6776 1046.51 100.81 1046.88 100.991C1050.6 102.787 1052.2 98.5152 1052.3 99.9191C1052.47 101.821 1052.46 103.889 1052.55 106.38C1052.55 107.513 1053.47 108.373 1054.24 107.679C1055.01 106.984 1057.06 104.901 1059.97 102.063C1064.74 97.3981 1064.94 97.5339 1064.88 96.613C1064.19 86.4985 1063.37 89.0649 1066.69 85.4569C1070.71 81.1242 1078.77 72.308 1081.38 67.0243C1085.41 59.0383 1087.01 50.6297 1083.25 50.207C1078.22 49.6484 1069.48 54.0414 1065.14 57.8608C1062.02 60.5308 1059.11 63.4326 1056.43 66.5412C1047.37 76.4897 1049.93 74.8744 1045.86 75.4178C1037.66 76.4746 1040.53 74.7083 1030.34 85.8192C1029.09 87.1929 1029.98 88.1289 1030.79 88.1289C1033.24 87.8733 1035.7 87.7926 1038.16 87.8874C1037.73 88.3288 1037.42 88.867 1037.25 89.4558C1037.07 90.0446 1037.04 90.6667 1037.16 91.2689C1037.48 92.4655 1038.11 93.5552 1038.99 94.4241C1039.49 94.7411 1039.85 94.1825 1039.65 93.5938C1039.56 93.2919 1038.01 90.9972 1038.46 90.4387C1038.91 89.8801 1040.06 90.4387 1043.4 92.9748C1044.32 93.6693 1042.55 94.3335 1041.06 96.5376C1040.2 97.8358 1041.72 98.5001 1042.13 98.802C1042.54 99.1039 1042.91 99.1643 1043.32 98.8775L1045.56 96.4772ZM1038.16 106.637C1027.59 123.243 1025.24 140.634 1033.39 162.252C1033.54 162.629 1034.05 164.335 1034.57 163.988C1036.2 162.916 1027.58 149.329 1030.41 129.342C1033.03 110.955 1045.16 100.342 1045.51 98.7416C1045.69 97.9566 1045.41 97.6245 1044.47 97.9868C1042.16 100.712 1040.05 103.603 1038.16 106.637ZM1042.87 90.8614C1039.93 88.6422 1038.76 89.6235 1039.32 88.6724C1039.59 88.2044 1039.87 87.676 1040.3 87.8723C1042.4 88.0534 1043.13 88.8535 1045.66 90.5745C1046.1 90.8764 1045.75 91.2086 1045.06 91.8879C1044.65 92.3408 1044.74 92.2502 1042.93 90.8614H1042.87ZM1042.69 97.6849C1041.57 96.915 1041.07 98.485 1054.52 82.815C1055.19 82.0602 1056.03 81.3054 1056.44 82.3168C1056.49 82.3621 1042.76 97.6547 1042.69 97.6849ZM1050.76 99.1945C1049.44 100.327 1050.63 99.1945 1048.33 96.1753C1047.28 94.7864 1047.14 94.7864 1047.34 94.5599C1048.56 93.1258 1048.3 92.4465 1051.23 98.168C1051.53 98.5756 1051.23 98.802 1050.81 99.1643L1050.76 99.1945ZM1054.27 106.018C1053.78 106.516 1054.01 106.501 1053.48 98.9379C1053.48 98.2283 1059.52 93.5032 1061.47 91.1784C1063.42 88.8535 1062.98 89.246 1063.63 96.1903C1063.94 96.8093 1063.82 96.5678 1054.31 105.988L1054.27 106.018ZM1068.35 57.5136C1071.4 55.264 1074.83 53.5769 1078.47 52.5318C1084.19 51.0222 1083.55 52.5318 1083.83 54.7812C1083.68 56.9174 1083.21 59.0193 1082.44 61.0159C1078.8 69.8926 1079.12 69.0925 1078.12 67.3111C1073.5 59.0836 1067.11 58.2835 1068.35 57.5136ZM1066.4 59.0232C1068.34 57.1966 1079.31 68.4735 1077.73 70.587C1073.09 76.8067 1056.97 94.9223 1052.71 97.5339C1051.83 95.8084 1050.82 94.1486 1049.69 92.5672C1049.32 92.0087 1049.27 92.3861 1054.6 86.4532C1057.62 83.0113 1058.48 82.6188 1057.42 81.3205C1056.97 80.7619 1055.76 79.9467 1054.99 80.7317C1054.22 81.5167 1053.8 82.0451 1050.01 86.3928C1046.52 90.3783 1047.25 89.9254 1046.01 88.9894C1041.03 85.2304 1040.14 88.1893 1043.32 84.1284C1050.47 75.2747 1058.16 66.8796 1066.36 58.993L1066.4 59.0232ZM1039.1 78.1955C1039.71 77.4709 1039.71 77.5917 1047.13 76.6859C1048.29 76.5349 1045 79.207 1042.6 82.8301C1042.05 83.6151 1040 86.3626 1039.2 86.4683C1039.2 86.4683 1031.65 86.6948 1031.65 86.6495C1031.34 86.3777 1035.37 82.5282 1039.1 78.1955Z" fill="#575785"/>
<path d="M1076.7 200.143C1079.72 199.268 1079.92 198.996 1080.99 198.981C1081.24 198.997 1081.49 198.923 1081.69 198.771C1081.89 198.619 1082.04 198.398 1082.09 198.151C1082.09 196.414 1076.05 199.177 1073.2 199.66C1070.6 200.098 1064.7 201.819 1063.84 202.755C1063.23 203.419 1063.57 203.797 1064.38 203.842C1067.4 202.815 1066.99 202.679 1068.08 202.332C1074.39 200.611 1070.04 202.061 1076.7 200.143Z" fill="#575785"/>
<path d="M1071.37 152.167C1070.43 152.288 1067.32 152.968 1066.84 153.103C1065.95 153.33 1063.16 147.155 1062.45 149.45C1060.71 155.096 1063.1 154.175 1058.67 154.553C1056.86 154.704 1056.83 155.187 1056.88 156.062C1056.88 156.651 1057.09 156.772 1058.18 157.436C1063.08 160.455 1060.94 158.266 1060.53 163.852C1060.53 164.622 1060.92 164.984 1061.54 164.788C1062.95 164.32 1065.17 160.259 1066.19 160.787C1067.68 161.301 1069.19 161.735 1070.72 162.086C1071.58 162.327 1071.94 161.874 1071.84 161.21C1071.67 160.153 1070.51 159.7 1069.35 157.557C1069.09 157.059 1069.15 157.285 1072.03 153.828C1072.53 153.194 1072.76 152.001 1071.37 152.167ZM1068.05 158.206C1069.45 160.682 1070.03 160.455 1067.29 159.851C1064.12 159.142 1065.56 158.931 1062.27 162.267C1061.88 162.675 1062.34 161.014 1062.46 159.444C1062.6 157.572 1058.98 156.968 1058.45 155.987C1058.7 155.987 1058.25 155.987 1060.58 155.76C1063.45 155.519 1062.09 153.903 1063.34 151.337C1064.37 152.213 1065.42 154.839 1066.36 154.643C1074.01 152.862 1066.39 155.277 1068.05 158.206Z" fill="#575785"/>
<path d="M1065.73 76.4142C1073.02 76.0368 1072.5 65.3637 1065.5 65.5297C1057.79 66.4657 1059.19 76.6859 1065.73 76.4142ZM1064.93 67.0092C1065.51 66.9049 1066.12 66.9321 1066.69 67.0886C1067.27 67.2451 1067.8 67.5271 1068.26 67.9145C1068.71 68.3019 1069.07 68.785 1069.32 69.3292C1069.57 69.8733 1069.69 70.4651 1069.68 71.062C1069.67 71.659 1069.53 72.2462 1069.26 72.7816C1069 73.3172 1068.62 73.7876 1068.15 74.1592C1067.68 74.5308 1067.14 74.7944 1066.56 74.9311C1065.98 75.0679 1065.37 75.0743 1064.79 74.9499C1063.87 74.7544 1063.05 74.2459 1062.47 73.5113C1061.88 72.7769 1061.57 71.862 1061.59 70.9237C1061.6 69.9852 1061.95 69.0815 1062.55 68.3675C1063.16 67.6534 1064 67.1732 1064.93 67.0092Z" fill="#575785"/>
<path d="M1049.07 176.835C1048.08 177.016 1047.88 178.345 1049.16 178.345C1055.72 178.239 1056.05 166.374 1049.74 166.464C1049.05 166.439 1048.37 166.536 1047.72 166.751C1047.62 165.891 1049.22 162.132 1047.53 159.203C1045.66 155.972 1040.24 156.184 1038.48 160.637C1037.8 162.564 1037.51 164.605 1037.62 166.644C1037.74 168.683 1038.25 170.679 1039.14 172.518C1039.49 173.197 1040.36 172.805 1040.15 171.899C1035.62 159.022 1044.48 155.701 1046.48 160.35C1048.14 164.23 1044.54 168.517 1046.1 169.408C1047.2 170.027 1047.76 167.596 1049.89 167.898C1052.65 168.381 1053.15 171.386 1052.7 173.393C1051.93 176.699 1049.84 176.684 1049.07 176.835Z" fill="#575785"/>
<path d="M1033.45 165.361C1025.01 151.503 1022.88 127.273 1033.31 107.527C1035.71 103.32 1038.4 99.2847 1041.36 95.4502C1042.76 94.0764 1041.36 93.3518 1040.59 94.2274C1031.85 104.568 1024.99 119.544 1024.99 133.04C1024.99 152.816 1029.95 162.448 1032.42 165.406C1033.63 166.795 1034.25 166.675 1033.45 165.361Z" fill="#575785"/>
<path d="M1026.44 177.288C1018.9 179.658 1019.76 170.902 1027.23 173.936C1027.32 173.991 1027.42 174.027 1027.53 174.038C1027.64 174.051 1027.75 174.038 1027.85 174.004C1027.95 173.97 1028.04 173.913 1028.12 173.839C1028.2 173.765 1028.26 173.674 1028.3 173.574C1028.71 172.653 1027.91 172.426 1027.14 172.17C1023.02 170.796 1027.61 162.931 1033.31 172.532C1033.78 173.317 1034.58 172.774 1034.4 172.17C1033.19 167.867 1028.36 164.622 1025.34 167.264C1024.7 167.806 1024.27 168.558 1024.13 169.387C1023.99 170.216 1024.15 171.068 1024.57 171.792C1021.01 171.883 1020.04 173.302 1019.64 175.159C1018.82 179.537 1025.87 180.05 1027.67 178.329C1028.36 177.635 1027.79 176.865 1026.44 177.288Z" fill="#575785"/>
<path d="M1016.19 150.461C1015.97 150.009 1015.82 149.133 1014.77 149.767C1010.53 152.348 1011.39 151.941 1010.25 150.718C1008.52 148.922 1008.09 148.227 1007.23 148.439C1006.85 148.544 1006.94 149.314 1007.03 149.722C1008.07 154.553 1008.4 153.269 1006.44 153.994C1005.99 154.175 1005.6 154.386 1003.75 155.156C1003.58 155.236 1003.43 155.364 1003.33 155.524C1003.23 155.685 1003.17 155.871 1003.17 156.062C1003.17 156.253 1003.23 156.44 1003.33 156.6C1003.43 156.761 1003.58 156.889 1003.75 156.968C1009.37 159.066 1008.1 158.674 1008.48 161.044C1008.92 163.761 1008.99 164.441 1009.57 164.501C1009.8 164.533 1010.04 164.486 1010.24 164.369C1010.45 164.251 1010.61 164.07 1010.7 163.852C1013.05 158.13 1011.51 159.64 1013.72 160.033C1017.51 160.712 1017.7 161.089 1018.25 160.425C1018.79 159.761 1017.69 158.78 1017.14 158.161C1013.58 154.054 1014.64 156.772 1016.19 150.461ZM1015.08 158.719C1014.27 158.659 1013.49 158.422 1012.78 158.025C1010.88 157.406 1010.88 161.21 1010.12 161.859C1009.94 161.061 1009.84 160.247 1009.82 159.429C1009.82 157.768 1008.92 157.647 1006.17 156.138C1005.57 155.79 1006.94 155.655 1008.49 154.87C1010.05 154.085 1008.81 152.575 1008.78 151.518C1008.78 150.884 1009.84 152.409 1010.5 153.239C1011.53 154.522 1011.65 152.484 1014.53 151.624C1014.05 154.115 1012.37 154.764 1013.99 156.485C1016.34 159.006 1015.71 158.78 1015.08 158.719Z" fill="#575785"/>
<path d="M1366 272.193L1358.03 276.039L1349.59 267.873C1348.73 267.09 1347.6 266.616 1346.36 266.698L1336.49 267.172C1335.55 267.255 1334.6 267.482 1333.83 268.038L1330.61 270.234C1326.81 272.75 1322.16 274.245 1317.33 274.472L1308.41 274.863L1307.17 273.688C1303.85 270.544 1299.11 268.894 1294.28 269.131L1292.38 269.214L1281 264.657L1273.88 261.595C1271.99 260.811 1269.71 261.049 1268.19 262.306L1267.53 262.853C1265.26 264.657 1261.75 264.739 1259.38 263.007L1253.98 258.997C1253.21 258.451 1252.37 258.131 1251.32 257.976L1241.74 256.801L1236.05 252.09L1235.19 251.461C1231.87 248.873 1227.04 248.244 1222.96 249.966L1209.11 256.564C1206.83 257.976 1203.04 261.43 1200.01 264.265C1197.73 266.306 1195.83 268.111 1195.17 268.43C1194.04 269.059 1176.01 266.389 1164.35 264.42C1158.27 263.399 1151.54 264.502 1146.51 267.719L1133.23 276.276L1128.68 280.513C1125.74 283.265 1122.04 285.461 1118.05 286.874L1108.66 291.905L1103.62 294.575H1093.19L1084.93 291.905H1073.83L1040.06 264.884C1038.07 263.317 1034.84 263.471 1033.13 265.193L1017.95 280.513L1004.39 283.966L994.334 291.905L983.138 301.018L975.932 307.853L968.148 312.256L955.251 321.678L936.086 331.73L929.539 343.823L913.89 347.205H1366" fill="#C0B1FF"/>
<path d="M971.375 346.896V343.287L966.252 344.937L958.757 343.37L953.159 340.462H949.746L945.004 338.576L942.344 336.772L937.602 335.277L931.437 339.05L927.932 336.772L924.612 335.834L920.158 332.535L917.024 329.081L911.148 326.019L904.983 322.091L893.312 314.864L878.993 322.091L856.415 319.576L845.219 314.864C842.848 314.235 840.662 313.215 838.868 311.874L836.116 309.833L828.239 305.751C825.301 304.184 821.311 303.792 817.899 304.493C811.26 305.751 801.012 307.555 800.352 307.318C799.971 307.163 798.837 306.297 797.414 305.276C795.517 303.864 793.332 302.215 791.909 301.503L783.754 298.441C781.383 297.658 778.63 298.049 776.826 299.462L776.352 299.771L773.218 302.287L767.713 303.07C767.146 303.153 766.671 303.379 766.29 303.617L763.352 305.813C762.022 306.751 760.032 306.833 758.702 305.967L758.321 305.73C757.372 305.101 756.042 305.019 755.001 305.493L751.022 307.225L744.671 309.813H743.63C740.784 309.813 738.125 310.751 736.423 312.483L735.764 313.112H730.454C727.702 313.112 724.949 312.483 722.671 311.225L720.681 310.204C720.207 309.967 719.64 309.813 719.166 309.813H713.475C712.815 309.813 712.052 310.05 711.671 310.524L707.114 314.926L702.371 313.122L693.742 314.926H684.536L671.732 317.359L657.69 311.864H647.329L637.082 313.204L629.772 307.544C629.587 307.39 629.298 307.307 628.917 307.307H621.896L614.308 303.297L604.628 301.493L596.473 297.091L583.761 292.926C579.968 291.585 575.504 291.988 572.287 293.946L571.998 294.101L550.843 303.215L542.689 307.225L529.596 308.792L521.812 307.225L521.152 306.678C520.297 305.967 518.781 305.895 517.833 306.596L515.08 308.637L509.863 308.874L508.255 307.854C505.028 305.73 500.946 304.637 496.781 304.637L491.853 303.297L481.42 298.586H472.976L459.883 301.493L455.43 304.555L443.955 305.658L440.924 309.668H422.048L415.223 307.472L405.831 300.008C404.594 298.988 402.8 298.596 400.996 298.833L393.789 301.266L385.16 304.328L380.233 299.926L377.294 298.039C376.346 297.41 374.83 297.493 373.975 298.276L370.748 301.266L368.088 305.668L361.253 308.101C360.212 308.493 359.17 308.967 358.222 309.514L354.242 311.792L350.16 310.926C346.366 310.142 342.284 310.771 339.16 312.73L338.397 313.204H334.696C333.655 313.204 332.706 313.287 331.665 313.359L323.129 310.142L322.84 309.988C319.427 308.101 314.964 307.864 311.262 309.441L298.84 314.153L290.963 318.864L281.478 321.06L274.076 325.38L267.056 325.689C266.767 325.689 266.489 325.844 266.2 325.998L263.354 328.431L250.829 331.184L249.024 331.029L238.684 331.421L228.055 336.215L223.313 337.236L212.209 335.586L203.003 335.978L194.271 334.565L189.714 336.524L184.879 332.287C184.405 331.895 183.745 331.658 182.982 331.658L177.291 331.895C176.724 331.895 176.25 332.05 175.776 332.37L173.879 333.473C171.693 334.813 169.044 335.514 166.198 335.669L161.075 335.906L160.415 335.277C158.518 333.627 155.765 332.761 153.013 332.916L151.971 332.998L145.425 330.638L141.342 329.071C140.301 328.679 138.971 328.833 138.023 329.462L137.641 329.772C136.311 330.71 134.322 330.71 132.992 329.854L129.858 327.813C129.476 327.504 128.909 327.339 128.342 327.266L122.837 326.638L119.61 324.205L119.136 323.895C117.239 322.555 114.486 322.246 112.115 323.112L104.146 326.565C102.816 327.277 100.641 329.081 98.9293 330.493C97.5994 331.596 96.5582 332.452 96.1767 332.689C95.5169 332.998 85.1765 331.669 78.4342 330.648C74.929 330.102 71.032 330.73 68.1866 332.38L60.5989 336.782L58.0524 338.957C56.3411 340.37 54.2586 341.473 51.8874 342.256L46.4852 344.844L43.6398 346.256H37.6604L32.918 344.844H26.5674L8.53621 331.885C6.63928 330.473 3.70109 330.627 1.89694 332.194L0 333.617V346.813" fill="#C0B1FF"/>
</svg>
