<svg width="1366" height="408" viewBox="0 0 1366 408" fill="none" xmlns="http://www.w3.org/2000/svg">
<path fill-rule="evenodd" clip-rule="evenodd" d="M1366 119.676L906.118 109.282L836.543 105.094H291.091L124.599 109.282L25.8782 105.094H0V407.094H1366V119.676Z" fill="#090412"/>
<path d="M1295 212.094C1317.09 212.094 1335 194.185 1335 172.094C1335 150.002 1317.09 132.094 1295 132.094C1272.91 132.094 1255 150.002 1255 172.094C1255 194.185 1272.91 212.094 1295 212.094Z" fill="#FEFFE1"/>
<path d="M1281.4 160.094C1284.93 160.094 1287.8 157.229 1287.8 153.694C1287.8 150.159 1284.93 147.294 1281.4 147.294C1277.87 147.294 1275 150.159 1275 153.694C1275 157.229 1277.87 160.094 1281.4 160.094Z" fill="#F2F0D7"/>
<path d="M1271.4 172.894C1273.83 172.894 1275.8 170.924 1275.8 168.494C1275.8 166.064 1273.83 164.094 1271.4 164.094C1268.97 164.094 1267 166.064 1267 168.494C1267 170.924 1268.97 172.894 1271.4 172.894Z" fill="#F2F0D7"/>
<path d="M1287.8 196.094C1292.66 196.094 1296.6 192.154 1296.6 187.294C1296.6 182.434 1292.66 178.494 1287.8 178.494C1282.94 178.494 1279 182.434 1279 187.294C1279 192.154 1282.94 196.094 1287.8 196.094Z" fill="#F2F0D7"/>
<path d="M742.5 202.095C743.328 202.095 744 201.423 744 200.595C744 199.766 743.328 199.095 742.5 199.095C741.672 199.095 741 199.766 741 200.595C741 201.423 741.672 202.095 742.5 202.095Z" fill="#F9F8EA"/>
<path d="M765.5 208.095C766.328 208.095 767 207.423 767 206.595C767 205.766 766.328 205.095 765.5 205.095C764.672 205.095 764 205.766 764 206.595C764 207.423 764.672 208.095 765.5 208.095Z" fill="#F9F8EA"/>
<path d="M749.5 223.095C750.328 223.095 751 222.423 751 221.595C751 220.766 750.328 220.095 749.5 220.095C748.672 220.095 748 220.766 748 221.595C748 222.423 748.672 223.095 749.5 223.095Z" fill="#F9F8EA"/>
<path d="M966 187.095C967.105 187.095 968 186.199 968 185.095C968 183.99 967.105 183.095 966 183.095C964.895 183.095 964 183.99 964 185.095C964 186.199 964.895 187.095 966 187.095Z" fill="#F9F8EA"/>
<path d="M967 198.095C967.552 198.095 968 197.647 968 197.095C968 196.542 967.552 196.095 967 196.095C966.448 196.095 966 196.542 966 197.095C966 197.647 966.448 198.095 967 198.095Z" fill="#F9F8EA"/>
<path d="M941 197.095C942.105 197.095 943 196.199 943 195.095C943 193.99 942.105 193.095 941 193.095C939.895 193.095 939 193.99 939 195.095C939 196.199 939.895 197.095 941 197.095Z" fill="#F9F8EA"/>
<path d="M884.5 280.095C884.776 280.095 885 279.871 885 279.595C885 279.319 884.776 279.095 884.5 279.095C884.224 279.095 884 279.319 884 279.595C884 279.871 884.224 280.095 884.5 280.095Z" fill="#F9F8EA"/>
<path d="M1090 233.095C1091.1 233.095 1092 232.199 1092 231.095C1092 229.99 1091.1 229.095 1090 229.095C1088.9 229.095 1088 229.99 1088 231.095C1088 232.199 1088.9 233.095 1090 233.095Z" fill="#F9F8EA"/>
<path d="M1260 185.095C1260.55 185.095 1261 184.647 1261 184.095C1261 183.542 1260.55 183.095 1260 183.095C1259.45 183.095 1259 183.542 1259 184.095C1259 184.647 1259.45 185.095 1260 185.095Z" fill="#F9F8EA"/>
<path d="M1245.5 198.095C1245.78 198.095 1246 197.871 1246 197.595C1246 197.319 1245.78 197.095 1245.5 197.095C1245.22 197.095 1245 197.319 1245 197.595C1245 197.871 1245.22 198.095 1245.5 198.095Z" fill="#F9F8EA"/>
<path d="M1275.5 172.095C1276.33 172.095 1277 171.423 1277 170.595C1277 169.766 1276.33 169.095 1275.5 169.095C1274.67 169.095 1274 169.766 1274 170.595C1274 171.423 1274.67 172.095 1275.5 172.095Z" fill="#F9F8EA"/>
<path d="M1268.5 198.095C1269.33 198.095 1270 197.423 1270 196.595C1270 195.766 1269.33 195.095 1268.5 195.095C1267.67 195.095 1267 195.766 1267 196.595C1267 197.423 1267.67 198.095 1268.5 198.095Z" fill="#F9F8EA"/>
<path d="M1297 185.095C1298.1 185.095 1299 184.199 1299 183.095C1299 181.99 1298.1 181.095 1297 181.095C1295.9 181.095 1295 181.99 1295 183.095C1295 184.199 1295.9 185.095 1297 185.095Z" fill="#F9F8EA"/>
<path d="M243.83 95.5039C245.384 95.5039 246.72 96.5883 247.022 98.0798L248.952 107.801L237.708 103.597V95.5039H243.83Z" fill="#003543"/>
<path d="M239.482 96.4209C240.943 96.4209 242.205 97.5058 242.486 98.9973L244.52 107.863H233.725L231.681 96.4209H239.482Z" fill="#001E26"/>
<path d="M219.477 83.1965C219.582 82.8523 219.905 82.6333 220.239 82.675L222.335 82.9149C222.648 82.9462 222.909 83.1966 222.961 83.5199L223.065 84.073H232.744C234.934 84.073 236.822 85.6896 237.24 87.9425L240.994 107.801H201.913V84.073H219.185L219.477 83.1965Z" fill="#003543"/>
<path d="M230.397 88.8506L233.964 107.864H201.85V84.9913H225.901C228.092 84.9808 229.969 86.5977 230.397 88.8506Z" fill="#001E26"/>
<path d="M159.87 96.5049C158.316 96.5049 156.981 97.5893 156.679 99.0808L154.749 108.802H161.5L165.982 104.598V96.5049H159.87Z" fill="#003543"/>
<path d="M164.219 97.4229C162.759 97.4229 161.508 98.4974 161.215 99.9993L159.182 108.865H169.977L172.021 97.4229H164.219Z" fill="#001E26"/>
<path d="M184.223 84.2072C184.119 83.8631 183.795 83.644 183.461 83.6857L181.365 83.9256C181.052 83.9569 180.802 84.2073 180.739 84.5306L180.635 85.0832H170.956C168.766 85.0832 166.878 86.6998 166.45 88.9527L162.695 108.811H201.777V85.0832H184.504L184.223 84.2072Z" fill="#003543"/>
<path d="M173.303 89.8505L169.736 108.864H201.85V85.9912H177.799C175.608 85.9912 173.721 87.6081 173.303 89.8505Z" fill="#001E26"/>
<path opacity="0.0784" d="M297.045 51.1865H295.053V53.189H297.045V51.1865Z" fill="#00DB81"/>
<path opacity="0.01" d="M275.007 53.1992H273.015V55.2017H275.007V53.1992Z" fill="#00DB81"/>
<path d="M256.639 105.131C256.639 105.131 258.057 85.1154 272.023 70.3778C272.023 75.3216 273.525 77.9186 273.525 77.9186C273.525 77.9186 280.951 63.4316 286.667 58.0914C285.165 65.2986 285.905 70.6385 285.905 70.6385C285.905 70.6385 292.382 61.0746 296.648 56.1934C298.588 67.2387 298.192 83.0506 298.192 83.0506C299.777 78.7743 301.008 74.3934 301.874 69.9189C304.784 74.1848 305.253 79.0767 305.253 79.0767C306.066 77.6061 306.525 76.0207 306.619 74.3415C312.554 88.7349 310.238 105.12 310.238 105.12L256.639 105.131Z" fill="#5D43CC"/>
<path d="M267.601 105.13C267.601 105.13 269.019 90.2983 273.754 84.2907C274.703 90.7886 275.507 91.4766 275.507 91.4766C275.507 91.4766 275.632 83.2578 281.765 75.936C281.055 85.4273 283.621 88.8589 283.621 88.8589C283.621 88.8589 289.066 83.383 291.725 74.3506C294.374 86.8979 293.425 98.9029 293.425 98.9029C293.425 98.9029 299.579 95.5864 301.123 90.3297C302.072 97.5681 297.848 105.14 297.848 105.14H267.601V105.13Z" fill="#D6F9EB"/>
<path d="M240.576 104.942H324.84C324.84 104.942 312.293 110.105 279.783 110.105C247.272 110.105 240.576 104.942 240.576 104.942Z" fill="#423093"/>
<path d="M348.882 49.3408C352.282 46.3579 349.456 50.2691 349.153 51.1661C350.707 49.7372 352.147 51.5939 354.107 52.397C356.068 53.2001 357.059 54.8895 357.424 57.1007L358.676 62.9207L361.617 70.6078L350.29 71.2545L351.083 65.789C349.643 66.8528 348.36 65.372 348.089 64.1725C347.756 62.8062 345.482 52.3238 348.882 49.3408Z" fill="#E6BEAA"/>
<path d="M347.651 56.2246L346.066 58.9156C345.941 59.1347 345.92 59.3536 346.003 59.5935C346.076 59.8229 346.254 60.0005 346.462 60.0839C346.963 60.2925 347.474 60.4071 348.016 60.4384C349.028 60.4384 347.651 56.2246 347.651 56.2246Z" fill="#E6BEAA"/>
<path d="M350.989 65.8088C350.342 66.4241 349.059 66.1841 348.517 65.162L351.666 63.3057C351.562 64.9432 351.197 65.6002 350.989 65.8088Z" fill="#D9B09B"/>
<path d="M353.669 57.4228C353.669 57.6731 353.627 57.9234 353.565 58.1633C353.502 58.4032 353.408 58.6015 353.294 58.7892C353.179 58.9769 353.043 59.1124 352.897 59.2063C352.751 59.3002 352.595 59.3525 352.438 59.3525C352.282 59.3525 352.125 59.3002 351.979 59.2063C351.833 59.1124 351.708 58.9665 351.594 58.7892C351.479 58.6119 351.395 58.4032 351.343 58.1633C351.281 57.9234 351.26 57.6836 351.26 57.4228C351.26 57.1725 351.301 56.9222 351.364 56.6823C351.427 56.4424 351.521 56.2442 351.635 56.0564C351.75 55.8687 351.886 55.7332 352.032 55.6393C352.178 55.5455 352.334 55.4932 352.49 55.4932C352.647 55.4932 352.803 55.5455 352.949 55.6393C353.095 55.7332 353.221 55.8791 353.335 56.0564C353.45 56.2337 353.533 56.4424 353.586 56.6823C353.638 56.9222 353.669 57.1725 353.669 57.4228Z" fill="#E6BEAA"/>
<path d="M360.126 61.1166L360.314 53.8681C360.397 50.5409 356.789 47.9017 352.231 47.9956C351.177 48.0165 350.134 48.1833 349.143 48.4962C347.245 51.9798 348.163 55.6826 351.574 57.1845C352.064 57.3931 352.596 57.5602 353.148 57.654C353.847 60.0947 356.903 61.6068 360.126 61.1166Z" fill="#002D2D"/>
<path d="M358.812 51.4257C359.25 50.1428 356.142 48.2344 353.712 48.1093C351.282 47.9737 344.252 49.4754 341.019 48.9644C343.939 52.3437 347.381 54.1065 350.666 54.0439C353.503 53.9813 358.812 51.4257 358.812 51.4257Z" fill="#002D2D"/>
<path d="M325.269 65.5586H328.324V66.9769C329.034 67.9678 329.378 69.0629 329.378 70.2832V79.2531H324.288V70.2414C324.288 69.0837 324.632 67.9467 325.269 66.9871V65.5586Z" fill="#F5F5EB"/>
<path d="M325.393 64.4219H328.199C328.293 64.4219 328.366 64.4535 328.439 64.5161C328.501 64.5787 328.533 64.6621 328.533 64.756V65.2983C328.533 65.3922 328.501 65.4652 328.439 65.5382C328.376 65.6008 328.293 65.6319 328.199 65.6319H325.393C325.299 65.6319 325.226 65.6008 325.153 65.5382C325.091 65.4756 325.06 65.3922 325.06 65.2983V64.756C325.06 64.6621 325.091 64.5891 325.153 64.5161C325.226 64.4535 325.299 64.4219 325.393 64.4219Z" fill="#002021"/>
<path d="M328.325 66.498C327.459 66.5815 325.926 66.5398 325.269 66.498V66.936C326.478 67.0612 327.063 67.0505 328.325 66.9671V66.498Z" fill="#002021"/>
<path fill-rule="evenodd" clip-rule="evenodd" d="M324.486 66.9149C323.714 67.1965 322.504 68.5837 322.389 70.8679C322.379 71.0869 322.4 71.3165 322.494 71.5147C322.65 71.8797 322.911 72.1613 323.182 71.7337C323.318 71.5146 323.349 71.2539 323.349 70.9932V70.9616C323.328 69.9499 323.297 68.813 324.653 67.0712C324.736 66.9565 324.726 66.8314 324.486 66.9149ZM325.268 66.5186C324.309 66.5082 322.431 67.3528 322.139 70.7426C322.108 71.1598 322.139 71.5978 322.369 71.9419C322.598 72.2861 322.9 72.4949 323.245 72.109C323.599 71.7126 323.62 71.1393 323.631 70.5969V70.5236C323.672 69.2303 324.037 67.5096 325.258 66.9256L325.268 66.5186Z" fill="#002021"/>
<path fill-rule="evenodd" clip-rule="evenodd" d="M325.55 73.3822L325.988 73.3196C326.124 73.3092 326.27 73.2049 326.353 73.0588L326.656 72.5893L326.458 71.9741L325.55 73.3822ZM327.782 73.5279L326.718 73.6639L326.958 73.288L327.657 73.1943L327.334 72.2241L327.094 72.6L326.645 73.288C326.478 73.5488 326.218 73.7367 325.978 73.7576L325.31 73.8411C325.237 73.8515 325.185 73.8202 325.164 73.7576C325.143 73.695 325.164 73.6116 325.216 73.5386L326.447 71.6609C326.489 71.5879 326.551 71.5463 326.635 71.5254C326.708 71.515 326.76 71.5464 326.781 71.6089L327 72.2659L327.25 71.8804C327.292 71.8074 327.355 71.7548 327.438 71.7444C327.511 71.734 327.563 71.776 327.584 71.8386L328.022 73.1526C328.043 73.2151 328.033 73.2985 327.98 73.3715C327.928 73.4654 327.855 73.507 327.782 73.5279Z" fill="#003C3C"/>
<path d="M328.72 74.3833C330.848 73.5384 332.006 75.9372 332.35 76.8864C332.611 77.7938 334.05 79.6606 329.513 79.8483C323.85 80.0778 321.805 78.5969 322.713 74.8421C323.005 73.6218 324.83 75.9165 328.72 74.3833Z" fill="#E6BEAA"/>
<path d="M328.063 93.2828C333.612 92.7717 346.9 97.0998 351.979 99.0815C350.164 102.826 342.592 103.702 339.901 103.921L327.083 102.252C325.372 99.7073 322.515 93.7835 328.063 93.2828Z" fill="black"/>
<path d="M339.558 100.739C348.862 100.739 350.52 98.267 350.228 97.7246C348.215 99.6437 337.879 99.7065 332.967 99.4979C329.358 100.092 325.551 102.095 325.551 104.734C325.54 105.109 327.825 100.739 339.558 100.739Z" fill="#001D1F"/>
<path d="M360.908 110.658C370.211 110.658 369.815 104.452 368.469 100.917C363.223 99.1435 352.209 96.0875 350.196 98.0066C348.183 99.9257 337.847 99.9885 332.934 99.7799C329.326 100.374 325.519 102.377 325.519 105.016C325.508 112.984 349.174 110.658 360.908 110.658Z" fill="#000D0E"/>
<path d="M364.475 66.2794C363.244 65.445 362.253 65.0382 360.678 64.7566C360.366 63.9744 360.021 63.6927 359.385 63.9326C358.749 64.1829 348.371 70.6806 348.371 70.6806C348.319 71.7653 350.405 75.0614 355.453 74.081C360.501 73.111 364.475 66.2794 364.475 66.2794Z" fill="#003543"/>
<path d="M344.899 80.5375L350.062 75.0928C351.699 75.0928 353.086 82.1747 353.337 84.4589C353.587 86.7326 349.279 87.2441 346.276 87.2441C345.087 87.2441 331.788 81.5492 330.276 80.5375C329.066 79.7239 330.777 77.158 331.788 75.9794L344.899 80.5375Z" fill="#003543"/>
<path d="M369.481 100.27C370.889 79.3164 366.707 68.8445 364.443 66.2266C360.876 66.3934 353.148 67.2698 350.832 69.3871C348.517 71.5149 348.673 89.0895 349.393 98.1114C353.586 101.345 369.481 103.107 369.481 100.27Z" fill="#003543"/>
<path d="M359.072 76.0518C357.591 79.9109 351.291 85.9288 348.924 87.097L348.945 88.3483C354.619 86.9924 359.333 79.4311 359.072 76.0518Z" fill="#012833"/>
<path d="M269.666 84.7607L258.089 89.5276" stroke="#24240F" stroke-width="0.531" stroke-linecap="round"/>
<path d="M267.8 84.1976L265.881 85.0425C265.745 85.1051 265.641 85.2094 265.589 85.345C265.537 85.491 265.537 85.6268 265.599 85.7728L266.121 86.9722C266.183 87.1077 266.288 87.2123 266.423 87.2645C266.569 87.3166 266.705 87.3164 266.851 87.2538L268.77 86.4089C268.905 86.3463 269.01 86.242 269.062 86.1064C269.114 85.9708 269.114 85.8251 269.051 85.6791L268.53 84.4792C268.467 84.3437 268.363 84.2396 268.227 84.1874C268.081 84.1353 267.946 84.135 267.8 84.1976Z" fill="#FCBBCF"/>
<path d="M264.232 85.7621L262.313 86.607C262.178 86.6695 262.073 86.7739 262.021 86.9095C261.969 87.0555 261.969 87.1912 262.032 87.3373L262.553 88.5264C262.616 88.662 262.72 88.7661 262.856 88.8182C263.002 88.8704 263.137 88.8706 263.283 88.8081L265.202 87.9632C265.338 87.9006 265.442 87.7962 265.494 87.6607C265.547 87.5146 265.547 87.3789 265.484 87.2329L264.963 86.0437C264.9 85.9081 264.796 85.804 264.66 85.7519C264.514 85.6997 264.368 85.6995 264.232 85.7621Z" fill="#FCBBCF"/>
<path d="M261.343 116.791L265.505 117.104H265.64L265.056 114.955L254.094 95.1074L252.707 107.498L261.343 116.791Z" fill="#9C9C6A"/>
<path d="M262.073 121.286C262.751 121.318 267.861 121.172 270.834 121.245C271.032 121.245 271.22 121.193 271.387 121.078C271.553 120.963 271.658 120.807 271.72 120.609C271.595 120.327 264.628 120.046 261.562 120.056C261.645 120.703 261.551 121.265 262.073 121.286Z" fill="#003C3C"/>
<path d="M270.083 118.502C266.411 117.74 265.754 115.874 265.347 114.695C265.243 114.382 264.878 114.267 264.597 114.455L261.196 116.697C261.05 116.791 260.967 116.927 260.956 117.104C260.894 118.46 261.405 120.098 261.666 120.39C262.229 121.015 269.05 120.442 271.699 120.661C271.908 120.129 272.2 118.94 270.083 118.502Z" fill="#2E6160"/>
<path d="M274.454 120.046C274.944 120.171 275.017 118.2 275.476 117.324C275.111 115.238 274.944 111.9 273.891 108.844C273.161 106.727 272.003 102.576 271.221 100.573C270.438 98.5707 268.29 96.7665 267.518 94.8057L262.584 95.2747L253.114 110.461L230.105 118.649C230.105 118.649 230.982 126.586 238.137 129.235C248.921 133.219 251.581 130.997 256.65 127.305C265.369 120.964 265.578 107.833 266.506 107.676C267.247 107.551 267.507 113.872 271.21 118.649C272.191 119.045 273.953 119.921 274.454 120.046Z" fill="#B4B48C"/>
<path d="M256.984 116.667C255.555 115.676 253.5 111.858 253.146 110.388C250.444 111.535 249.161 111.827 251.06 112.734C251.06 112.734 251.435 115.457 252.468 114.956C253.02 114.695 255.93 116.124 256.984 116.667C257.119 116.76 257.245 116.823 257.37 116.865C257.37 116.865 257.224 116.792 256.984 116.667Z" fill="#A8A881"/>
<path d="M234.716 127.148C252.238 132.665 260.342 123.112 262.397 119.993C261.229 123.226 257.099 129.975 249.86 131.07C242.622 132.165 236.75 128.911 234.716 127.148Z" fill="#A8A881"/>
<path d="M266.557 107.676C266.756 107.666 267.214 109.251 267.413 110.044C267.579 108.813 266.912 105.882 266.557 104.558C265.973 106.31 265.765 109.043 265.733 110.221C265.932 109.366 266.359 107.676 266.557 107.676Z" fill="#A8A881"/>
<path d="M270.302 118.418C270.229 118.689 270.344 119.587 270.355 120.118C270.355 120.118 270.365 120.65 270.355 120.827" stroke="#244949" stroke-width="0.531"/>
<path d="M270.615 120.996C270.605 121.069 270.615 121.037 270.605 121.016C270.594 120.964 270.553 120.954 270.574 120.954C270.605 120.964 270.678 120.996 270.834 121.016C270.991 121.037 271.21 121.058 271.512 121.068L271.502 121.621C271.252 121.621 271.012 121.6 270.761 121.569C270.584 121.538 270.438 121.507 270.334 121.454C270.219 121.392 270.125 121.298 270.083 121.163C270.052 121.058 270.073 120.954 270.073 120.943L270.615 120.996ZM270.355 120.828L270.626 120.839V120.849V120.881L270.615 120.985L270.062 120.933C270.062 120.891 270.073 120.86 270.073 120.818V120.808L270.355 120.828ZM270.344 120.964L270.073 120.933L270.344 120.964ZM271.512 121.068C271.585 121.068 271.648 121.1 271.71 121.152C271.763 121.204 271.783 121.277 271.783 121.35C271.783 121.423 271.752 121.486 271.7 121.548C271.648 121.6 271.575 121.621 271.502 121.621L271.512 121.068Z" fill="#002F2F"/>
<path d="M271.481 123.675C272.284 123.717 278.344 123.561 281.869 123.644C282.109 123.655 282.328 123.582 282.526 123.446C282.724 123.311 282.85 123.123 282.923 122.893C282.777 122.549 274.516 122.205 270.876 122.205C270.97 122.977 270.866 123.644 271.481 123.675Z" fill="#003C3C"/>
<path d="M280.983 120.39C276.508 119.441 276.143 116.886 275.757 115.426C275.674 115.103 275.309 114.988 275.027 115.175L270.407 118.242C270.261 118.336 270.177 118.471 270.167 118.649C270.073 120.265 270.688 122.247 271.001 122.602C271.658 123.342 279.762 122.685 282.902 122.956C283.142 122.33 283.496 120.922 280.983 120.39Z" fill="#2E6160"/>
<path d="M255.513 68.4379C256.785 69.5018 256.577 81.2045 253.176 81.2045C243.007 81.1941 247.669 67.9894 255.513 68.4379Z" fill="#E6BEAA"/>
<path d="M257.359 75.2909C257.64 74.9258 256.681 73.4656 256.076 72.6416L255.867 75.739C256.118 75.7912 257.14 75.5725 257.359 75.2909Z" fill="#E6BEAA"/>
<path d="M250.736 83.0607C250.527 84.0932 251.017 85.7205 251.591 86.3985C246.616 86.3985 242.173 88.4948 243.341 83.9056C244.853 77.9813 245.135 78.0857 244.853 77.4912L252.165 79.0659C251.758 79.2954 250.944 82.0385 250.736 83.0607Z" fill="#E6BEAA"/>
<path d="M251.248 81.1626C252.374 81.3608 254.012 81.2982 254.387 80.6202C254.387 80.6202 252.812 80.8706 251.759 80.6202C250.705 80.3699 249.016 79.5039 249.016 79.5039L251.248 81.1626Z" fill="#D1B0A0"/>
<path d="M242.579 82.6024C235.727 83.6036 233.839 93.4286 233.088 95.233C232.066 97.6944 228.832 115.071 229.229 119.055C230.804 129.214 236.853 128.828 242.037 126.189C251.486 121.371 252.821 114.737 252.821 113.965C252.363 109.324 253.552 101.387 253.906 100.031C254.261 98.6854 254.678 97.0896 256.222 96.1614C257.452 95.4208 261.927 97.8613 263.012 97.8613L269.489 100.031C272.294 100.751 272.837 98.8731 273.035 97.8613C273.035 96.7766 273.588 92.3648 267.33 90.623C261.082 88.8812 257.244 87.6193 254.261 86.0965C254.261 86.0757 250.204 81.2465 242.579 82.6024Z" fill="#0F0A22"/>
<path d="M253.333 94.084C253.521 94.5742 254.439 95.9513 256.817 96.0035C255.398 96.2642 254.616 97.6618 254.209 99.1325L253.333 94.084Z" fill="#218FC9"/>
<path d="M243.091 67.2072C241.307 65.5071 238.241 63.692 236.374 66.4142C234.59 69.0113 236.395 74.2577 237.698 78.0125C238.345 79.8795 238.856 81.3708 238.752 81.9966C238.481 83.5089 237.771 84.646 237.448 85.0319C238.575 85.0319 240.702 83.3526 240.233 76.6252C239.816 70.6801 240.744 70.4401 241.443 71.2432C240.963 74.1219 241.443 80.839 248.629 80.839C250.34 80.839 252.394 80.6097 251.32 74.2265C250.913 73.267 250.59 72.0466 252.916 72.057C254.689 70.6698 257.734 66.8317 255.44 65.361C252.572 63.5149 246.71 63.8067 244.718 65.3921C244.259 65.7363 243.664 66.3623 243.091 67.2072Z" fill="#24240F"/>
<path d="M240.628 68.1872C240.514 68.521 240.43 68.8547 240.378 69.1885C240.326 69.5222 240.326 69.8246 240.357 70.1062C240.389 70.3878 240.462 70.6174 240.566 70.7947C240.67 70.972 240.806 71.0968 240.973 71.1594C241.14 71.2219 241.317 71.2115 241.515 71.1385C241.713 71.0655 241.911 70.9302 242.11 70.7321C242.308 70.5339 242.495 70.2941 242.662 70.0125C242.829 69.7204 242.975 69.4178 243.1 69.084C243.215 68.7503 243.299 68.4166 243.351 68.0828C243.403 67.749 243.403 67.4467 243.372 67.1651C243.34 66.8835 243.267 66.6539 243.163 66.4765C243.059 66.2992 242.923 66.174 242.756 66.1114C242.589 66.0488 242.412 66.0593 242.214 66.1323C242.016 66.2053 241.817 66.341 241.619 66.5392C241.421 66.7374 241.233 66.9772 241.067 67.2588C240.889 67.5404 240.743 67.8535 240.628 68.1872Z" fill="#28AAF0"/>
<path d="M195.675 83.1325C193.652 80.8275 195.175 74.6012 194.831 73.1201L201.485 75.5815C201.485 75.5815 211.55 78.7208 215.586 83.8837C216.348 84.8537 216.661 86.0845 216.807 87.3152L218.559 101.875L215.294 103.763L210.768 88.567C210.538 87.7848 209.777 87.2319 208.974 87.138C205.501 86.7312 197.323 85.0099 195.675 83.1325Z" fill="#5A7D7D"/>
<path d="M206.356 86.7325C206.617 86.7847 208.285 87.0351 208.723 87.0977C208.431 84.8761 201.996 81.7159 200.494 81.4238C200.755 82.1852 200.494 85.4705 206.356 86.7325Z" fill="#4F6B6B"/>
<path d="M186.049 85.0007C184.025 82.6956 185.548 76.4693 185.204 74.9883L191.858 77.4496C191.858 77.4496 200.817 80.245 205.219 84.8968C206.575 86.3257 206.877 88.3699 206.731 90.3308L205.626 104.88L201.537 105.173L200.765 89.684C200.744 89.3607 200.463 89.1105 200.139 89.0897C197.396 88.9019 187.853 87.0345 186.049 85.0007Z" fill="#5A7D7D"/>
<path d="M196.062 88.4223C191.139 87.4628 186.602 82.9779 184.975 80.9023C184.975 82.3834 185.329 83.6243 185.329 83.7181C186.038 86.7846 192.766 87.9321 196.062 88.4223Z" fill="#4F6B6B"/>
<path d="M200.984 109.219C200.953 109.177 200.911 108.958 200.891 108.854C203.519 109.083 208.838 109.73 209.026 110.032C209.255 110.418 208.692 110.793 208.692 110.793C207.149 111.45 201.016 109.271 200.984 109.219Z" fill="#00DC82"/>
<path d="M200.922 108.947C200.713 108.707 200.974 106.455 201.11 105.203C201.141 104.953 201.329 104.744 201.579 104.702L205.511 104.108C205.855 104.056 206.126 104.327 206.032 104.65C205.793 105.464 205.375 106.58 205.834 107.081C206.596 107.905 209.182 108.958 209.078 110.231C208.974 111.503 201.224 109.281 200.922 108.947Z" fill="#000606"/>
<path d="M215.409 106.81C215.368 106.779 215.263 106.58 215.222 106.486C217.819 105.975 223.107 105.11 223.368 105.36C223.691 105.673 223.253 106.195 223.253 106.195C221.939 107.238 215.451 106.852 215.409 106.81Z" fill="#00DC82"/>
<path d="M215.274 106.56C215.002 106.393 214.637 104.15 214.418 102.909C214.366 102.628 214.47 102.419 214.731 102.304L218.35 100.635C218.663 100.489 218.997 100.667 218.997 101.021C218.997 101.866 218.893 103.066 219.487 103.41C220.447 103.983 223.232 104.286 223.472 105.538C223.722 106.789 215.659 106.81 215.274 106.56Z" fill="#000606"/>
<path d="M193.277 50.1341C193.736 50.447 194.622 48.7154 195.008 47.8184C194.435 47.1092 193.433 45.3882 194.049 44.147C194.664 42.9163 195.843 44.6581 196.354 45.6907C196.541 43.6985 197.199 39.7041 198.273 39.7041C199.045 41.4042 202.57 42.0818 204.228 42.2174C204.374 43.2917 204.427 44.2515 204.416 45.0963C204.406 45.524 204.458 45.6075 204.416 45.983C204.374 46.3793 204.781 48.1419 204.708 48.4861C204.614 48.8824 203.655 48.3296 203.53 48.6633C203.373 48.9136 202.528 49.9359 202.351 50.1341C201.266 51.344 200.401 51.5418 199.608 51.3645C198.857 51.1976 200.255 54.0559 200.578 54.9529C196.541 56.507 192.703 49.7482 193.277 50.1341Z" fill="#E6BEAA"/>
<path d="M197.47 49.5176L199.441 51.9168C199.368 51.6352 199.556 51.3637 199.556 51.3637C198.784 50.7275 197.47 49.5176 197.47 49.5176Z" fill="#D1B0A0"/>
<path d="M198.377 46.4307C198.377 46.9731 198.2 48.2041 197.981 48.5692C197.574 49.0907 197.021 49.0907 196.542 49.0907C196.542 49.0907 194.654 49.0698 194.477 48.5692C194.477 48.5692 194.393 48.5272 194.289 48.0161C193.496 45.2313 194.289 42.9264 194.289 42.9264C194.383 42.457 194.831 40.7986 194.831 40.7986C194.967 40.225 195.415 39.4323 195.655 38.9942C195.926 38.4832 196.49 38.5147 197.042 38.16C200.077 36.2618 202.716 37.6907 203.019 38.6607C203.123 38.3478 203.175 37.5969 203.019 37.1797C204.615 38.2853 205.366 43.4273 204.291 42.9162C203.217 42.3947 199.785 41.9566 199.619 42.1548C199.347 42.4573 199.233 43.1142 199.097 43.4896C199.034 43.6565 198.982 43.8443 198.92 44.0738C198.951 43.521 198.096 43.1663 197.971 43.4688C197.334 45.0541 198.377 45.8884 198.377 46.4307Z" fill="#000808"/>
<path d="M207.826 63.1806C208.629 66.4452 208.327 70.2524 208.327 70.2524C207.086 70.8887 207.305 69.0946 206.752 69.3658C206.752 69.3658 202.204 70.4502 199.733 53.4493C200.139 52.5732 199.659 52.0936 199.409 51.8329C203.258 51.6764 207.461 61.6578 207.826 63.1806Z" fill="#001E26"/>
<path d="M184.891 80.8287C185.715 82.8626 200.495 81.2566 203.165 77.4497C205.272 63.7238 202.226 54.0653 200.495 52.407C200.495 52.407 199.848 51.7709 199.504 51.7918C197.397 52.6992 194.758 50.6863 194.299 49.5703C193.694 49.3513 192.631 49.3719 188.438 51.2076C183.171 53.5231 183.859 78.2943 184.891 80.8287Z" fill="#001E26"/>
<path d="M214.637 63.2331C212.52 68.2186 201.839 66.0595 201.589 65.976C201.589 65.976 206.543 63.2747 207.065 62.3464C208.295 61.3764 213.302 60.7087 213.771 61.1155C212.28 63.3475 213.396 63.3895 214.637 63.2331Z" fill="#001E26"/>
<path d="M181.773 64.0153C176.756 68.5419 181.773 77.0631 185.632 80.5989C187.99 82.7579 193.465 80.8596 195.072 78.273C196.678 75.6864 195.812 74.7477 197.825 73.6421C198.92 73.0372 200.057 73.0788 200.276 72.9954C210.101 74.4347 209.559 69.5327 206.367 61.3451C203.176 53.1576 196.792 57.4336 195.937 58.9877C195.259 60.2393 193.83 60.5626 193.205 60.5731C190.67 60.2602 186.79 59.4886 181.773 64.0153Z" fill="#004545"/>
<path d="M186.415 66.8949C187.353 63.8807 190.43 61.2732 192.151 60.4388C190.368 60.0842 187.332 59.5523 187.113 59.6357C186.905 59.7191 184.923 61.3566 183.953 62.1597L186.415 66.8949Z" fill="#013838"/>
<path d="M220.28 55.3269L193.694 66.9043L194.445 68.8961L221.198 57.7781L224.286 57.6737C227.352 57.2982 231.107 54.9201 231.284 54.0023C231.43 53.2409 230.627 51.2593 229.824 50.6752C229.021 50.0911 223.232 52.8655 222.606 53.2409C222.095 53.5225 220.844 54.7533 220.28 55.3269Z" fill="#005757"/>
<path d="M196.656 66.7687C196.792 67.1234 196.854 67.4887 196.844 67.8642C196.834 68.2397 196.75 68.5941 196.594 68.9383C196.437 69.2825 196.229 69.5848 195.957 69.8351C195.686 70.0959 195.373 70.2941 195.029 70.4193C194.675 70.5548 194.32 70.6176 193.944 70.6072C193.569 70.5967 193.214 70.5131 192.87 70.3566C192.526 70.2002 192.234 69.9917 191.973 69.7205C191.712 69.4493 191.525 69.1365 191.389 68.7819C191.253 68.4273 191.191 68.0625 191.201 67.687C191.212 67.3115 191.295 66.9566 191.452 66.6124C191.608 66.2682 191.817 65.9659 192.088 65.7156C192.359 65.4548 192.672 65.2566 193.016 65.1314C193.371 64.9958 193.725 64.9331 194.101 64.9435C194.476 64.9539 194.831 65.0376 195.175 65.1941C195.519 65.3505 195.811 65.559 196.072 65.8301C196.322 66.1013 196.521 66.4141 196.656 66.7687Z" fill="#2E6160"/>
<path d="M223.367 52.0949L223.513 52.043L224.17 53.774L224.024 53.8366L223.367 52.0949Z" fill="#003C3C"/>
<path d="M225.516 51.2697L225.662 51.2178L226.319 52.9488L226.173 53.0114L225.516 51.2697Z" fill="#003C3C"/>
<path d="M227.873 50.613L228.029 50.5605L228.687 52.2921L228.53 52.3547L227.873 50.613Z" fill="#003C3C"/>
<path d="M229.198 54.3259L229.344 54.2734L230.001 56.005L229.855 56.0676L229.198 54.3259Z" fill="#003C3C"/>
<path d="M227.06 55.3371L227.206 55.2852L227.863 57.0167L227.717 57.0788L227.06 55.3371Z" fill="#003C3C"/>
<path d="M224.827 56.1935L224.984 56.1309L225.641 57.8726L225.484 57.9245L224.827 56.1935Z" fill="#003C3C"/>
<path d="M223.712 51.8641C223.743 51.9476 223.744 52.0312 223.702 52.1147C223.67 52.1981 223.608 52.2504 223.524 52.2817C223.441 52.313 223.358 52.3128 223.274 52.271C223.191 52.2293 223.139 52.1772 223.107 52.0938C223.076 52.0104 223.076 51.9267 223.118 51.8432C223.149 51.7598 223.212 51.708 223.295 51.6767C223.378 51.6454 223.462 51.6452 223.545 51.6869C223.618 51.7182 223.681 51.7807 223.712 51.8641Z" fill="#003C3C"/>
<path d="M225.86 51.0404C225.891 51.1239 225.891 51.207 225.849 51.2905C225.818 51.3739 225.755 51.4262 225.672 51.4575C225.588 51.4888 225.505 51.4885 225.422 51.4468C225.338 51.4051 225.286 51.353 225.255 51.2696C225.223 51.1861 225.223 51.103 225.265 51.0195C225.296 50.9361 225.359 50.8838 225.442 50.8525C225.526 50.8212 225.609 50.821 225.693 50.8627C225.766 50.894 225.818 50.957 225.86 51.0404Z" fill="#003C3C"/>
<path d="M228.175 50.2582C228.206 50.3416 228.206 50.4248 228.165 50.5082C228.133 50.5917 228.071 50.644 227.987 50.6753C227.904 50.7066 227.82 50.7063 227.737 50.6646C227.654 50.6229 227.601 50.5708 227.57 50.4874C227.539 50.4039 227.539 50.3207 227.581 50.2373C227.612 50.1539 227.674 50.1016 227.758 50.0703C227.841 50.039 227.925 50.0387 228.008 50.0805C228.081 50.1117 228.144 50.1747 228.175 50.2582Z" fill="#003C3C"/>
<path d="M225.995 57.8827C226.027 57.9661 226.027 58.0498 225.985 58.1332C225.954 58.2167 225.891 58.269 225.808 58.3003C225.724 58.3316 225.641 58.3313 225.557 58.2896C225.474 58.2479 225.422 58.1958 225.39 58.1124C225.359 58.0289 225.359 57.9452 225.401 57.8618C225.432 57.7784 225.495 57.7266 225.578 57.6953C225.662 57.664 225.745 57.6637 225.829 57.7055C225.902 57.7472 225.964 57.7992 225.995 57.8827Z" fill="#003C3C"/>
<path d="M228.145 57.0685C228.176 57.1519 228.176 57.2351 228.134 57.3186C228.103 57.402 228.041 57.4543 227.957 57.4856C227.874 57.5169 227.79 57.5171 227.707 57.4754C227.623 57.4337 227.571 57.3816 227.54 57.2982C227.509 57.2148 227.509 57.1311 227.55 57.0476C227.582 56.9642 227.644 56.9119 227.728 56.8806C227.811 56.8493 227.895 56.8496 227.978 56.8913C228.051 56.9226 228.103 56.9746 228.145 57.0685Z" fill="#003C3C"/>
<path d="M230.376 56.0575C230.408 56.1409 230.408 56.2246 230.366 56.308C230.335 56.3915 230.272 56.4438 230.189 56.4751C230.105 56.5064 230.022 56.5061 229.938 56.4644C229.855 56.4227 229.803 56.3706 229.771 56.2872C229.74 56.2037 229.74 56.12 229.782 56.0366C229.813 55.9532 229.876 55.9014 229.959 55.8701C230.043 55.8388 230.126 55.8385 230.209 55.8803C230.282 55.922 230.335 55.974 230.376 56.0575Z" fill="#003C3C"/>
<path d="M192.15 67.5723L220.291 55.9639" stroke="#558887" stroke-width="0.2655"/>
<path d="M192.891 68.1041L220.541 56.6729" stroke="#558887" stroke-width="0.2655"/>
<path d="M194.258 68.4071L220.781 57.3721" stroke="#558887" stroke-width="0.2655"/>
<path d="M193.976 69.7194C195.175 69.3126 195.467 69.5106 195.874 69.3125C196.27 69.1247 197.334 68.5198 197.689 68.2903C197.95 68.113 198.774 66.3089 198.575 66.2359C198.575 66.2359 198.586 66.2359 198.575 66.2359C198.408 66.1629 198.106 66.2149 197.835 66.3714L197.303 66.6846C197.303 66.6846 196.291 67.0493 195.749 67.091C195.206 67.1327 195.227 66.9973 195.54 66.7992C195.728 66.6844 196.135 66.4547 196.437 66.2879C196.521 66.2461 196.583 66.1836 196.635 66.1106C196.677 66.048 196.667 65.996 196.625 65.9543C196.562 65.9021 196.427 65.9126 196.281 65.9752L195.321 66.403C195.133 66.4864 194.946 66.5905 194.779 66.7157L193.611 67.5605L192.578 68.134L193.204 69.7092L193.976 69.7194Z" fill="#E0B09B"/>
<path d="M189.522 58.4247C190.909 56.224 194.351 51.2179 194.268 49.5908C182.544 49.5908 180.552 63.6399 181.637 67.4573C182.826 71.6814 193.506 69.8773 193.788 69.7521C194.841 69.2515 194.476 68.2394 193.965 67.2694C193.517 66.4141 187.791 66.2579 186.904 65.4757C186.017 64.683 187.791 61.1783 189.522 58.4247Z" fill="#001E26"/>
<path d="M213.573 61.1689C213.302 61.2836 210.935 62.2324 210.58 62.3575C211.331 63.1502 213.021 64.5582 213.803 63.8803C214.575 63.2023 215.284 62.8792 215.545 62.8062C217.975 60.2404 216.953 57.1529 216.556 57.0799C216.16 57.0069 216.483 59.2287 216.452 59.1348C216.421 59.041 215.764 57.1637 215.399 57.1532C215.107 57.1428 215.858 59.0098 215.837 59.281C215.764 59.2184 214.669 57.7684 214.387 57.7684C214.105 57.7684 215.096 59.281 215.128 59.5209C213.636 58.5091 214.397 59.3644 214.481 59.7816C214.888 61.7424 213.845 61.0541 213.573 61.1689Z" fill="#E6BEAA"/>
<path d="M213.71 61.1059C213.511 62.1385 213.543 63.3275 214.784 63.1711C214.606 63.5883 213.793 64.5059 213.793 64.5059C213.543 64.9335 212.708 64.7458 212.437 65.0483C212.176 65.3507 209.391 65.4133 209.12 65.6115L208.223 63.828L207.952 63.2963C207.952 63.2963 209.089 62.8162 209.402 62.6806L211.019 62.0028L212.082 61.5648L213.397 61.0117C213.397 61.0117 213.647 61.0434 213.71 61.1059Z" fill="#001E26"/>
<path opacity="0.1059" d="M211.613 0.0690032L208.004 2.29047C207.837 2.39477 207.775 2.55141 207.827 2.73915L208.682 5.96185C208.547 5.96185 208.411 5.98251 208.275 6.0138C207.629 6.19111 207.191 6.68138 207.305 7.11944C207.42 7.5575 208.046 7.76631 208.693 7.589C209.339 7.41169 209.777 6.92141 209.663 6.48335L208.891 3.60441L211.78 1.83161L212.385 4.10554C212.249 4.10554 212.114 4.12619 211.978 4.15748C211.331 4.33479 210.893 4.82506 211.008 5.26313C211.123 5.70119 211.749 5.90948 212.395 5.73217C213.042 5.55486 213.48 5.0651 213.365 4.62704L212.207 0.287993C212.176 0.152402 212.093 0.0582676 211.957 0.0165476C211.853 -0.0147424 211.728 -0.00400685 211.613 0.0690032Z" fill="#003543"/>
<path opacity="0.1725" d="M217.464 6.99483C217.391 6.69236 217.297 6.36939 217.203 6.06692C217.485 6.11907 218.1 6.34858 218.329 6.89094C218.319 6.56761 218.225 5.85843 217.964 5.64983C217.714 5.44123 216.546 4.67982 215.993 4.3252L216.775 6.89094L217.339 8.97694C217.234 8.97694 217.12 8.99784 217.015 9.0187C216.504 9.15429 216.16 9.55046 216.254 9.89465C216.348 10.2388 216.838 10.4056 217.349 10.27C217.86 10.1344 218.204 9.73823 218.11 9.39403L217.506 7.12011L217.464 6.99483Z" fill="#003543"/>
<path opacity="0.8549" d="M204.833 10.0814L202.998 10.1751C202.914 10.1855 202.862 10.2271 202.841 10.3106L202.507 11.7187C202.455 11.6874 202.403 11.6665 202.341 11.6561C202.059 11.5831 201.788 11.6873 201.746 11.8751C201.704 12.0628 201.892 12.2716 202.184 12.3446C202.466 12.4176 202.737 12.3134 202.779 12.1256L203.081 10.8637L204.552 10.7903L204.312 11.7814C204.26 11.7501 204.208 11.7292 204.145 11.7187C203.863 11.6562 203.592 11.75 203.55 11.9377C203.509 12.1255 203.696 12.3343 203.988 12.4073C204.27 12.4803 204.541 12.376 204.583 12.1883L205.031 10.2897C205.042 10.2584 205.042 10.2375 205.031 10.2062C205 10.1227 204.938 10.071 204.833 10.0814Z" fill="#003543"/>
<path opacity="0.1176" d="M227.644 18.145L222.867 21.0754C222.648 21.2214 222.564 21.4199 222.637 21.6702L223.774 25.9257C223.597 25.9257 223.409 25.9569 223.242 25.9986C222.387 26.228 221.813 26.885 221.959 27.4587C222.116 28.0323 222.94 28.314 223.795 28.0846C224.65 27.8551 225.224 27.1981 225.078 26.6245L224.066 22.8176L227.894 20.4811L228.697 23.4848C228.52 23.4848 228.332 23.5164 228.165 23.5581C227.31 23.7876 226.736 24.4446 226.882 25.0182C227.039 25.5919 227.863 25.8736 228.718 25.6441C229.573 25.4147 230.147 24.7577 230.001 24.184L228.468 18.4475C228.415 18.2702 228.311 18.1554 228.144 18.0824C227.956 18.0302 227.8 18.0407 227.644 18.145Z" fill="#003543"/>
<path opacity="0.0745" d="M216.015 21.6695C216.223 21.1063 216.411 20.5325 216.578 19.9589C216.964 20.3239 217.673 21.3253 217.454 22.3891C217.767 21.8676 218.361 20.6888 218.194 20.0943C218.027 19.4998 217.026 17.1219 216.536 16.0059L215.065 20.7518L213.762 24.5378C213.595 24.4335 213.417 24.3394 213.219 24.2663C212.291 23.943 211.363 24.1832 211.144 24.7985C210.925 25.4243 211.509 26.1961 212.437 26.5194C213.365 26.8427 214.294 26.6028 214.513 25.977L215.942 21.8569L216.015 21.6695Z" fill="#003543"/>
<path opacity="0.9608" d="M202.07 21.4927C201.819 20.9504 201.548 20.4184 201.256 19.8865C201.788 19.876 202.998 20.0743 203.593 20.9712C203.447 20.3767 203.029 19.1248 202.487 18.8328C201.955 18.5407 199.556 17.5813 198.43 17.1328L200.756 21.5238L202.518 25.1117C202.32 25.1534 202.132 25.2159 201.955 25.3098C201.068 25.7478 200.589 26.5823 200.87 27.1768C201.162 27.7713 202.111 27.8965 202.998 27.4584C203.885 27.0204 204.364 26.1862 204.083 25.6021L202.174 21.6802L202.07 21.4927Z" fill="#003543"/>
<path fill-rule="evenodd" clip-rule="evenodd" d="M657.765 350.254L658.079 348.815V348.809C658.456 348.906 658.848 348.99 659.24 349.049C659.099 349.327 659.028 349.613 659.028 349.911V350.015L658.887 350.125C658.511 350.144 658.134 350.19 657.765 350.254ZM655.364 348.012C655.608 347.999 655.859 347.979 656.102 347.953C656.416 348.154 656.761 348.329 657.122 348.472L656.416 350.605L655.364 348.012ZM650.014 351.194H650.296C652.579 351.194 654.266 350.779 654.972 349.989L655.38 351.272C655.176 351.467 655.074 351.687 655.066 351.946C655.058 352.257 655.137 352.562 655.302 352.841C652.673 354.701 649.841 356.315 646.797 357.683C646.82 357.56 646.82 357.443 646.82 357.32C646.82 356.238 645.251 355.537 643.533 355.369C643.643 355.058 643.69 354.746 643.682 354.422C643.682 354.351 643.674 354.28 643.659 354.215C647.582 354.098 649.763 352.886 650.014 351.194ZM638.661 360.431L639.751 359.232C640.363 359.433 641.007 359.556 641.666 359.602C640.669 359.913 639.673 360.185 638.661 360.431ZM637.445 356.562C637.759 356.62 638.08 356.665 638.41 356.698C638.261 356.879 638.182 357.087 638.174 357.307C638.143 357.897 638.386 358.39 638.904 358.792L636.511 360.866L637.445 356.562ZM635.295 360.004L634.408 357.787C635.107 357.657 635.726 357.404 636.276 357.015L635.295 360.004ZM1022.36 329.453L1022.67 328.014V328.007C1023.06 328.111 1023.44 328.189 1023.83 328.247C1023.69 328.526 1023.62 328.811 1023.62 329.109V329.213L1023.48 329.323C1023.1 329.343 1022.73 329.388 1022.36 329.453ZM1019.96 327.21C1020.21 327.197 1020.45 327.178 1020.69 327.152C1021.01 327.353 1021.35 327.528 1021.71 327.67L1021.01 329.803L1019.96 327.21ZM1014.61 330.393H1014.9C1017.18 330.393 1018.87 329.978 1019.57 329.187L1019.98 330.471C1019.78 330.665 1019.67 330.886 1019.67 331.145C1019.66 331.456 1019.75 331.761 1019.91 332.039C1017.28 333.9 1014.44 335.514 1011.41 336.881C1011.43 336.758 1011.43 336.642 1011.43 336.519C1011.43 335.436 1009.86 334.736 1008.14 334.567C1008.24 334.256 1008.3 333.939 1008.29 333.621C1008.29 333.55 1008.28 333.478 1008.27 333.414C1012.17 333.297 1014.36 332.085 1014.61 330.393ZM1003.25 339.63L1004.34 338.431C1004.96 338.632 1005.6 338.755 1006.26 338.8C1005.29 339.105 1004.28 339.384 1003.25 339.63ZM1002.05 335.76C1002.36 335.818 1002.68 335.864 1003.01 335.896C1002.86 336.078 1002.78 336.285 1002.77 336.506C1002.76 336.784 1002.81 337.057 1002.94 337.316C1003.07 337.575 1003.26 337.802 1003.5 337.996L1001.1 340.071L1002.05 335.76ZM999.888 339.202L999.001 336.985C999.699 336.856 1000.32 336.603 1000.87 336.214L999.888 339.202ZM1177.63 331.073L1177.32 329.634V329.628C1176.94 329.732 1176.55 329.809 1176.16 329.868C1176.3 330.14 1176.37 330.432 1176.37 330.73V330.834L1176.51 330.944C1176.89 330.963 1177.26 331.009 1177.63 331.073ZM1180.03 328.831C1179.79 328.824 1179.54 328.798 1179.3 328.772C1178.98 328.973 1178.64 329.148 1178.28 329.291L1178.98 331.423L1180.03 328.831ZM1185.38 332.013H1185.09C1182.81 332.013 1181.12 331.599 1180.42 330.808L1180.02 332.091C1180.21 332.279 1180.32 332.513 1180.33 332.765C1180.34 333.077 1180.25 333.381 1180.09 333.66C1182.72 335.52 1185.56 337.134 1188.59 338.502C1188.57 338.379 1188.57 338.262 1188.57 338.139C1188.57 337.057 1190.14 336.356 1191.85 336.188C1191.75 335.877 1191.69 335.566 1191.7 335.242C1191.7 335.17 1191.71 335.099 1191.72 335.034C1187.82 334.918 1185.64 333.705 1185.38 332.013ZM1196.74 341.251L1195.65 340.051C1195.04 340.252 1194.39 340.375 1193.73 340.421C1194.71 340.725 1195.71 341.004 1196.74 341.251ZM1197.95 337.381C1197.63 337.439 1197.31 337.484 1196.98 337.517C1197.13 337.698 1197.21 337.912 1197.22 338.126C1197.23 338.405 1197.18 338.677 1197.05 338.937C1196.92 339.196 1196.73 339.423 1196.49 339.617L1198.89 341.691L1197.95 337.381ZM1200.1 340.823L1200.99 338.599C1200.29 338.47 1199.67 338.21 1199.12 337.828L1200.1 340.823ZM1283.97 365.896C1284.94 366.317 1285.89 366.758 1286.83 367.218C1290.79 369.15 1302.26 374.634 1310.65 377.506C1325.41 382.555 1366 407 1366 407H1071.96L1011.41 405.449H938.507L910.611 407H0V385.602C0 385.602 9.8386 382.264 13.4241 380.105C22.3526 374.738 22.0544 375.023 32.301 371.613C36.7731 370.129 45.5996 365.416 49.0282 363.893L51.2878 359.718C51.4447 359.427 51.9625 359.459 52.0723 359.764L53.1786 363.044C55.5559 361.884 63.0956 357.865 65.8573 356.659C67.7011 355.855 69.5684 355.09 71.4514 354.351C72.997 353.748 74.5583 353.165 76.1353 352.607C77.8692 351.992 82.765 349.684 84.6401 348.971L86.2642 344.155C86.3819 343.811 86.9781 343.824 87.0723 344.174L88.1315 348.076C91.1285 346.832 100.818 342.774 103.525 341.614C106.09 340.512 108.648 339.397 111.198 338.275C113.591 337.219 115.984 336.156 118.361 335.079L128.317 331.91C129.989 331.378 131.707 331.002 133.472 330.782C135.237 330.561 137.018 330.496 138.799 330.6C140.58 330.697 142.338 330.957 144.048 331.372C145.766 331.786 147.406 332.351 148.975 333.064L153.432 335.086L183.199 350.611L185.019 342.333C185.097 341.964 185.733 341.951 185.835 342.32L188.51 351.933L199.69 356.069L205.284 358.137L210.878 360.204L227.347 367.167L237.319 371.581L239.147 365.844C239.257 365.514 239.821 365.501 239.947 365.825L242.858 373.357C243.752 373.681 244.686 373.914 245.651 374.057C246.616 374.2 247.581 374.252 248.562 374.206C249.542 374.161 250.5 374.025 251.433 373.798C252.375 373.571 253.261 373.253 254.116 372.851L260.55 369.798L265.399 367.017C272.452 362.973 281.867 363.193 288.622 367.569L293.604 370.79L300.94 375.619C301.513 375.995 302.14 376.307 302.839 376.482C308.229 377.83 309.97 375.347 309.97 375.347C313.579 372.683 330.228 363.841 331.672 363.452C333.633 362.921 336.685 362.694 338.239 362.532C340.946 362.26 349.223 363.452 357.79 367.322C361.454 368.975 365.244 371.334 367.519 372.508C369.284 373.487 373.262 375.788 374.58 376.566C377.154 378.083 378.723 379.087 378.723 379.087H378.966L379.201 378.951C380.786 378.05 382.308 377.071 383.83 376.093C385.635 374.932 387.439 373.772 389.354 372.741C390.672 372.035 391.998 371.497 392.986 371.497C393.951 371.276 395.348 371.276 396.792 371.276C398.682 371.276 400.644 371.276 401.813 370.784C404.08 369.824 404.99 368.645 405.908 367.445C406.332 366.894 406.756 366.343 407.313 365.812C409.055 364.146 411.926 362.525 411.926 362.525C411.926 362.525 418.517 360.179 419.725 359.018C421.655 359.375 422.636 359.816 423.522 360.204C424.825 360.775 425.899 361.255 429.414 361.255C431.368 361.255 434.216 360.308 437.135 359.343C440.218 358.318 443.38 357.268 445.679 357.268C447.766 357.268 449.601 357.716 451.571 358.195C452.779 358.487 454.034 358.798 455.415 359.018L457.243 357.287C457.322 357.216 457.439 357.171 457.565 357.171C457.69 357.171 457.808 357.216 457.887 357.287L460.068 359.356C462.594 359.492 464.359 360.405 466.164 361.339C468.196 362.389 470.267 363.465 473.523 363.465C476.834 363.465 479.894 362.545 482.891 361.637C485.778 360.769 488.603 359.913 491.553 359.913C494.722 359.913 497.829 361.618 501.015 363.368C504.357 365.203 507.793 367.082 511.465 367.082C514.729 367.082 517.256 365.883 520.009 364.58C523.297 363.024 526.906 361.313 532.484 361.313C538.047 361.313 542.637 359.9 546.826 358.604C550.349 357.515 553.597 356.516 556.908 356.516C560.227 356.516 563.153 357.262 566.331 358.072C569.72 358.934 573.392 359.874 578.107 360.049L581.026 357.281C581.104 357.21 581.222 357.164 581.348 357.164C581.473 357.164 581.591 357.21 581.669 357.281L584.039 359.531C585.992 359.083 588.001 358.422 590.041 357.741C593.862 356.477 597.808 355.168 601.801 355.168C604.304 355.168 606.94 355.998 609.749 356.886C612.974 357.904 616.442 358.993 620.215 358.993C623.189 358.993 625.857 359.991 628.516 360.995C629.16 361.235 629.811 361.482 630.454 361.709C631.757 361.605 633.051 361.462 634.338 361.268L633.287 357.968C632.682 358.033 632.063 358.065 631.451 358.065C628.124 358.065 625.888 356.892 625.888 355.317C625.888 354.274 626.625 353.405 628.179 352.938C626.516 352.393 625.558 351.408 625.558 349.917C625.558 348.569 627.371 347.545 630.07 347.247C629.976 346.987 629.929 346.721 629.936 346.456C629.936 345.017 632.926 344.362 636.197 344.362C639.469 344.362 641.47 346.041 641.47 347.454V347.577H642.082C643.196 347.597 644.302 347.733 645.377 347.986C645.73 347.124 646.844 346.462 648.735 346.255C648.327 345.807 648.131 345.302 648.138 344.738C648.138 343.701 649.802 343.124 651.944 342.916C651.575 342.644 651.3 342.327 651.104 341.951C650.908 341.581 650.822 341.192 650.845 340.784C650.845 339.312 653.207 338.262 656.486 338.262C659.217 338.262 660.919 339.546 661.406 340.602C663.202 340.628 665.046 341.296 665.046 342.417C665.078 342.897 664.952 343.344 664.646 343.753C664.991 343.85 665.329 343.954 665.658 344.077C666.78 343.007 669.385 343.228 672.06 343.591C676.022 342.164 679.255 342.476 683.288 342.858C688.364 343.344 694.695 343.947 705.342 341.341C706.762 340.991 707.994 340.265 709.069 339.423C716.357 333.692 728.408 332.072 737.549 330.84C742.162 330.218 746.038 329.699 748.188 328.798C753.656 326.516 757.328 324.987 763.008 326.166C765.448 327.845 768.006 329.414 770.666 330.859C771.105 330.775 771.552 330.73 772 330.73C774.393 330.73 776.064 331.838 777.201 333.141C778.253 332.033 779.775 331.151 781.877 331.151C785.173 331.151 787.118 333.271 788.17 335.073C789.056 334.684 790.006 334.49 791.002 334.496C794.878 334.496 797.161 337.264 798.393 339.598C799.46 339.28 800.582 338.91 801.719 338.528C804.803 337.504 807.965 336.454 810.263 336.454C812.343 336.454 814.194 336.901 816.163 337.381C817.372 337.672 818.627 337.983 820.008 338.204L821.836 336.473C821.914 336.402 822.024 336.357 822.158 336.357C822.283 336.357 822.401 336.402 822.479 336.473L824.66 338.541C827.187 338.677 828.952 339.591 830.757 340.524C832.789 341.575 834.86 342.651 838.116 342.651C841.427 342.651 844.487 341.73 847.484 340.823C850.371 339.954 853.203 339.099 856.153 339.099C859.323 339.099 862.43 340.803 865.623 342.553C868.973 344.388 872.402 346.268 876.074 346.268C879.337 346.268 881.864 345.069 884.618 343.766C887.905 342.21 891.514 340.499 897.092 340.499C902.655 340.499 907.245 339.086 911.434 337.789H911.442C914.965 336.7 918.213 335.702 921.524 335.702C924.843 335.702 927.769 336.447 930.947 337.257C934.336 338.12 938.008 339.06 942.731 339.235L945.65 336.467C945.728 336.395 945.846 336.35 945.972 336.35C946.097 336.35 946.215 336.395 946.293 336.467L948.67 338.716C950.624 338.269 952.625 337.608 954.665 336.927C958.486 335.663 962.432 334.353 966.425 334.353C968.928 334.353 971.557 335.183 974.373 336.071C977.598 337.089 981.058 338.178 984.839 338.178C987.813 338.178 990.473 339.176 993.14 340.181C993.784 340.421 994.435 340.667 995.078 340.894C996.381 340.79 997.675 340.648 998.962 340.453L997.911 337.154C997.306 337.219 996.687 337.251 996.075 337.251C992.748 337.251 990.512 336.078 990.512 334.502C990.512 333.459 991.249 332.59 992.795 332.124C991.132 331.579 990.175 330.594 990.175 329.103C990.175 327.754 991.987 326.73 994.686 326.432C994.592 326.173 994.545 325.907 994.545 325.641C994.545 324.202 997.534 323.548 1000.81 323.548C1004.08 323.548 1006.08 325.226 1006.08 326.64V326.763H1006.69C1007.8 326.782 1008.91 326.918 1009.99 327.171C1010.34 326.309 1011.45 325.648 1013.34 325.44C1012.94 324.993 1012.74 324.488 1012.75 323.924C1012.75 322.886 1014.42 322.309 1016.56 322.102C1016.19 321.836 1015.91 321.512 1015.72 321.136C1015.52 320.767 1015.44 320.378 1015.46 319.969C1015.46 318.498 1017.82 317.448 1021.1 317.448C1023.84 317.448 1025.54 318.731 1026.02 319.788C1027.82 319.814 1029.66 320.481 1029.66 321.603C1029.69 322.083 1029.57 322.53 1029.27 322.938C1029.62 323.036 1029.95 323.139 1030.27 323.262C1031.4 322.199 1034.01 322.413 1036.68 322.776C1040.64 321.35 1043.88 321.661 1047.9 322.044C1052.99 322.53 1061.32 327.67 1071.96 325.058C1071.96 325.058 1088.52 314.453 1117.35 304.354C1122.82 302.072 1140.14 311.575 1140.14 311.575C1140.14 311.575 1168.62 323.58 1169.76 324.876C1169.55 324.675 1169.98 325.071 1169.76 324.876C1170.09 324.753 1170.43 324.643 1170.77 324.552C1170.47 324.137 1170.34 323.697 1170.38 323.217C1170.38 322.096 1172.23 321.428 1174.02 321.402C1174.5 320.345 1176.2 319.062 1178.94 319.062C1182.22 319.062 1184.58 320.112 1184.58 321.584C1184.59 321.985 1184.51 322.374 1184.32 322.75C1184.13 323.126 1183.85 323.444 1183.48 323.716C1185.62 323.924 1187.28 324.5 1187.28 325.537C1187.3 326.101 1187.1 326.607 1186.7 327.055C1188.59 327.256 1189.7 327.917 1190.05 328.785C1191.13 328.532 1192.23 328.396 1193.35 328.377H1193.96V328.254C1193.96 326.847 1195.96 325.162 1199.23 325.162C1202.5 325.162 1205.49 325.81 1205.49 327.249C1205.49 327.515 1205.45 327.787 1205.35 328.04C1208.06 328.338 1209.86 329.362 1209.86 330.71C1209.86 332.208 1208.91 333.187 1207.24 333.731C1208.79 334.198 1209.53 335.06 1209.53 336.11C1209.53 337.685 1207.29 338.859 1203.96 338.859C1203.35 338.859 1202.73 338.826 1202.13 338.762L1201.08 342.061C1203.87 342.476 1206.69 342.677 1209.53 342.677C1225.18 342.677 1236.63 348.057 1247.68 353.262C1251.18 354.909 1271.21 360.438 1274.75 361.871L1283.97 365.896Z" fill="#0F0A22"/>
</svg>
