<svg width="1366" height="856" viewBox="0 0 1366 856" fill="none" xmlns="http://www.w3.org/2000/svg">
<path d="M1366 0H0V793H1366V0Z" fill="#090412"/>
<path d="M1326 112.5C1326 112.64 1326.05 112.76 1326.15 112.85C1326.25 112.95 1326.37 113 1326.5 113C1326.64 113 1326.76 112.95 1326.85 112.85C1326.95 112.75 1327 112.63 1327 112.5C1327 112.36 1326.95 112.24 1326.85 112.15C1326.75 112.05 1326.63 112 1326.5 112C1326.36 112 1326.24 112.05 1326.15 112.15C1326.05 112.24 1326 112.36 1326 112.5Z" fill="white"/>
<path d="M1053 221C1053 221.13 1053.03 221.26 1053.08 221.38C1053.13 221.5 1053.2 221.61 1053.3 221.7C1053.4 221.79 1053.5 221.87 1053.62 221.92C1053.74 221.97 1053.87 222 1054 222C1054.13 222 1054.26 221.97 1054.38 221.92C1054.5 221.87 1054.61 221.8 1054.7 221.7C1054.79 221.61 1054.87 221.5 1054.92 221.38C1054.97 221.26 1055 221.13 1055 221C1055 220.87 1054.97 220.74 1054.92 220.62C1054.87 220.5 1054.8 220.39 1054.7 220.3C1054.61 220.21 1054.5 220.13 1054.38 220.08C1054.26 220.03 1054.13 220 1054 220C1053.87 220 1053.74 220.03 1053.62 220.08C1053.5 220.13 1053.39 220.2 1053.3 220.3C1053.21 220.4 1053.13 220.5 1053.08 220.62C1053.03 220.74 1053 220.87 1053 221Z" fill="white"/>
<path d="M274 602.5C274 602.7 274.04 602.89 274.11 603.07C274.19 603.25 274.29 603.42 274.43 603.56C274.57 603.7 274.73 603.81 274.92 603.89C275.1 603.97 275.3 604 275.49 604C275.69 604 275.88 603.96 276.06 603.89C276.24 603.81 276.41 603.71 276.55 603.56C276.69 603.42 276.8 603.26 276.88 603.07C276.96 602.89 276.99 602.69 276.99 602.5C276.99 602.3 276.95 602.11 276.88 601.93C276.8 601.75 276.7 601.58 276.55 601.44C276.41 601.3 276.25 601.19 276.06 601.11C275.88 601.03 275.68 601 275.49 601C275.29 601 275.1 601.04 274.92 601.11C274.74 601.19 274.57 601.29 274.43 601.44C274.29 601.58 274.18 601.74 274.1 601.93C274.04 602.11 274 602.3 274 602.5Z" fill="white"/>
<path d="M76 433.5C76 433.7 76.04 433.89 76.11 434.07C76.19 434.25 76.2899 434.42 76.4399 434.56C76.5799 434.7 76.7401 434.81 76.9301 434.89C77.1201 434.97 77.31 435 77.5 435C77.7 435 77.8899 434.96 78.0699 434.89C78.2499 434.81 78.4201 434.71 78.5601 434.56C78.7001 434.42 78.81 434.26 78.89 434.07C78.97 433.89 79 433.69 79 433.5C79 433.3 78.96 433.11 78.89 432.93C78.81 432.75 78.7101 432.58 78.5601 432.44C78.4201 432.3 78.2599 432.19 78.0699 432.11C77.8899 432.03 77.69 432 77.5 432C77.3 432 77.1101 432.04 76.9301 432.11C76.7501 432.18 76.5799 432.29 76.4399 432.44C76.2999 432.58 76.19 432.74 76.11 432.93C76.04 433.11 76 433.3 76 433.5Z" fill="white"/>
<path d="M974 62C974 62.13 974.03 62.26 974.08 62.38C974.13 62.5 974.2 62.61 974.3 62.7C974.39 62.79 974.5 62.87 974.62 62.92C974.74 62.97 974.87 63 975 63C975.13 63 975.26 62.97 975.38 62.92C975.5 62.87 975.61 62.8 975.7 62.7C975.79 62.61 975.87 62.5 975.92 62.38C975.97 62.26 976 62.13 976 62C976 61.87 975.97 61.74 975.92 61.62C975.87 61.5 975.8 61.39 975.7 61.3C975.61 61.21 975.5 61.13 975.38 61.08C975.26 61.03 975.13 61 975 61C974.87 61 974.74 61.03 974.62 61.08C974.5 61.13 974.39 61.2 974.3 61.3C974.21 61.39 974.13 61.5 974.08 61.62C974.03 61.74 974 61.87 974 62Z" fill="white"/>
<path d="M882 471.5C882 471.64 882.05 471.76 882.15 471.85C882.25 471.95 882.37 472 882.5 472C882.64 472 882.76 471.95 882.85 471.85C882.95 471.75 883 471.63 883 471.5C883 471.37 882.95 471.24 882.85 471.15C882.75 471.05 882.63 471 882.5 471C882.36 471 882.24 471.05 882.15 471.15C882.05 471.24 882 471.36 882 471.5Z" fill="white"/>
<path d="M1033 97.5C1033 97.7 1033.04 97.89 1033.11 98.07C1033.18 98.25 1033.29 98.42 1033.44 98.56C1033.58 98.7 1033.74 98.81 1033.93 98.89C1034.11 98.97 1034.31 99 1034.5 99C1034.7 99 1034.89 98.96 1035.07 98.89C1035.25 98.81 1035.42 98.71 1035.56 98.56C1035.7 98.41 1035.81 98.26 1035.89 98.07C1035.97 97.89 1036 97.69 1036 97.5C1036 97.3 1035.96 97.11 1035.89 96.93C1035.81 96.75 1035.71 96.58 1035.56 96.44C1035.41 96.3 1035.26 96.19 1035.07 96.11C1034.89 96.03 1034.69 96 1034.5 96C1034.3 96 1034.11 96.04 1033.93 96.11C1033.75 96.19 1033.58 96.29 1033.44 96.44C1033.3 96.58 1033.19 96.74 1033.11 96.93C1033.03 97.12 1033 97.3 1033 97.5Z" fill="white"/>
<path d="M1101 86.5C1101 86.64 1101.05 86.76 1101.15 86.85C1101.25 86.95 1101.37 87 1101.5 87C1101.64 87 1101.76 86.95 1101.85 86.85C1101.95 86.75 1102 86.63 1102 86.5C1102 86.36 1101.95 86.24 1101.85 86.15C1101.75 86.05 1101.63 86 1101.5 86C1101.36 86 1101.24 86.05 1101.15 86.15C1101.05 86.24 1101 86.36 1101 86.5Z" fill="white"/>
<path d="M128 343.5C128 343.64 128.05 343.76 128.15 343.85C128.25 343.95 128.37 344 128.5 344C128.64 344 128.76 343.95 128.85 343.85C128.95 343.75 129 343.63 129 343.5C129 343.36 128.95 343.24 128.85 343.15C128.75 343.05 128.63 343 128.5 343C128.36 343 128.24 343.05 128.15 343.15C128.05 343.24 128 343.36 128 343.5Z" fill="white"/>
<path d="M877 484C877 484.13 877.03 484.26 877.08 484.38C877.13 484.5 877.2 484.61 877.3 484.7C877.39 484.79 877.5 484.87 877.62 484.92C877.74 484.97 877.87 485 878 485C878.13 485 878.26 484.97 878.38 484.92C878.5 484.87 878.61 484.8 878.7 484.7C878.79 484.61 878.87 484.5 878.92 484.38C878.97 484.26 879 484.13 879 484C879 483.87 878.97 483.74 878.92 483.62C878.87 483.5 878.8 483.39 878.7 483.3C878.61 483.21 878.5 483.13 878.38 483.08C878.26 483.03 878.13 483 878 483C877.87 483 877.74 483.03 877.62 483.08C877.5 483.13 877.39 483.2 877.3 483.3C877.21 483.39 877.13 483.5 877.08 483.62C877.03 483.74 877 483.87 877 484Z" fill="white"/>
<path d="M495 245C495 245.27 495.05 245.52 495.15 245.77C495.25 246.02 495.4 246.23 495.58 246.42C495.77 246.61 495.98 246.75 496.23 246.85C496.48 246.95 496.73 247 497 247C497.27 247 497.52 246.95 497.77 246.85C498.02 246.75 498.23 246.6 498.42 246.42C498.61 246.23 498.75 246.02 498.85 245.77C498.95 245.53 499 245.27 499 245C499 244.73 498.95 244.48 498.85 244.23C498.75 243.99 498.6 243.77 498.42 243.58C498.23 243.39 498.02 243.25 497.77 243.15C497.53 243.05 497.27 243 497 243C496.73 243 496.48 243.05 496.23 243.15C495.99 243.25 495.77 243.4 495.58 243.58C495.39 243.77 495.25 243.98 495.15 244.23C495.05 244.48 495 244.73 495 245Z" fill="white"/>
<path d="M278 237.5C278 237.7 278.04 237.89 278.11 238.07C278.19 238.25 278.29 238.42 278.44 238.56C278.58 238.7 278.74 238.81 278.93 238.89C279.12 238.97 279.31 239 279.5 239C279.7 239 279.89 238.96 280.07 238.89C280.25 238.82 280.42 238.71 280.56 238.56C280.7 238.42 280.81 238.26 280.89 238.07C280.97 237.89 281 237.69 281 237.5C281 237.31 280.96 237.11 280.89 236.93C280.81 236.75 280.71 236.58 280.56 236.44C280.42 236.3 280.26 236.19 280.07 236.11C279.88 236.03 279.69 236 279.5 236C279.3 236 279.11 236.04 278.93 236.11C278.75 236.18 278.58 236.29 278.44 236.44C278.3 236.58 278.19 236.74 278.11 236.93C278.04 237.11 278 237.3 278 237.5Z" fill="white"/>
<path d="M1263 527.5C1263 527.7 1263.04 527.89 1263.11 528.07C1263.19 528.25 1263.29 528.42 1263.44 528.56C1263.58 528.7 1263.74 528.81 1263.93 528.89C1264.12 528.97 1264.3 529 1264.5 529C1264.7 529 1264.89 528.96 1265.07 528.89C1265.25 528.81 1265.42 528.71 1265.56 528.56C1265.7 528.42 1265.81 528.26 1265.89 528.07C1265.97 527.89 1266 527.69 1266 527.5C1266 527.3 1265.96 527.11 1265.89 526.93C1265.82 526.75 1265.71 526.58 1265.56 526.44C1265.42 526.3 1265.26 526.19 1265.07 526.11C1264.89 526.03 1264.69 526 1264.5 526C1264.3 526 1264.11 526.04 1263.93 526.11C1263.75 526.18 1263.58 526.29 1263.44 526.44C1263.3 526.58 1263.19 526.74 1263.11 526.93C1263.04 527.11 1263 527.3 1263 527.5Z" fill="white"/>
<path d="M221 536C221 536.13 221.03 536.26 221.08 536.38C221.13 536.5 221.2 536.61 221.3 536.7C221.39 536.79 221.5 536.87 221.62 536.92C221.74 536.97 221.87 537 222 537C222.13 537 222.26 536.97 222.38 536.92C222.5 536.87 222.61 536.8 222.7 536.7C222.79 536.61 222.87 536.5 222.92 536.38C222.97 536.26 223 536.13 223 536C223 535.87 222.97 535.74 222.92 535.62C222.87 535.5 222.8 535.39 222.7 535.3C222.61 535.21 222.5 535.13 222.38 535.08C222.26 535.03 222.13 535 222 535C221.87 535 221.74 535.03 221.62 535.08C221.5 535.13 221.39 535.2 221.3 535.3C221.21 535.39 221.13 535.5 221.08 535.62C221.03 535.74 221 535.87 221 536Z" fill="white"/>
<path d="M1042 404C1042 404.27 1042.05 404.52 1042.15 404.77C1042.25 405.02 1042.4 405.23 1042.58 405.42C1042.76 405.61 1042.98 405.75 1043.23 405.85C1043.47 405.95 1043.73 406 1044 406C1044.27 406 1044.52 405.95 1044.77 405.85C1045.02 405.75 1045.23 405.6 1045.42 405.42C1045.61 405.23 1045.75 405.02 1045.85 404.77C1045.95 404.53 1046 404.27 1046 404C1046 403.73 1045.95 403.48 1045.85 403.23C1045.75 402.98 1045.6 402.77 1045.42 402.58C1045.23 402.39 1045.02 402.25 1044.77 402.15C1044.52 402.05 1044.27 402 1044 402C1043.73 402 1043.48 402.05 1043.23 402.15C1042.98 402.25 1042.77 402.4 1042.58 402.58C1042.39 402.76 1042.25 402.98 1042.15 403.23C1042.05 403.48 1042 403.73 1042 404Z" fill="white"/>
<path d="M378 119.5C378 119.64 378.05 119.76 378.15 119.85C378.25 119.95 378.37 120 378.5 120C378.64 120 378.76 119.95 378.85 119.85C378.94 119.75 379 119.63 379 119.5C379 119.36 378.95 119.24 378.85 119.15C378.75 119.06 378.63 119 378.5 119C378.36 119 378.24 119.05 378.15 119.15C378.05 119.24 378 119.36 378 119.5Z" fill="white"/>
<path d="M869 156.5C869 156.64 869.05 156.76 869.15 156.85C869.25 156.95 869.37 157 869.5 157C869.64 157 869.76 156.95 869.85 156.85C869.95 156.75 870 156.63 870 156.5C870 156.36 869.95 156.24 869.85 156.15C869.75 156.05 869.63 156 869.5 156C869.36 156 869.24 156.05 869.15 156.15C869.05 156.24 869 156.36 869 156.5Z" fill="white"/>
<path d="M470 512C470 512.13 470.03 512.26 470.08 512.38C470.13 512.5 470.2 512.61 470.3 512.7C470.39 512.79 470.5 512.87 470.62 512.92C470.74 512.97 470.87 513 471 513C471.13 513 471.26 512.97 471.38 512.92C471.5 512.87 471.61 512.8 471.7 512.7C471.79 512.6 471.87 512.5 471.92 512.38C471.97 512.26 472 512.13 472 512C472 511.87 471.97 511.74 471.92 511.62C471.87 511.5 471.8 511.39 471.7 511.3C471.6 511.21 471.5 511.13 471.38 511.08C471.26 511.03 471.13 511 471 511C470.87 511 470.74 511.03 470.62 511.08C470.5 511.13 470.39 511.2 470.3 511.3C470.21 511.39 470.13 511.5 470.08 511.62C470.03 511.74 470 511.87 470 512Z" fill="white"/>
<path d="M1202 325.5C1202 325.7 1202.04 325.89 1202.11 326.07C1202.19 326.25 1202.29 326.42 1202.44 326.56C1202.58 326.7 1202.74 326.81 1202.93 326.89C1203.11 326.97 1203.31 327 1203.5 327C1203.7 327 1203.89 326.96 1204.07 326.89C1204.25 326.81 1204.42 326.71 1204.56 326.56C1204.7 326.42 1204.81 326.26 1204.89 326.07C1204.97 325.89 1205 325.69 1205 325.5C1205 325.3 1204.96 325.11 1204.89 324.93C1204.81 324.75 1204.71 324.58 1204.56 324.44C1204.42 324.3 1204.26 324.19 1204.07 324.11C1203.89 324.03 1203.69 324 1203.5 324C1203.3 324 1203.11 324.04 1202.93 324.11C1202.75 324.19 1202.58 324.29 1202.44 324.44C1202.3 324.58 1202.19 324.74 1202.11 324.93C1202.04 325.11 1202 325.3 1202 325.5Z" fill="white"/>
<path d="M1216 560.5C1216 560.64 1216.05 560.76 1216.15 560.85C1216.25 560.95 1216.37 561 1216.5 561C1216.64 561 1216.76 560.95 1216.85 560.85C1216.95 560.75 1217 560.63 1217 560.5C1217 560.36 1216.95 560.24 1216.85 560.15C1216.75 560.05 1216.63 560 1216.5 560C1216.36 560 1216.24 560.05 1216.15 560.15C1216.05 560.24 1216 560.36 1216 560.5Z" fill="white"/>
<path d="M607 522.5C607 522.7 607.04 522.89 607.11 523.07C607.19 523.25 607.29 523.42 607.44 523.56C607.58 523.7 607.74 523.81 607.93 523.89C608.12 523.97 608.3 524 608.5 524C608.7 524 608.89 523.96 609.07 523.89C609.25 523.81 609.42 523.71 609.56 523.56C609.7 523.42 609.81 523.26 609.89 523.07C609.97 522.89 610 522.69 610 522.5C610 522.3 609.96 522.11 609.89 521.93C609.82 521.75 609.71 521.58 609.56 521.44C609.42 521.3 609.26 521.19 609.07 521.11C608.89 521.03 608.69 521 608.5 521C608.31 521 608.11 521.04 607.93 521.11C607.75 521.18 607.58 521.29 607.44 521.44C607.3 521.58 607.19 521.74 607.11 521.93C607.03 522.12 607 522.3 607 522.5Z" fill="white"/>
<path d="M982 472.5C982 472.64 982.05 472.76 982.15 472.85C982.25 472.95 982.37 473 982.5 473C982.64 473 982.76 472.95 982.85 472.85C982.94 472.75 983 472.63 983 472.5C983 472.36 982.95 472.24 982.85 472.15C982.75 472.06 982.63 472 982.5 472C982.36 472 982.24 472.05 982.15 472.15C982.05 472.24 982 472.36 982 472.5Z" fill="white"/>
<path d="M826 411C826 411.13 826.03 411.26 826.08 411.38C826.13 411.5 826.2 411.61 826.3 411.7C826.39 411.79 826.5 411.87 826.62 411.92C826.74 411.97 826.87 412 827 412C827.13 412 827.26 411.97 827.38 411.92C827.5 411.87 827.61 411.8 827.7 411.7C827.79 411.61 827.87 411.5 827.92 411.38C827.97 411.26 828 411.13 828 411C828 410.87 827.97 410.74 827.92 410.62C827.87 410.5 827.8 410.39 827.7 410.3C827.61 410.21 827.5 410.13 827.38 410.08C827.26 410.03 827.13 410 827 410C826.87 410 826.74 410.03 826.62 410.08C826.5 410.13 826.39 410.2 826.3 410.3C826.21 410.39 826.13 410.5 826.08 410.62C826.03 410.74 826 410.87 826 411Z" fill="white"/>
<path d="M894 580C894 580.27 894.05 580.52 894.15 580.77C894.25 581.02 894.4 581.23 894.58 581.42C894.77 581.61 894.98 581.75 895.23 581.85C895.48 581.95 895.73 582 896 582C896.27 582 896.52 581.95 896.77 581.85C897.02 581.75 897.23 581.6 897.42 581.42C897.61 581.23 897.75 581.02 897.85 580.77C897.95 580.52 898 580.27 898 580C898 579.73 897.95 579.48 897.85 579.23C897.75 578.98 897.6 578.77 897.42 578.58C897.23 578.39 897.02 578.25 896.77 578.15C896.52 578.05 896.27 578 896 578C895.73 578 895.48 578.05 895.23 578.15C894.98 578.25 894.77 578.4 894.58 578.58C894.39 578.77 894.25 578.98 894.15 579.23C894.05 579.48 894 579.73 894 580Z" fill="white"/>
<path d="M327 290C327 290.27 327.05 290.52 327.15 290.77C327.25 291.02 327.4 291.23 327.58 291.42C327.77 291.61 327.98 291.75 328.23 291.85C328.48 291.95 328.73 292 329 292C329.27 292 329.52 291.95 329.77 291.85C330.02 291.75 330.23 291.6 330.42 291.42C330.61 291.23 330.75 291.02 330.85 290.77C330.95 290.53 331 290.27 331 290C331 289.73 330.95 289.48 330.85 289.23C330.75 288.99 330.6 288.77 330.42 288.58C330.23 288.39 330.02 288.25 329.77 288.15C329.52 288.05 329.27 288 329 288C328.73 288 328.48 288.05 328.23 288.15C327.98 288.25 327.77 288.4 327.58 288.58C327.39 288.77 327.25 288.98 327.15 289.23C327.05 289.48 327 289.73 327 290Z" fill="white"/>
<path d="M474 326C474 326.13 474.03 326.26 474.08 326.38C474.13 326.5 474.2 326.61 474.3 326.7C474.39 326.79 474.5 326.87 474.62 326.92C474.74 326.97 474.87 327 475 327C475.13 327 475.26 326.97 475.38 326.92C475.5 326.87 475.61 326.8 475.7 326.7C475.79 326.61 475.87 326.5 475.92 326.38C475.97 326.26 476 326.13 476 326C476 325.87 475.97 325.74 475.92 325.62C475.87 325.5 475.8 325.39 475.7 325.3C475.61 325.21 475.5 325.13 475.38 325.08C475.26 325.03 475.13 325 475 325C474.87 325 474.74 325.03 474.62 325.08C474.5 325.13 474.39 325.2 474.3 325.3C474.21 325.39 474.13 325.5 474.08 325.62C474.03 325.74 474 325.87 474 326Z" fill="white"/>
<path d="M601 289.5C601 289.64 601.05 289.76 601.15 289.85C601.25 289.95 601.37 290 601.5 290C601.64 290 601.76 289.95 601.85 289.85C601.95 289.75 602 289.63 602 289.5C602 289.36 601.95 289.24 601.85 289.15C601.75 289.05 601.63 289 601.5 289C601.36 289 601.24 289.05 601.15 289.15C601.05 289.24 601 289.36 601 289.5Z" fill="white"/>
<path d="M852 327C852 327.13 852.03 327.26 852.08 327.38C852.13 327.5 852.2 327.61 852.3 327.7C852.39 327.79 852.5 327.87 852.62 327.92C852.74 327.97 852.87 328 853 328C853.13 328 853.26 327.97 853.38 327.92C853.5 327.87 853.61 327.8 853.7 327.7C853.79 327.6 853.87 327.5 853.92 327.38C853.97 327.26 854 327.13 854 327C854 326.87 853.97 326.74 853.92 326.62C853.87 326.5 853.8 326.39 853.7 326.3C853.6 326.21 853.5 326.13 853.38 326.08C853.26 326.03 853.13 326 853 326C852.87 326 852.74 326.03 852.62 326.08C852.5 326.13 852.39 326.2 852.3 326.3C852.21 326.39 852.13 326.5 852.08 326.62C852.03 326.74 852 326.87 852 327Z" fill="white"/>
<path d="M890 158C890 158.27 890.05 158.52 890.15 158.77C890.25 159.02 890.4 159.23 890.58 159.42C890.77 159.61 890.98 159.75 891.23 159.85C891.47 159.95 891.73 160 892 160C892.27 160 892.52 159.95 892.77 159.85C893.01 159.75 893.23 159.6 893.42 159.42C893.61 159.23 893.75 159.02 893.85 158.77C893.95 158.53 894 158.27 894 158C894 157.73 893.95 157.48 893.85 157.23C893.75 156.99 893.6 156.77 893.42 156.58C893.23 156.39 893.02 156.25 892.77 156.15C892.52 156.05 892.27 156 892 156C891.73 156 891.48 156.05 891.23 156.15C890.98 156.25 890.77 156.4 890.58 156.58C890.39 156.77 890.25 156.98 890.15 157.23C890.05 157.48 890 157.73 890 158Z" fill="white"/>
<path d="M673 524C673 524.13 673.03 524.26 673.08 524.38C673.13 524.5 673.2 524.61 673.3 524.7C673.39 524.79 673.5 524.87 673.62 524.92C673.74 524.97 673.87 525 674 525C674.13 525 674.26 524.97 674.38 524.92C674.5 524.87 674.61 524.8 674.7 524.7C674.79 524.61 674.87 524.5 674.92 524.38C674.97 524.26 675 524.13 675 524C675 523.87 674.97 523.74 674.92 523.62C674.87 523.5 674.8 523.39 674.7 523.3C674.61 523.21 674.5 523.13 674.38 523.08C674.26 523.03 674.13 523 674 523C673.87 523 673.74 523.03 673.62 523.08C673.5 523.13 673.39 523.2 673.3 523.3C673.21 523.39 673.13 523.5 673.08 523.62C673.03 523.74 673 523.87 673 524Z" fill="white"/>
<path d="M420 61.5C420 61.64 420.05 61.76 420.15 61.85C420.25 61.94 420.36 62 420.5 62C420.64 62 420.76 61.95 420.85 61.85C420.94 61.75 421 61.64 421 61.5C421 61.36 420.95 61.24 420.85 61.15C420.75 61.06 420.64 61 420.5 61C420.36 61 420.24 61.05 420.15 61.15C420.06 61.25 420 61.36 420 61.5Z" fill="white"/>
<path d="M297 445.5C297 445.7 297.04 445.89 297.11 446.07C297.19 446.25 297.29 446.42 297.44 446.56C297.58 446.7 297.74 446.81 297.93 446.89C298.12 446.97 298.31 447 298.5 447C298.7 447 298.89 446.96 299.07 446.89C299.25 446.81 299.42 446.71 299.56 446.56C299.7 446.42 299.81 446.26 299.89 446.07C299.97 445.89 300 445.69 300 445.5C300 445.3 299.96 445.11 299.89 444.93C299.81 444.75 299.71 444.58 299.56 444.44C299.42 444.3 299.26 444.19 299.07 444.11C298.89 444.03 298.69 444 298.5 444C298.3 444 298.11 444.04 297.93 444.11C297.75 444.18 297.58 444.29 297.44 444.44C297.3 444.58 297.19 444.74 297.11 444.93C297.04 445.11 297 445.3 297 445.5Z" fill="white"/>
<path d="M180 368C180 368.27 180.05 368.52 180.15 368.77C180.25 369.02 180.4 369.23 180.58 369.42C180.77 369.61 180.98 369.75 181.23 369.85C181.48 369.95 181.73 370 182 370C182.27 370 182.52 369.95 182.77 369.85C183.02 369.75 183.23 369.6 183.42 369.42C183.61 369.23 183.75 369.02 183.85 368.77C183.95 368.53 184 368.27 184 368C184 367.73 183.95 367.48 183.85 367.23C183.75 366.98 183.6 366.77 183.42 366.58C183.23 366.39 183.02 366.25 182.77 366.15C182.52 366.05 182.27 366 182 366C181.73 366 181.48 366.05 181.23 366.15C180.98 366.25 180.77 366.4 180.58 366.58C180.39 366.77 180.25 366.98 180.15 367.23C180.05 367.48 180 367.73 180 368Z" fill="white"/>
<path d="M1154 472C1154 472.13 1154.03 472.26 1154.08 472.38C1154.13 472.5 1154.2 472.61 1154.3 472.7C1154.39 472.79 1154.5 472.87 1154.62 472.92C1154.74 472.97 1154.87 473 1155 473C1155.13 473 1155.26 472.97 1155.38 472.92C1155.5 472.87 1155.61 472.8 1155.7 472.7C1155.79 472.6 1155.87 472.5 1155.92 472.38C1155.97 472.26 1156 472.13 1156 472C1156 471.87 1155.97 471.74 1155.92 471.62C1155.87 471.5 1155.8 471.39 1155.7 471.3C1155.6 471.21 1155.5 471.13 1155.38 471.08C1155.26 471.03 1155.13 471 1155 471C1154.87 471 1154.74 471.03 1154.62 471.08C1154.5 471.13 1154.39 471.2 1154.3 471.3C1154.21 471.39 1154.13 471.5 1154.08 471.62C1154.03 471.74 1154 471.87 1154 472Z" fill="white"/>
<path d="M142 605C142 605.13 142.03 605.26 142.08 605.38C142.13 605.5 142.2 605.61 142.3 605.7C142.4 605.79 142.5 605.87 142.62 605.92C142.74 605.97 142.87 606 143 606C143.13 606 143.26 605.97 143.38 605.92C143.5 605.87 143.61 605.8 143.7 605.7C143.79 605.61 143.87 605.5 143.92 605.38C143.97 605.26 144 605.13 144 605C144 604.87 143.97 604.74 143.92 604.62C143.87 604.5 143.8 604.39 143.7 604.3C143.61 604.21 143.5 604.13 143.38 604.08C143.26 604.03 143.13 604 143 604C142.87 604 142.74 604.03 142.62 604.08C142.5 604.13 142.39 604.2 142.3 604.3C142.21 604.4 142.13 604.5 142.08 604.62C142.03 604.74 142 604.87 142 605Z" fill="white"/>
<path d="M60 477.5C60 477.64 60.05 477.76 60.15 477.85C60.25 477.95 60.37 478 60.5 478C60.64 478 60.76 477.95 60.85 477.85C60.94 477.75 61 477.63 61 477.5C61 477.37 60.95 477.24 60.85 477.15C60.75 477.06 60.63 477 60.5 477C60.36 477 60.24 477.05 60.15 477.15C60.05 477.24 60 477.36 60 477.5Z" fill="white"/>
<path d="M939 343C939 343.13 939.03 343.26 939.08 343.38C939.13 343.5 939.2 343.61 939.3 343.7C939.39 343.79 939.5 343.87 939.62 343.92C939.74 343.97 939.87 344 940 344C940.13 344 940.26 343.97 940.38 343.92C940.5 343.87 940.61 343.8 940.7 343.7C940.79 343.61 940.87 343.5 940.92 343.38C940.97 343.26 941 343.13 941 343C941 342.87 940.97 342.74 940.92 342.62C940.87 342.5 940.8 342.39 940.7 342.3C940.61 342.21 940.5 342.13 940.38 342.08C940.26 342.03 940.13 342 940 342C939.87 342 939.74 342.03 939.62 342.08C939.5 342.13 939.39 342.2 939.3 342.3C939.21 342.39 939.13 342.5 939.08 342.62C939.03 342.74 939 342.87 939 343Z" fill="white"/>
<path d="M842 252.5C842 252.7 842.04 252.89 842.11 253.07C842.19 253.25 842.29 253.42 842.44 253.56C842.58 253.7 842.74 253.81 842.93 253.89C843.12 253.97 843.3 254 843.5 254C843.7 254 843.89 253.96 844.07 253.89C844.25 253.82 844.42 253.71 844.56 253.56C844.7 253.41 844.81 253.26 844.89 253.07C844.97 252.89 845 252.69 845 252.5C845 252.3 844.96 252.11 844.89 251.93C844.81 251.75 844.71 251.58 844.56 251.44C844.41 251.3 844.26 251.19 844.07 251.11C843.88 251.03 843.69 251 843.5 251C843.3 251 843.11 251.04 842.93 251.11C842.75 251.18 842.58 251.29 842.44 251.44C842.3 251.58 842.19 251.74 842.11 251.93C842.04 252.11 842 252.3 842 252.5Z" fill="white"/>
<path d="M984 201.5C984 201.64 984.05 201.76 984.15 201.85C984.25 201.95 984.37 202 984.5 202C984.63 202 984.76 201.95 984.85 201.85C984.95 201.75 985 201.63 985 201.5C985 201.37 984.95 201.24 984.85 201.15C984.75 201.05 984.63 201 984.5 201C984.37 201 984.24 201.05 984.15 201.15C984.05 201.24 984 201.36 984 201.5Z" fill="white"/>
<path d="M260 67C260 67.27 260.05 67.52 260.15 67.77C260.25 68.02 260.4 68.23 260.58 68.42C260.77 68.61 260.98 68.75 261.23 68.85C261.48 68.95 261.73 69 262 69C262.27 69 262.52 68.95 262.77 68.85C263.02 68.75 263.23 68.6 263.42 68.42C263.61 68.23 263.75 68.02 263.85 67.77C263.95 67.52 264 67.27 264 67C264 66.73 263.95 66.48 263.85 66.23C263.75 65.98 263.6 65.77 263.42 65.58C263.23 65.39 263.02 65.25 262.77 65.15C262.52 65.05 262.27 65 262 65C261.73 65 261.48 65.05 261.23 65.15C260.98 65.25 260.77 65.4 260.58 65.58C260.39 65.77 260.25 65.98 260.15 66.23C260.05 66.48 260 66.73 260 67Z" fill="white"/>
<path d="M40 319.5C40 319.7 40.04 319.89 40.11 320.07C40.19 320.25 40.2899 320.42 40.4399 320.56C40.5799 320.7 40.7401 320.81 40.9301 320.89C41.1201 320.97 41.31 321 41.5 321C41.7 321 41.8899 320.96 42.0699 320.89C42.2499 320.81 42.4201 320.71 42.5601 320.56C42.7001 320.42 42.81 320.26 42.89 320.07C42.97 319.89 43 319.69 43 319.5C43 319.3 42.96 319.11 42.89 318.93C42.81 318.75 42.7101 318.58 42.5601 318.44C42.4201 318.3 42.2599 318.19 42.0699 318.11C41.8899 318.03 41.69 318 41.5 318C41.3 318 41.1101 318.04 40.9301 318.11C40.7501 318.18 40.5799 318.29 40.4399 318.44C40.2999 318.58 40.19 318.74 40.11 318.93C40.04 319.11 40 319.3 40 319.5Z" fill="white"/>
<path d="M573 361C573 361.13 573.03 361.26 573.08 361.38C573.13 361.5 573.2 361.61 573.3 361.7C573.39 361.79 573.5 361.87 573.62 361.92C573.74 361.97 573.87 362 574 362C574.13 362 574.26 361.97 574.38 361.92C574.5 361.87 574.61 361.8 574.7 361.7C574.79 361.61 574.87 361.5 574.92 361.38C574.97 361.26 575 361.13 575 361C575 360.87 574.97 360.74 574.92 360.62C574.87 360.5 574.8 360.39 574.7 360.3C574.61 360.21 574.5 360.13 574.38 360.08C574.26 360.03 574.13 360 574 360C573.87 360 573.74 360.03 573.62 360.08C573.5 360.13 573.39 360.2 573.3 360.3C573.21 360.39 573.13 360.5 573.08 360.62C573.03 360.74 573 360.87 573 361Z" fill="white"/>
<path d="M496 314.5C496 314.64 496.05 314.76 496.15 314.85C496.25 314.95 496.37 315 496.5 315C496.64 315 496.76 314.95 496.85 314.85C496.95 314.75 497 314.63 497 314.5C497 314.37 496.95 314.24 496.85 314.15C496.75 314.05 496.63 314 496.5 314C496.36 314 496.24 314.05 496.15 314.15C496.05 314.24 496 314.36 496 314.5Z" fill="white"/>
<path d="M541 85C541 85.13 541.03 85.26 541.08 85.38C541.13 85.5 541.2 85.61 541.3 85.7C541.39 85.79 541.5 85.87 541.62 85.92C541.74 85.97 541.87 86 542 86C542.13 86 542.26 85.97 542.38 85.92C542.5 85.87 542.61 85.8 542.7 85.7C542.79 85.61 542.87 85.5 542.92 85.38C542.97 85.26 543 85.13 543 85C543 84.87 542.97 84.74 542.92 84.62C542.87 84.5 542.8 84.39 542.7 84.3C542.61 84.21 542.5 84.13 542.38 84.08C542.26 84.03 542.13 84 542 84C541.87 84 541.74 84.03 541.62 84.08C541.5 84.13 541.39 84.2 541.3 84.3C541.21 84.39 541.13 84.5 541.08 84.62C541.03 84.74 541 84.87 541 85Z" fill="white"/>
<path d="M878 175C878 175.13 878.03 175.26 878.08 175.38C878.13 175.5 878.2 175.61 878.3 175.7C878.39 175.79 878.5 175.87 878.62 175.92C878.74 175.97 878.87 176 879 176C879.13 176 879.26 175.97 879.38 175.92C879.5 175.87 879.61 175.8 879.7 175.7C879.79 175.61 879.87 175.5 879.92 175.38C879.97 175.26 880 175.13 880 175C880 174.87 879.97 174.74 879.92 174.62C879.87 174.5 879.8 174.39 879.7 174.3C879.61 174.21 879.5 174.13 879.38 174.08C879.26 174.03 879.13 174 879 174C878.87 174 878.74 174.03 878.62 174.08C878.5 174.13 878.39 174.2 878.3 174.3C878.21 174.39 878.13 174.5 878.08 174.62C878.03 174.74 878 174.87 878 175Z" fill="white"/>
<path d="M1236 421.5C1236 421.64 1236.05 421.76 1236.15 421.85C1236.25 421.95 1236.37 422 1236.5 422C1236.64 422 1236.76 421.95 1236.85 421.85C1236.95 421.75 1237 421.63 1237 421.5C1237 421.36 1236.95 421.24 1236.85 421.15C1236.75 421.05 1236.63 421 1236.5 421C1236.36 421 1236.24 421.05 1236.15 421.15C1236.05 421.24 1236 421.36 1236 421.5Z" fill="white"/>
<path d="M996 610.5C996 610.7 996.04 610.89 996.11 611.07C996.19 611.25 996.29 611.42 996.44 611.56C996.58 611.7 996.74 611.81 996.93 611.89C997.11 611.97 997.31 612 997.5 612C997.7 612 997.89 611.96 998.07 611.89C998.25 611.81 998.42 611.71 998.56 611.56C998.7 611.41 998.81 611.26 998.89 611.07C998.97 610.89 999 610.69 999 610.5C999 610.3 998.96 610.11 998.89 609.93C998.81 609.75 998.71 609.58 998.56 609.44C998.42 609.3 998.26 609.19 998.07 609.11C997.89 609.03 997.69 609 997.5 609C997.3 609 997.11 609.04 996.93 609.11C996.75 609.19 996.58 609.29 996.44 609.44C996.3 609.58 996.19 609.74 996.11 609.93C996.04 610.11 996 610.3 996 610.5Z" fill="white"/>
<path d="M496 434C496 434.13 496.03 434.26 496.08 434.38C496.13 434.5 496.2 434.61 496.3 434.7C496.39 434.79 496.5 434.87 496.62 434.92C496.74 434.97 496.87 435 497 435C497.13 435 497.26 434.97 497.38 434.92C497.5 434.87 497.61 434.8 497.7 434.7C497.79 434.61 497.87 434.5 497.92 434.38C497.97 434.26 498 434.13 498 434C498 433.87 497.97 433.74 497.92 433.62C497.87 433.5 497.8 433.39 497.7 433.3C497.61 433.21 497.5 433.13 497.38 433.08C497.26 433.03 497.13 433 497 433C496.87 433 496.74 433.03 496.62 433.08C496.5 433.13 496.39 433.2 496.3 433.3C496.21 433.39 496.13 433.5 496.08 433.62C496.03 433.74 496 433.87 496 434Z" fill="white"/>
<path d="M1139 223C1139 223.13 1139.03 223.26 1139.08 223.38C1139.13 223.5 1139.2 223.61 1139.3 223.7C1139.39 223.79 1139.5 223.87 1139.62 223.92C1139.74 223.97 1139.87 224 1140 224C1140.13 224 1140.26 223.97 1140.38 223.92C1140.5 223.87 1140.61 223.8 1140.7 223.7C1140.79 223.61 1140.87 223.5 1140.92 223.38C1140.97 223.26 1141 223.13 1141 223C1141 222.87 1140.97 222.74 1140.92 222.62C1140.87 222.5 1140.8 222.39 1140.7 222.3C1140.61 222.21 1140.5 222.13 1140.38 222.08C1140.26 222.03 1140.13 222 1140 222C1139.87 222 1139.74 222.03 1139.62 222.08C1139.5 222.13 1139.39 222.2 1139.3 222.3C1139.21 222.39 1139.13 222.5 1139.08 222.62C1139.03 222.74 1139 222.87 1139 223Z" fill="white"/>
<path d="M1152 401.5C1152 401.64 1152.05 401.76 1152.15 401.85C1152.25 401.94 1152.37 402 1152.5 402C1152.63 402 1152.76 401.95 1152.85 401.85C1152.95 401.75 1153 401.63 1153 401.5C1153 401.36 1152.95 401.24 1152.85 401.15C1152.75 401.05 1152.63 401 1152.5 401C1152.37 401 1152.24 401.05 1152.15 401.15C1152.06 401.25 1152 401.36 1152 401.5Z" fill="white"/>
<path d="M855 606.5C855 606.7 855.04 606.89 855.11 607.07C855.19 607.25 855.29 607.42 855.44 607.56C855.59 607.7 855.74 607.81 855.93 607.89C856.11 607.97 856.31 608 856.5 608C856.7 608 856.89 607.96 857.07 607.89C857.25 607.81 857.42 607.71 857.56 607.56C857.7 607.42 857.81 607.26 857.89 607.07C857.97 606.89 858 606.69 858 606.5C858 606.3 857.96 606.11 857.89 605.93C857.82 605.75 857.71 605.58 857.56 605.44C857.42 605.3 857.26 605.19 857.07 605.11C856.89 605.03 856.69 605 856.5 605C856.3 605 856.11 605.04 855.93 605.11C855.75 605.19 855.58 605.29 855.44 605.44C855.3 605.59 855.19 605.74 855.11 605.93C855.04 606.11 855 606.3 855 606.5Z" fill="white"/>
<path d="M102 191C102 191.13 102.03 191.26 102.08 191.38C102.13 191.5 102.2 191.61 102.3 191.7C102.39 191.79 102.5 191.87 102.62 191.92C102.74 191.97 102.87 192 103 192C103.13 192 103.26 191.97 103.38 191.92C103.5 191.87 103.61 191.8 103.7 191.7C103.79 191.61 103.87 191.5 103.92 191.38C103.97 191.26 104 191.13 104 191C104 190.87 103.97 190.74 103.92 190.62C103.87 190.5 103.8 190.39 103.7 190.3C103.61 190.21 103.5 190.13 103.38 190.08C103.26 190.03 103.13 190 103 190C102.87 190 102.74 190.03 102.62 190.08C102.5 190.13 102.39 190.2 102.3 190.3C102.21 190.39 102.13 190.5 102.08 190.62C102.03 190.74 102 190.87 102 191Z" fill="white"/>
<path d="M1252 65.5C1252 65.64 1252.05 65.76 1252.15 65.85C1252.25 65.94 1252.36 66 1252.5 66C1252.64 66 1252.76 65.95 1252.85 65.85C1252.95 65.75 1253 65.63 1253 65.5C1253 65.36 1252.95 65.24 1252.85 65.15C1252.75 65.05 1252.63 65 1252.5 65C1252.36 65 1252.24 65.05 1252.15 65.15C1252.06 65.25 1252 65.36 1252 65.5Z" fill="white"/>
<path d="M962 169C962 169.13 962.03 169.26 962.08 169.38C962.13 169.5 962.2 169.61 962.3 169.7C962.39 169.79 962.5 169.87 962.62 169.92C962.74 169.97 962.87 170 963 170C963.13 170 963.26 169.97 963.38 169.92C963.5 169.87 963.61 169.8 963.7 169.7C963.79 169.61 963.87 169.5 963.92 169.38C963.97 169.26 964 169.13 964 169C964 168.87 963.97 168.74 963.92 168.62C963.87 168.5 963.8 168.39 963.7 168.3C963.61 168.21 963.5 168.13 963.38 168.08C963.26 168.03 963.13 168 963 168C962.87 168 962.74 168.03 962.62 168.08C962.5 168.13 962.39 168.2 962.3 168.3C962.21 168.39 962.13 168.5 962.08 168.62C962.03 168.74 962 168.87 962 169Z" fill="white"/>
<path d="M1073 468.5C1073 468.64 1073.05 468.76 1073.15 468.85C1073.25 468.94 1073.37 469 1073.5 469C1073.64 469 1073.76 468.95 1073.85 468.85C1073.94 468.75 1074 468.63 1074 468.5C1074 468.36 1073.95 468.24 1073.85 468.15C1073.75 468.06 1073.63 468 1073.5 468C1073.36 468 1073.24 468.05 1073.15 468.15C1073.06 468.25 1073 468.36 1073 468.5Z" fill="white"/>
<path d="M325 179C325 179.27 325.05 179.52 325.15 179.77C325.25 180.02 325.4 180.23 325.58 180.42C325.77 180.61 325.98 180.75 326.23 180.85C326.48 180.95 326.73 181 327 181C327.27 181 327.52 180.95 327.77 180.85C328.02 180.75 328.23 180.6 328.42 180.42C328.61 180.23 328.75 180.02 328.85 179.77C328.95 179.53 329 179.27 329 179C329 178.73 328.95 178.48 328.85 178.23C328.75 177.99 328.6 177.77 328.42 177.58C328.23 177.39 328.02 177.25 327.77 177.15C327.52 177.05 327.27 177 327 177C326.73 177 326.48 177.05 326.23 177.15C325.98 177.25 325.77 177.4 325.58 177.58C325.39 177.77 325.25 177.98 325.15 178.23C325.05 178.48 325 178.73 325 179Z" fill="white"/>
<path d="M144 275.5C144 275.64 144.05 275.76 144.15 275.85C144.25 275.95 144.37 276 144.5 276C144.64 276 144.76 275.95 144.85 275.85C144.94 275.75 145 275.63 145 275.5C145 275.37 144.95 275.24 144.85 275.15C144.75 275.06 144.63 275 144.5 275C144.36 275 144.24 275.05 144.15 275.15C144.05 275.24 144 275.36 144 275.5Z" fill="white"/>
<path d="M334 378C334 378.27 334.05 378.52 334.15 378.77C334.25 379.02 334.4 379.23 334.58 379.42C334.76 379.61 334.98 379.75 335.23 379.85C335.47 379.95 335.73 380 336 380C336.27 380 336.52 379.95 336.77 379.85C337.01 379.75 337.23 379.6 337.42 379.42C337.61 379.24 337.75 379.02 337.85 378.77C337.95 378.53 338 378.27 338 378C338 377.73 337.95 377.48 337.85 377.23C337.75 376.99 337.6 376.77 337.42 376.58C337.24 376.39 337.02 376.25 336.77 376.15C336.52 376.05 336.27 376 336 376C335.73 376 335.48 376.05 335.23 376.15C334.98 376.25 334.77 376.4 334.58 376.58C334.39 376.76 334.25 376.98 334.15 377.23C334.05 377.48 334 377.73 334 378Z" fill="white"/>
<path d="M758 491.5C758 491.64 758.05 491.76 758.15 491.85C758.25 491.95 758.37 492 758.5 492C758.64 492 758.76 491.95 758.85 491.85C758.95 491.75 759 491.63 759 491.5C759 491.36 758.95 491.24 758.85 491.15C758.75 491.05 758.63 491 758.5 491C758.36 491 758.24 491.05 758.15 491.15C758.05 491.24 758 491.36 758 491.5Z" fill="white"/>
<path d="M874 216.5C874 216.7 874.04 216.89 874.11 217.07C874.19 217.25 874.29 217.42 874.44 217.56C874.58 217.7 874.74 217.81 874.93 217.89C875.11 217.97 875.31 218 875.5 218C875.7 218 875.89 217.96 876.07 217.89C876.25 217.81 876.42 217.71 876.56 217.56C876.7 217.42 876.81 217.26 876.89 217.07C876.97 216.89 877 216.69 877 216.5C877 216.3 876.96 216.11 876.89 215.93C876.81 215.75 876.71 215.58 876.56 215.44C876.42 215.3 876.26 215.19 876.07 215.11C875.88 215.03 875.69 215 875.5 215C875.3 215 875.11 215.04 874.93 215.11C874.75 215.19 874.58 215.29 874.44 215.44C874.3 215.58 874.19 215.74 874.11 215.93C874.04 216.11 874 216.3 874 216.5Z" fill="white"/>
<path d="M775 378C775 378.13 775.03 378.26 775.08 378.38C775.13 378.5 775.2 378.61 775.3 378.7C775.4 378.79 775.5 378.87 775.62 378.92C775.74 378.97 775.87 379 776 379C776.13 379 776.26 378.97 776.38 378.92C776.5 378.87 776.61 378.8 776.7 378.7C776.79 378.61 776.87 378.5 776.92 378.38C776.97 378.26 777 378.13 777 378C777 377.87 776.97 377.74 776.92 377.62C776.87 377.5 776.8 377.39 776.7 377.3C776.61 377.21 776.5 377.13 776.38 377.08C776.26 377.03 776.13 377 776 377C775.87 377 775.74 377.03 775.62 377.08C775.5 377.13 775.39 377.2 775.3 377.3C775.21 377.4 775.13 377.5 775.08 377.62C775.03 377.74 775 377.87 775 378Z" fill="white"/>
<path d="M85 125C85 125.13 85.03 125.26 85.08 125.38C85.13 125.5 85.2 125.61 85.3 125.7C85.39 125.79 85.5 125.87 85.62 125.92C85.74 125.97 85.87 126 86 126C86.13 126 86.26 125.97 86.38 125.92C86.5 125.87 86.61 125.8 86.7 125.7C86.79 125.61 86.87 125.5 86.92 125.38C86.97 125.26 87 125.13 87 125C87 124.87 86.97 124.74 86.92 124.62C86.87 124.5 86.8 124.39 86.7 124.3C86.61 124.21 86.5 124.13 86.38 124.08C86.26 124.03 86.13 124 86 124C85.87 124 85.74 124.03 85.62 124.08C85.5 124.13 85.39 124.2 85.3 124.3C85.21 124.39 85.13 124.5 85.08 124.62C85.03 124.74 85 124.87 85 125Z" fill="white"/>
<path d="M1190.06 156.18L1184.63 111.79L1171.82 119.07L1190.06 156.18Z" fill="#6546ED"/>
<path d="M1130.13 86.54L1184.79 112.14L1172.45 121.33L1137.59 112.48L1130.13 86.54Z" fill="#6546ED"/>
<path d="M1170.83 198.04L1190.06 156.18L1172.64 120.82L1137.61 111.62L1116 145.64L1127.13 176.69L1170.83 198.04Z" fill="#6546ED"/>
<path opacity="0.6471" d="M1181.82 174.12L1127.88 127.27L1117.07 144.28L1127.13 176.69L1170.83 198.04L1181.82 174.12Z" fill="#957CFF"/>
<path d="M1137.61 111.62L1129.8 85.8398L1099.52 147.81L1116.35 145.47L1137.61 111.62Z" fill="#7A5BFF"/>
<path d="M1127.25 176.82L1117.23 144.63L1099.52 147.81L1127.25 176.82Z" fill="#957CFF"/>
<path d="M1073.84 151.5L1066 143.16L1069.53 141.84L1073.84 151.5Z" fill="#6546ED"/>
<path d="M1069.97 128.32L1066.05 143.25L1069.87 142.33L1073.84 134.03L1069.97 128.32Z" fill="#6546ED"/>
<path d="M1085.21 154.57L1073.84 151.5L1069.74 142.28L1073.67 133.89L1083.89 135.22L1088.17 142.49L1085.21 154.57Z" fill="#6546ED"/>
<path opacity="0.6471" d="M1078.71 152.81L1078.34 134.55L1083.45 135.21L1088.17 142.49L1085.21 154.57L1078.71 152.81Z" fill="#957CFF"/>
<path d="M1073.67 133.89L1069.88 128.14L1087.02 132.34L1083.8 135.26L1073.67 133.89Z" fill="#7A5BFF"/>
<path d="M1088.09 142.31L1083.49 135.3L1087.02 132.34L1088.09 142.31Z" fill="#957CFF"/>
<path d="M1151.65 82.2301L1139.16 68.9401L1144.78 66.8301L1151.65 82.2301Z" fill="#6546ED"/>
<path d="M1145.48 45.2798L1139.23 69.0798L1145.33 67.6198L1151.66 54.3898L1145.48 45.2798Z" fill="#6546ED"/>
<path d="M1169.77 87.1299L1151.65 82.2299L1145.12 67.5399L1151.38 54.1699L1167.68 56.2799L1174.5 67.8699L1169.77 87.1299Z" fill="#6546ED"/>
<path opacity="0.6471" d="M1159.42 84.33L1158.82 55.21L1166.97 56.26L1174.5 67.87L1169.77 87.13L1159.42 84.33Z" fill="#957CFF"/>
<path d="M1151.38 54.17L1145.34 45L1172.66 51.69L1167.53 56.35L1151.38 54.17Z" fill="#7A5BFF"/>
<path d="M1174.36 67.59L1167.04 56.4099L1172.66 51.6899L1174.36 67.59Z" fill="#957CFF"/>
<path d="M326.2 115.05L324.13 68.8496L317.6 106.17L309.89 136.32L326.2 115.05Z" fill="#957CFF"/>
<path d="M290.86 134.73C298.93 126.77 315.61 111.17 316.57 110.22L309.89 136.32L290.86 134.73Z" fill="#7A5BFF"/>
<path d="M290.87 134.73L304.72 108.47L277.31 105.21L290.87 134.73Z" fill="#6546ED"/>
<path d="M301.91 77.2798L304.72 108.47L277.32 105.22L301.91 77.2798Z" fill="#6546ED"/>
<path d="M301.92 77.2898L324.12 68.8398L317.61 106.13L316.57 110.23L290.86 134.73L304.72 108.48L301.92 77.2898Z" fill="#6546ED"/>
<path d="M301.92 77.2896L317.61 106.06L324.13 68.8496L301.92 77.2896Z" fill="#6546ED"/>
<path d="M183.37 324.48L262.62 257.89L238.82 266.64L167.31 330.17L183.37 324.48Z" fill="#6546ED"/>
<path d="M216.69 240.83L238.75 266.64L262.59 257.92L232.42 219.54L155.61 183.28L171.84 222.33L216.69 240.83Z" fill="#C0B1FF"/>
<path d="M167.31 330.17L238.8 266.66L216.76 240.84L171.86 222.31L130.29 302.1L156.53 310.5L167.31 330.17Z" fill="#7A5BFF"/>
<path d="M155.61 183.29L171.83 222.29L130.31 302.11L118 281.31L155.61 183.29Z" fill="#7A5BFF"/>
<path d="M156.531 310.51L216.771 240.85L171.83 222.28L130.301 302.1L156.531 310.51Z" fill="#957CFF"/>
<path d="M270.739 554.49L250.229 501.35L257.219 547.5L260.019 585.72L270.739 554.49Z" fill="#957CFF"/>
<path d="M237.179 591.32C243.489 578.87 256.859 554.12 257.609 552.63L260.029 585.72L237.179 591.32Z" fill="#7A5BFF"/>
<path d="M237.179 591.31L243.079 555.23L209.799 562.15L237.179 591.31Z" fill="#6546ED"/>
<path d="M227.589 519.9L243.079 555.22L209.799 562.15L227.589 519.9Z" fill="#6546ED"/>
<path d="M227.599 519.91L250.219 501.35L257.209 547.44L257.609 552.64L237.179 591.32L243.089 555.23L227.599 519.91Z" fill="#6546ED"/>
<path d="M227.599 519.9L257.189 547.36L250.229 501.36L227.599 519.9Z" fill="#6546ED"/>
<path d="M1130.95 507.65L1127.35 531.62C1126.57 534.24 1123.06 556.57 1122.85 557.8L1112.11 547.45L1130.65 505.87C1130.95 506.4 1131.05 507.02 1130.95 507.65Z" fill="#6546ED"/>
<path d="M1127.82 504.63C1128.98 504.4 1130.11 504.89 1130.65 505.88L1112.67 547.88L1102.95 538.51L1078.16 514.62L1127.82 504.63Z" fill="#957CFF"/>
<path d="M1073.13 567.78L1096.92 563.27C1099.5 562.39 1121.67 558.03 1122.89 557.78L1112.15 547.43L1071.35 567.55C1071.89 567.82 1072.51 567.9 1073.13 567.78Z" fill="#6546ED"/>
<path d="M1070.16 564.6C1069.97 565.77 1070.51 566.88 1071.51 567.39L1112.75 547.81L1103.03 538.44L1078.24 514.55L1070.16 564.6Z" fill="#957CFF"/>
<path opacity="0.749" d="M1078.16 514.61L1074.8 535.27L1120.73 528.9L1126.12 516.66L1102.92 509.64L1078.16 514.61Z" fill="#C0B1FF"/>
<path d="M1253.26 294.82L1251.19 248.62L1244.66 285.94L1236.95 316.09L1253.26 294.82Z" fill="#957CFF"/>
<path d="M1217.92 314.5C1225.99 306.54 1242.67 290.94 1243.63 289.99L1236.95 316.09L1217.92 314.5Z" fill="#7A5BFF"/>
<path d="M1217.93 314.5L1231.78 288.24L1204.37 284.98L1217.93 314.5Z" fill="#6546ED"/>
<path d="M1228.97 257.05L1231.78 288.24L1204.38 284.99L1228.97 257.05Z" fill="#6546ED"/>
<path d="M1228.98 257.06L1251.18 248.61L1244.67 285.9L1243.63 290L1217.92 314.5L1231.78 288.25L1228.98 257.06Z" fill="#6546ED"/>
<path d="M1228.98 257.06L1244.67 285.83L1251.19 248.62L1228.98 257.06Z" fill="#6546ED"/>
<path d="M179.15 720.313L182.851 717.769L193.532 712.74C197.542 710.847 202.841 710.336 207.511 711.158C216.481 712.74 230.296 714.924 231.223 714.583C231.791 714.373 233.337 713.321 235.182 712.069C237.688 710.366 240.729 708.303 242.595 707.481L253.667 703.685C256.874 702.723 260.596 703.224 263.06 704.967L263.668 705.398L267.864 708.523L275.266 709.535C276.008 709.635 276.699 709.885 277.246 710.256L281.246 712.941C282.988 714.113 285.699 714.173 287.555 713.091L288.112 712.76C289.37 712.019 291.153 711.909 292.576 712.47L297.937 714.594L306.587 717.779H308.03C311.824 717.779 315.412 718.981 317.824 721.055L318.721 721.826H325.701C329.453 721.826 333.123 721.025 336.216 719.522L338.856 718.24C339.474 717.939 340.206 717.779 340.948 717.779H348.598C349.557 717.779 350.464 718.09 351.062 718.61L357.238 724.02L363.609 721.816L375.29 724.02H387.723L405.023 726.995L423.972 720.223H437.92L451.725 721.816L461.571 714.914C461.87 714.704 462.272 714.594 462.684 714.594H472.19L482.499 709.695L495.541 707.491L506.613 702.102L523.748 696.963C528.872 695.31 534.872 695.811 539.315 698.265L539.717 698.486L568.337 709.705L579.409 714.604L597.152 716.527L607.73 714.604L608.668 713.892C609.864 712.981 611.874 712.931 613.153 713.782L616.905 716.266L624.019 716.527L626.174 715.265C630.555 712.7 636.06 711.298 641.741 711.298L648.411 709.705L662.515 703.945H673.886L691.629 707.501L697.691 711.298L713.011 712.891L717.104 717.789H742.579L751.847 715.054L764.59 705.898C766.281 704.686 768.714 704.155 771.075 704.486L780.787 707.501L792.457 711.298L799.148 705.908L803.086 703.564C804.426 702.763 806.437 702.883 807.56 703.845L811.891 707.511L815.53 712.901L824.819 715.926C826.272 716.397 827.644 716.978 828.922 717.649L834.335 720.494L839.902 719.402C845.067 718.39 850.603 719.201 854.778 721.586L855.871 722.207H860.861C862.232 722.207 863.603 722.277 864.954 722.417L876.532 718.42L876.954 718.21C881.573 715.926 887.604 715.645 892.594 717.488L909.326 723.258L919.987 729.049L932.853 731.733L942.791 737.002L952.287 737.353C952.699 737.373 953.091 737.503 953.379 737.713L957.194 740.679L974.163 744.075L976.597 743.884L990.535 744.395L1004.96 750.235L1011.42 751.527L1026.45 749.524L1038.88 749.985L1050.69 748.212L1056.89 750.646L1063.47 745.467C1064.1 744.966 1065.03 744.686 1065.99 744.726L1073.63 745.006C1074.38 745.036 1075.09 745.216 1075.69 745.537L1078.24 746.909C1081.22 748.522 1084.83 749.464 1088.57 749.594L1095.54 749.855L1096.49 749.123C1099.04 747.14 1102.72 746.078 1106.51 746.218L1107.95 746.268L1116.82 743.403L1122.33 741.48C1123.81 740.969 1125.57 741.149 1126.78 741.931L1127.31 742.281C1129.09 743.433 1131.8 743.473 1133.63 742.362L1137.82 739.827C1138.4 739.477 1139.1 739.256 1139.85 739.186L1147.31 738.455L1151.74 735.49L1152.39 735.079C1154.98 733.436 1158.74 733.065 1161.86 734.147L1172.63 738.345C1174.44 739.236 1177.32 741.41 1179.7 743.203C1181.45 744.525 1182.92 745.627 1183.47 745.858C1184.37 746.228 1198.34 744.555 1207.41 743.313C1212.14 742.662 1217.39 743.373 1221.24 745.407L1231.54 750.826L1235.05 753.511C1237.36 755.274 1240.19 756.646 1243.35 757.518L1250.67 760.703L1254.57 762.406H1262.67L1269.08 760.703H1277.68L1303.07 744.135C1305.06 742.832 1308.27 742.963 1310.02 744.405L1321.09 753.511L1331.64 755.685L1339.48 760.713L1348.2 766.473L1353.81 770.791L1359.91 773.566L1366 776.03V805H539.068L341.711 798.439L182.861 798.759L0 798.399V759.05L6.89712 761.034L17.0727 759.06L24.609 755.454H29.2071L35.6196 753.12L39.2589 750.916L45.723 749.043L54.0119 753.671L58.775 750.916L63.2803 749.774L69.3217 745.727L73.6105 741.44L81.5282 737.704L89.8172 732.905L105.653 724.01L124.963 732.905L155.458 729.84L170.562 724.01C173.789 723.248 176.727 721.986 179.15 720.313Z" fill="#0F0A22"/>
<path d="M435.992 761H491.249L520.93 764.347C525.343 765.035 535.636 766.479 541.477 766.788C547.318 767.097 579.538 766.918 594.909 766.788C604.191 768.761 624.868 773.044 633.267 774.379C641.667 775.714 666.608 772.965 678.022 771.42L704.242 774.877H735.728L757.941 774.379L793.235 777.029H800.534L854.759 774.379L881.247 778.115H1000.89L1036.94 784.551L1094.45 789.263L1148.76 784.551L1183.44 789.263L1226.34 784.551H1366V856L979.889 836.514L881.237 840.628H302.591L0 854.177V766.788H31.0396L70.7465 774.379L113.647 766.788H179.365L236.873 771.42H312.637L365.583 766.788L435.992 761Z" fill="#090412"/>
</svg>
