<svg width="137" height="35" viewBox="0 0 137 35" fill="none" xmlns="http://www.w3.org/2000/svg">
<path d="M16.9282 34.7512C16.0955 34.7512 15.3337 34.4636 14.9412 34.0006L0.503179 16.93C0.27971 16.6652 0.201982 16.3723 0.278738 16.0837C0.387558 15.6757 0.784944 15.3196 1.36791 15.1078C1.70894 14.9844 2.09564 14.9193 2.48525 14.9193C3.31986 14.9193 4.0816 15.2074 4.47413 15.6708L5.05417 16.3558L5.24364 16.5797L5.4331 16.3558L11.7252 8.91913C11.7417 8.90019 11.7592 8.87978 11.7777 8.85938L11.9195 8.69809L11.7806 8.53389L6.47369 2.2583C6.25022 1.99451 6.17152 1.70351 6.24828 1.4164C6.35612 1.00784 6.75351 0.651265 7.33842 0.438484C7.68042 0.314604 8.06712 0.248535 8.4577 0.248535C9.29134 0.248535 10.0531 0.537102 10.4446 1.00104L24.8817 18.0692C25.1052 18.334 25.1839 18.6259 25.1071 18.914C24.9983 19.3231 24.6009 19.6792 24.016 19.8919C23.674 20.0158 23.2883 20.0819 22.8977 20.0819C22.0641 20.0819 21.3023 19.7933 20.9108 19.3294L20.834 19.2385L20.6475 19.0185L20.457 19.2342L13.9774 26.5771L13.8355 26.7384L13.9745 26.9026L18.9131 32.7409C19.1366 33.0052 19.2134 33.2977 19.1366 33.5862C19.0278 33.9943 18.6304 34.3499 18.0484 34.5607C17.7074 34.6846 17.3197 34.7507 16.9282 34.7512ZM15.2502 12.6365L15.0598 12.8522L8.5811 20.197L8.43924 20.3583L8.57818 20.5225L10.4534 22.7392L10.6428 22.9637L10.8323 22.7392L17.1604 15.2569C17.1681 15.2491 17.1759 15.2404 17.1827 15.2316L17.31 15.0718L17.1779 14.9154L15.4358 12.8561L15.2502 12.6365Z" fill="#6546ED"/>
<path d="M16.9268 34.5025C17.2892 34.5021 17.6478 34.4413 17.9626 34.3267C18.46 34.1464 18.8088 33.8457 18.8953 33.5217C18.9507 33.3128 18.8924 33.1039 18.7214 32.9013L13.5048 26.735L20.65 18.6377L21.0989 19.1687C21.4399 19.5724 22.1453 19.8333 22.8964 19.8333C23.2578 19.8333 23.6153 19.7725 23.9292 19.6584C24.4296 19.4767 24.7793 19.1745 24.8658 18.8505C24.9212 18.6416 24.8619 18.4327 24.6899 18.2296L10.2538 1.16193C9.91281 0.758232 9.20743 0.497357 8.45638 0.497357C8.09397 0.497357 7.73739 0.558082 7.42259 0.672245C6.92221 0.853935 6.57341 1.1561 6.48693 1.48013C6.43252 1.68806 6.49082 1.8955 6.66279 2.09807L12.2476 8.70207L11.9629 9.02416C11.9464 9.0431 11.9299 9.06205 11.9133 9.08148L5.24231 16.9651L4.28236 15.8312C3.94133 15.4285 3.23595 15.1681 2.48392 15.1681C2.12249 15.1681 1.76591 15.2283 1.45208 15.342C0.953646 15.5227 0.603868 15.8244 0.518367 16.148C0.462014 16.3573 0.521282 16.5667 0.692285 16.7698L15.1303 33.8399C15.4714 34.2421 16.1758 34.5025 16.9268 34.5025ZM15.2527 12.2562L17.6312 15.0675L17.3757 15.3872C17.366 15.3993 17.3553 15.411 17.3446 15.4227L10.6415 23.349L8.10854 20.355L8.39322 20.0329L15.2527 12.2562ZM16.9268 35C16.0524 35 15.2042 34.6969 14.7504 34.1615L0.312387 17.0909C-0.353162 16.3029 0.0792021 15.3109 1.28205 14.8742C2.48489 14.4399 3.99768 14.7246 4.66226 15.5101L5.24231 16.1951L11.5344 8.75842C11.5529 8.73705 11.5713 8.71567 11.5898 8.69478L6.2829 2.41919C5.6154 1.63365 6.04971 0.642126 7.25256 0.204904C8.45346 -0.231832 9.96819 0.0523618 10.6337 0.840819L25.0698 17.9085C25.7373 18.6965 25.303 19.6885 24.0992 20.1257C22.9002 20.5615 21.3845 20.2778 20.719 19.4898L20.6422 19.3989L14.1626 26.7419L19.1013 32.5802C19.7668 33.3682 19.3315 34.3602 18.1316 34.7945C17.7488 34.9339 17.3349 34.9995 16.9268 35ZM15.245 13.017L8.76632 20.3618L10.6415 22.5785L16.9744 15.0904C16.9793 15.0855 16.9832 15.0811 16.9871 15.0763L15.245 13.017Z" fill="#6546ED"/>
<path d="M40.775 24.144C40.4337 24.144 40.0443 24.1227 39.607 24.08C39.1803 24.048 38.7537 24.0053 38.327 23.952C37.9003 23.888 37.527 23.8347 37.207 23.792L37.335 22.64C37.655 22.672 38.0177 22.7093 38.423 22.752C38.839 22.7947 39.2497 22.832 39.655 22.864C40.0603 22.896 40.407 22.912 40.695 22.912C41.4417 22.912 42.0017 22.7467 42.375 22.416C42.7483 22.0747 42.935 21.5467 42.935 20.832C42.935 20.448 42.8603 20.1387 42.711 19.904C42.5617 19.6693 42.311 19.488 41.959 19.36C41.6177 19.2213 41.1537 19.0933 40.567 18.976C39.7883 18.816 39.143 18.624 38.631 18.4C38.119 18.176 37.735 17.8613 37.479 17.456C37.2337 17.0507 37.111 16.5013 37.111 15.808C37.111 15.072 37.2603 14.4853 37.559 14.048C37.8577 13.6 38.279 13.2747 38.823 13.072C39.367 12.8693 40.0017 12.768 40.727 12.768C41.047 12.768 41.415 12.7893 41.831 12.832C42.247 12.864 42.6577 12.9067 43.063 12.96C43.4683 13.0027 43.815 13.0507 44.103 13.104L44.007 14.272C43.687 14.2293 43.3243 14.192 42.919 14.16C42.5137 14.1173 42.119 14.08 41.735 14.048C41.3617 14.016 41.0577 14 40.823 14C40.0657 14 39.495 14.1387 39.111 14.416C38.727 14.6933 38.535 15.12 38.535 15.696C38.535 16.1547 38.6203 16.5013 38.791 16.736C38.9617 16.9707 39.239 17.1573 39.623 17.296C40.007 17.424 40.5083 17.5573 41.127 17.696C41.6923 17.8347 42.1777 17.9787 42.583 18.128C42.9883 18.2773 43.3243 18.464 43.591 18.688C43.8577 18.9013 44.0497 19.1733 44.167 19.504C44.295 19.8347 44.359 20.24 44.359 20.72C44.359 21.5413 44.2097 22.2027 43.911 22.704C43.623 23.2053 43.2123 23.5733 42.679 23.808C42.1457 24.032 41.511 24.144 40.775 24.144ZM48.6461 24.16C47.9635 24.16 47.4355 24.0213 47.0621 23.744C46.6995 23.4667 46.4488 23.0347 46.3101 22.448C46.1821 21.8507 46.1181 21.0933 46.1181 20.176V16H47.4621V20.16C47.4621 20.8427 47.4941 21.3867 47.5581 21.792C47.6328 22.1973 47.7821 22.4907 48.0061 22.672C48.2408 22.8533 48.5821 22.944 49.0301 22.944C49.4781 22.944 49.8888 22.8853 50.2621 22.768C50.6355 22.64 50.9341 22.512 51.1581 22.384V16H52.5181V24H51.1581V23.456C50.8168 23.648 50.4488 23.8133 50.0541 23.952C49.6595 24.0907 49.1901 24.16 48.6461 24.16ZM54.745 27.52V16H56.089V16.56C56.2597 16.4533 56.473 16.3467 56.729 16.24C56.985 16.1227 57.257 16.0267 57.545 15.952C57.8437 15.8773 58.1317 15.84 58.409 15.84C59.433 15.84 60.1797 16.1653 60.649 16.816C61.1183 17.4667 61.353 18.496 61.353 19.904C61.353 20.9493 61.2303 21.7867 60.985 22.416C60.7503 23.0347 60.3717 23.4827 59.849 23.76C59.337 24.0267 58.6703 24.16 57.849 24.16C57.529 24.16 57.1983 24.1387 56.857 24.096C56.5263 24.0533 56.2703 24.016 56.089 23.984V27.52H54.745ZM57.737 22.976C58.3023 22.976 58.745 22.8747 59.065 22.672C59.385 22.4587 59.609 22.128 59.737 21.68C59.8757 21.2213 59.945 20.6293 59.945 19.904C59.945 18.8587 59.7903 18.1227 59.481 17.696C59.1717 17.2587 58.7397 17.04 58.185 17.04C57.9397 17.04 57.6837 17.072 57.417 17.136C57.161 17.2 56.9157 17.2747 56.681 17.36C56.4463 17.4453 56.249 17.536 56.089 17.632V22.832C56.2597 22.8533 56.4997 22.8853 56.809 22.928C57.129 22.96 57.4383 22.976 57.737 22.976ZM66.1094 24.16C65.2987 24.16 64.6587 24.0053 64.1894 23.696C63.72 23.3867 63.3787 22.928 63.1654 22.32C62.9627 21.712 62.8614 20.9547 62.8614 20.048C62.8614 19.0453 63 18.2347 63.2774 17.616C63.5547 16.9973 63.944 16.5493 64.4454 16.272C64.9574 15.984 65.5654 15.84 66.2694 15.84C67.3574 15.84 68.1734 16.1387 68.7174 16.736C69.272 17.3227 69.5494 18.2667 69.5494 19.568L69.4854 20.56H64.2534C64.264 21.3493 64.4134 21.952 64.7014 22.368C64.9894 22.7733 65.512 22.976 66.2694 22.976C66.568 22.976 66.8987 22.9707 67.2614 22.96C67.624 22.9387 67.9814 22.9173 68.3334 22.896C68.696 22.8747 69 22.8533 69.2454 22.832L69.2774 23.888C69.0214 23.9307 68.7067 23.9733 68.3334 24.016C67.96 24.0587 67.576 24.0907 67.1814 24.112C66.7974 24.144 66.44 24.16 66.1094 24.16ZM64.2534 19.488H68.1734C68.1734 18.5493 68.024 17.8933 67.7254 17.52C67.4267 17.136 66.9414 16.944 66.2694 16.944C65.6187 16.944 65.1174 17.1413 64.7654 17.536C64.424 17.9307 64.2534 18.5813 64.2534 19.488ZM71.3388 24V16H72.6828V17.056C72.8854 16.9173 73.1361 16.768 73.4348 16.608C73.7441 16.4373 74.0801 16.2773 74.4427 16.128C74.8054 15.9787 75.1681 15.8773 75.5308 15.824V17.184C75.1788 17.2587 74.8214 17.3547 74.4588 17.472C74.0961 17.5893 73.7601 17.7173 73.4508 17.856C73.1414 17.9947 72.8854 18.1173 72.6828 18.224V24H71.3388Z" fill="white"/>
<path d="M77.0773 24V12.96H78.4853V17.84H83.8612V12.96H85.2693V24H83.8612V19.072H78.4853V24H77.0773ZM90.5625 24.16C89.7518 24.16 89.1118 24.0053 88.6425 23.696C88.1732 23.3867 87.8318 22.928 87.6185 22.32C87.4158 21.712 87.3145 20.9547 87.3145 20.048C87.3145 19.0453 87.4532 18.2347 87.7305 17.616C88.0078 16.9973 88.3972 16.5493 88.8985 16.272C89.4105 15.984 90.0185 15.84 90.7225 15.84C91.8105 15.84 92.6265 16.1387 93.1705 16.736C93.7252 17.3227 94.0025 18.2667 94.0025 19.568L93.9385 20.56H88.7065C88.7172 21.3493 88.8665 21.952 89.1545 22.368C89.4425 22.7733 89.9652 22.976 90.7225 22.976C91.0212 22.976 91.3518 22.9707 91.7145 22.96C92.0772 22.9387 92.4345 22.9173 92.7865 22.896C93.1492 22.8747 93.4532 22.8533 93.6985 22.832L93.7305 23.888C93.4745 23.9307 93.1598 23.9733 92.7865 24.016C92.4132 24.0587 92.0292 24.0907 91.6345 24.112C91.2505 24.144 90.8932 24.16 90.5625 24.16ZM88.7065 19.488H92.6265C92.6265 18.5493 92.4772 17.8933 92.1785 17.52C91.8798 17.136 91.3945 16.944 90.7225 16.944C90.0718 16.944 89.5705 17.1413 89.2185 17.536C88.8772 17.9307 88.7065 18.5813 88.7065 19.488ZM95.7919 24V16H97.1359V17.056C97.3385 16.9173 97.5892 16.768 97.8879 16.608C98.1972 16.4373 98.5332 16.2773 98.8959 16.128C99.2585 15.9787 99.6212 15.8773 99.9839 15.824V17.184C99.6319 17.2587 99.2745 17.3547 98.9119 17.472C98.5492 17.5893 98.2132 17.7173 97.9039 17.856C97.5945 17.9947 97.3385 18.1173 97.1359 18.224V24H95.7919ZM104.474 24.16C103.578 24.16 102.874 24.0053 102.362 23.696C101.861 23.3867 101.509 22.9227 101.306 22.304C101.104 21.6747 101.002 20.8747 101.002 19.904C101.002 18.9867 101.114 18.2293 101.338 17.632C101.562 17.024 101.93 16.576 102.442 16.288C102.954 15.9893 103.632 15.84 104.474 15.84C105.328 15.84 106.01 15.9893 106.522 16.288C107.034 16.576 107.402 17.024 107.626 17.632C107.85 18.2293 107.962 18.9867 107.962 19.904C107.962 20.8747 107.856 21.6747 107.642 22.304C107.44 22.9227 107.088 23.3867 106.586 23.696C106.085 24.0053 105.381 24.16 104.474 24.16ZM104.474 22.992C105.072 22.992 105.52 22.8907 105.818 22.688C106.117 22.4747 106.314 22.1387 106.41 21.68C106.506 21.2213 106.554 20.6293 106.554 19.904C106.554 19.1893 106.49 18.6187 106.362 18.192C106.245 17.7653 106.037 17.4613 105.738 17.28C105.44 17.0987 105.018 17.008 104.474 17.008C103.941 17.008 103.52 17.0987 103.21 17.28C102.912 17.4613 102.698 17.7653 102.57 18.192C102.453 18.6187 102.394 19.1893 102.394 19.904C102.394 20.6293 102.442 21.2213 102.538 21.68C102.634 22.1387 102.832 22.4747 103.13 22.688C103.429 22.8907 103.877 22.992 104.474 22.992ZM112.734 24.16C111.924 24.16 111.284 24.0053 110.814 23.696C110.345 23.3867 110.004 22.928 109.79 22.32C109.588 21.712 109.486 20.9547 109.486 20.048C109.486 19.0453 109.625 18.2347 109.902 17.616C110.18 16.9973 110.569 16.5493 111.07 16.272C111.582 15.984 112.19 15.84 112.894 15.84C113.982 15.84 114.798 16.1387 115.342 16.736C115.897 17.3227 116.174 18.2667 116.174 19.568L116.11 20.56H110.878C110.889 21.3493 111.038 21.952 111.326 22.368C111.614 22.7733 112.137 22.976 112.894 22.976C113.193 22.976 113.524 22.9707 113.886 22.96C114.249 22.9387 114.606 22.9173 114.958 22.896C115.321 22.8747 115.625 22.8533 115.87 22.832L115.902 23.888C115.646 23.9307 115.332 23.9733 114.958 24.016C114.585 24.0587 114.201 24.0907 113.806 24.112C113.422 24.144 113.065 24.16 112.734 24.16ZM110.878 19.488H114.798C114.798 18.5493 114.649 17.8933 114.35 17.52C114.052 17.136 113.566 16.944 112.894 16.944C112.244 16.944 111.742 17.1413 111.39 17.536C111.049 17.9307 110.878 18.5813 110.878 19.488ZM120.508 24.16C120.252 24.16 119.942 24.144 119.58 24.112C119.228 24.08 118.881 24.0427 118.54 24C118.198 23.9467 117.894 23.8987 117.628 23.856L117.708 22.704C117.974 22.736 118.273 22.7733 118.604 22.816C118.945 22.8587 119.276 22.896 119.596 22.928C119.916 22.9493 120.177 22.96 120.38 22.96C120.796 22.96 121.142 22.9227 121.42 22.848C121.697 22.7733 121.905 22.6453 122.044 22.464C122.193 22.2827 122.268 22.0213 122.268 21.68C122.268 21.424 122.209 21.2267 122.092 21.088C121.985 20.9493 121.782 20.832 121.484 20.736C121.196 20.64 120.769 20.5547 120.204 20.48C119.606 20.384 119.105 20.2613 118.7 20.112C118.305 19.9627 118.012 19.744 117.82 19.456C117.638 19.168 117.548 18.7573 117.548 18.224C117.548 17.616 117.686 17.1413 117.964 16.8C118.241 16.448 118.604 16.2027 119.052 16.064C119.5 15.9147 119.969 15.84 120.46 15.84C120.769 15.84 121.105 15.856 121.468 15.888C121.83 15.92 122.182 15.9627 122.524 16.016C122.865 16.0587 123.158 16.1013 123.404 16.144L123.372 17.296C123.116 17.2533 122.812 17.216 122.46 17.184C122.118 17.1413 121.777 17.1093 121.436 17.088C121.094 17.056 120.796 17.04 120.54 17.04C120.23 17.04 119.953 17.072 119.708 17.136C119.462 17.2 119.265 17.3173 119.116 17.488C118.977 17.648 118.908 17.872 118.908 18.16C118.908 18.384 118.961 18.5653 119.068 18.704C119.174 18.8427 119.372 18.96 119.66 19.056C119.948 19.1413 120.369 19.232 120.924 19.328C121.585 19.4347 122.113 19.568 122.508 19.728C122.913 19.888 123.206 20.1173 123.388 20.416C123.569 20.704 123.66 21.1093 123.66 21.632C123.66 22.5813 123.377 23.2427 122.812 23.616C122.257 23.9787 121.489 24.16 120.508 24.16Z" fill="#6546ED"/>
</svg>
