<svg width="1366" height="864" viewBox="0 0 1366 864" fill="none" xmlns="http://www.w3.org/2000/svg">
<path d="M179.15 24.3134L182.851 21.769L193.532 16.7403C197.542 14.847 202.841 14.3362 207.511 15.1576C216.481 16.7403 230.296 18.9241 231.223 18.5835C231.791 18.3731 233.337 17.3213 235.182 16.0691C237.688 14.3662 240.729 12.3026 242.595 11.4812L253.667 7.68463C256.874 6.72296 260.596 7.2238 263.06 8.96682L263.668 9.39762L267.864 12.523L275.266 13.5348C276.008 13.635 276.699 13.8854 277.246 14.256L281.246 16.9406C282.988 18.1127 285.699 18.1728 287.555 17.0909L288.112 16.7603C289.37 16.0191 291.153 15.9089 292.576 16.4699L297.937 18.5935L306.587 21.779H308.03C311.824 21.779 315.412 22.9811 317.824 25.0547L318.721 25.826H325.701C329.453 25.826 333.123 25.0246 336.216 23.522L338.856 22.2398C339.474 21.9393 340.206 21.779 340.948 21.779H348.598C349.557 21.779 350.464 22.0896 351.062 22.6105L357.238 28.0198L363.609 25.816L375.29 28.0198H387.723L405.023 30.995L423.972 24.2233H437.92L451.725 25.816L461.571 18.9141C461.87 18.7037 462.272 18.5935 462.684 18.5935H472.19L482.499 13.695L495.541 11.4912L506.613 6.10187L523.748 0.962973C528.872 -0.689888 534.872 -0.188972 539.315 2.26528L539.717 2.48563L568.337 13.7051L579.409 18.6036L597.152 20.5269L607.73 18.6036L608.668 17.8923C609.864 16.9807 611.874 16.9306 613.153 17.7821L616.905 20.2664L624.019 20.5269L626.174 19.2647C630.555 16.7002 636.06 15.2978 641.741 15.2978L648.411 13.7051L662.515 7.94509H673.886L691.629 11.5012L697.691 15.2978L713.011 16.8906L717.104 21.7891H742.579L751.847 19.0543L764.59 9.89848C766.281 8.68638 768.714 8.15543 771.075 8.486L780.787 11.5012L792.457 15.2978L799.148 9.90845L803.086 7.56443C804.426 6.76304 806.437 6.88322 807.56 7.84488L811.891 11.5113L815.53 16.9006L824.819 19.9258C826.272 20.3966 827.644 20.9776 828.922 21.6488L834.335 24.4937L839.902 23.4018C845.067 22.3901 850.603 23.2015 854.778 25.5856L855.871 26.2067H860.861C862.232 26.2067 863.603 26.2768 864.954 26.4171L876.532 22.4202L876.954 22.2098C881.573 19.9258 887.604 19.6453 892.594 21.4885L909.326 27.2585L919.987 33.0485L932.853 35.7332L942.791 41.0023L952.287 41.3529C952.699 41.3729 953.091 41.5031 953.379 41.7135L957.194 44.6787L974.163 48.0745L976.597 47.8842L990.535 48.3951L1004.96 54.2352L1011.42 55.5274L1026.45 53.524L1038.88 53.9847L1050.69 52.2117L1056.89 54.6459L1063.47 49.467C1064.1 48.9661 1065.03 48.6856 1065.99 48.7256L1073.63 49.0061C1074.38 49.0362 1075.09 49.2165 1075.69 49.537L1078.24 50.9095C1081.22 52.5223 1084.83 53.4639 1088.57 53.5941L1095.54 53.8546L1096.49 53.1233C1099.04 51.1398 1102.72 50.078 1106.51 50.2183L1107.95 50.2683L1116.82 47.4034L1122.33 45.48C1123.81 44.9691 1125.57 45.1495 1126.78 45.9308L1127.31 46.2814C1129.09 47.4334 1131.8 47.4735 1133.63 46.3616L1137.82 43.8272C1138.4 43.4766 1139.1 43.2562 1139.85 43.1861L1147.31 42.4548L1151.74 39.4897L1152.39 39.079C1154.98 37.4362 1158.74 37.0655 1161.86 38.1473L1172.63 42.3446C1174.44 43.2361 1177.32 45.4099 1179.7 47.203C1181.45 48.5253 1182.92 49.6272 1183.47 49.8576C1184.37 50.2282 1198.34 48.5554 1207.41 47.3132C1212.14 46.6621 1217.39 47.3733 1221.24 49.4069L1231.54 54.8262L1235.05 57.5109C1237.36 59.2739 1240.19 60.6463 1243.35 61.5178L1250.67 64.7033L1254.57 66.4063H1262.67L1269.08 64.7033H1277.68L1303.07 48.1346C1305.06 46.8324 1308.27 46.9626 1310.02 48.4051L1321.09 57.5109L1331.64 59.6846L1339.48 64.7133L1348.2 70.4733L1353.81 74.7908L1359.91 77.5656L1366 80.0298V109H539.068L341.711 102.439L182.861 102.759L0 102.399V63.0505L6.89712 65.0339L17.0727 63.0604L24.609 59.4542H29.2071L35.6196 57.1202L39.2589 54.9164L45.723 53.0431L54.0119 57.6712L58.775 54.9164L63.2803 53.7744L69.3217 49.7274L73.6105 45.44L81.5282 41.7035L89.8172 36.9052L105.653 28.0098L124.963 36.9052L155.458 33.8399L170.562 28.0098C173.789 27.2485 176.727 25.9863 179.15 24.3134Z" fill="#0F0A22"/>
<path d="M435.992 65H491.249L520.93 68.3473C525.343 69.0347 535.636 70.4792 541.477 70.7881C547.318 71.0969 579.538 70.9176 594.909 70.7881C604.191 72.7606 624.868 77.0444 633.267 78.3793C641.667 79.7142 666.608 76.9646 678.022 75.4205L704.242 78.8774H735.728L757.941 78.3793L793.235 81.0292H800.534L854.759 78.3793L881.247 82.1151H1000.89L1036.94 88.5508L1094.45 93.2629L1148.76 88.5508L1183.44 93.2629L1226.34 88.5508H1366V160L979.889 140.514L881.237 144.628H302.591L0 158.177V70.7881H31.0396L70.7465 78.3793L113.647 70.7881H179.365L236.873 75.4205H312.637L365.583 70.7881L435.992 65Z" fill="#090412"/>
<path d="M194.5 728.271L198.09 725.731L208.45 720.711C212.34 718.821 217.48 718.311 222.01 719.131C230.71 720.711 244.11 722.891 245.01 722.551C245.56 722.341 247.06 721.291 248.85 720.041C251.28 718.341 254.23 716.281 256.04 715.461L266.78 711.671C269.89 710.711 273.5 711.211 275.89 712.951L276.48 713.381L280.55 716.501L287.73 717.511C288.45 717.611 289.12 717.861 289.65 718.231L293.53 720.911C295.22 722.081 297.85 722.141 299.65 721.061L300.19 720.731C301.41 719.991 303.14 719.881 304.52 720.441L309.72 722.561L318.11 725.741H319.51C323.19 725.741 326.67 726.941 329.01 729.011L329.88 729.781H336.65C340.29 729.781 343.85 728.981 346.85 727.481L349.41 726.201C350.01 725.901 350.72 725.741 351.44 725.741H358.86C359.79 725.741 360.67 726.051 361.25 726.571L367.24 731.971L373.42 729.771L384.75 731.971H396.81L413.59 734.941L431.97 728.181H445.5L458.89 729.771L468.44 722.881C468.73 722.671 469.12 722.561 469.52 722.561H478.74L488.74 717.671L501.39 715.471L512.13 710.091L528.75 704.961C533.72 703.311 539.54 703.811 543.85 706.261L544.24 706.481L572 717.681L582.74 722.571L599.95 724.491L610.21 722.571L611.12 721.861C612.28 720.951 614.23 720.901 615.47 721.751L619.11 724.231L626.01 724.491L628.1 723.231C632.35 720.671 637.69 719.271 643.2 719.271L649.67 717.681L663.35 711.931H674.38L691.59 715.481L697.47 719.271L712.33 720.861L716.3 725.751H741.01L750 723.021L762.36 713.881C764 712.671 766.36 712.141 768.65 712.471L778.07 715.481L789.39 719.271L795.88 713.891L799.7 711.551C801 710.751 802.95 710.871 804.04 711.831L808.24 715.491L811.77 720.871L820.78 723.891C822.19 724.361 823.52 724.941 824.76 725.611L830.01 728.451L835.41 727.361C840.42 726.351 845.79 727.161 849.84 729.541L850.9 730.161H855.74C857.07 730.161 858.4 730.231 859.71 730.371L870.94 726.381L871.35 726.171C875.83 723.891 881.68 723.611 886.52 725.451L902.75 731.211L913.09 736.991L925.57 739.671L935.21 744.931L944.42 745.281C944.82 745.301 945.2 745.431 945.48 745.641L949.18 748.601L965.64 751.991L968 751.801L981.52 752.311L995.51 758.141L1001.78 759.431L1016.36 757.431L1028.41 757.891L1039.87 756.121L1045.88 758.551L1052.26 753.381C1052.88 752.881 1053.78 752.601 1054.71 752.641L1062.12 752.921C1062.85 752.951 1063.54 753.131 1064.12 753.451L1066.59 754.821C1069.48 756.431 1072.98 757.371 1076.61 757.501L1083.37 757.761L1084.29 757.031C1086.77 755.051 1090.34 753.991 1094.01 754.131L1095.41 754.181L1104.01 751.321L1109.36 749.401C1110.79 748.891 1112.5 749.071 1113.67 749.851L1114.19 750.201C1115.91 751.351 1118.54 751.391 1120.32 750.281L1124.38 747.751C1124.94 747.401 1125.62 747.181 1126.35 747.111L1133.59 746.381L1137.88 743.421L1138.51 743.011C1141.03 741.371 1144.67 741.001 1147.7 742.081L1158.15 746.271C1159.9 747.161 1162.7 749.331 1165 751.121C1166.7 752.441 1168.13 753.541 1168.66 753.771C1169.53 754.141 1183.08 752.471 1191.88 751.231C1196.47 750.581 1201.56 751.291 1205.3 753.321L1215.29 758.731L1218.69 761.411C1220.93 763.171 1223.68 764.541 1226.74 765.411L1233.84 768.591L1237.63 770.291H1245.48L1251.7 768.591H1260.04L1284.67 752.051C1286.6 750.751 1289.71 750.881 1291.41 752.321L1302.15 761.411L1312.38 763.581L1319.99 768.601L1328.44 774.351L1333.89 778.661L1339.8 781.431L1345.71 783.891V812.811H543.61L352.18 806.261L198.1 806.581L20.7305 806.221V766.941L27.4205 768.921L37.2905 766.951L44.6005 763.351H49.0605L55.2805 761.021L58.8105 758.821L65.0805 756.951L73.1205 761.571L77.7405 758.821L82.1105 757.681L87.9705 753.641L92.1305 749.361L99.8105 745.631L107.85 740.841L123.21 731.961L141.94 740.841L171.52 737.781L186.17 731.961C189.3 731.201 192.15 729.941 194.5 728.271Z" fill="#0F0A22"/>
<path d="M435.992 769H491.249L520.93 772.347C525.343 773.035 535.636 774.479 541.477 774.788C547.318 775.097 579.538 774.918 594.909 774.788C604.191 776.761 624.868 781.044 633.267 782.379C641.667 783.714 666.608 780.965 678.022 779.42L704.242 782.877H735.728L757.941 782.379L793.235 785.029H800.534L854.759 782.379L881.247 786.115H1000.89L1036.94 792.551L1094.45 797.263L1148.76 792.551L1183.44 797.263L1226.34 792.551H1366V864L979.889 844.514L881.237 848.628H302.591L0 862.177V774.788H31.0396L70.7465 782.379L113.647 774.788H179.365L236.873 779.42H312.637L365.583 774.788L435.992 769Z" fill="#937AFE"/>
<path d="M1366 93H0V814H1366V93Z" fill="#090412"/>
<path opacity="0.3" d="M225.332 814L483 746.846H461.678L424.069 727.376L126.418 708.153L0.0730628 704L0 814H225.332Z" fill="#957CFF"/>
<path opacity="0.3" d="M1366 814L1043 728.018H1080.88L1111.2 707.602L1236.74 673.302H1258.95L1352.87 631.002L1366 631V814Z" fill="#957CFF"/>
<path d="M279 814H0V642L119.408 657.887L279 814Z" fill="url(#paint0_linear_316_1075)"/>
<path d="M317 814H229L273.001 683L317 814Z" fill="url(#paint1_linear_316_1075)"/>
<path d="M376 814H330L353 746L376 814Z" fill="url(#paint2_linear_316_1075)"/>
<path d="M1366 638.049V814H1270L1272.49 807.418L1286.14 771.294L1351.24 599L1366 638.049Z" fill="url(#paint3_linear_316_1075)"/>
<path d="M1293 789.32L1272.68 807.416L1265.29 814H1223.71L1196 789.32L1244.5 660L1286.23 771.282L1293 789.32Z" fill="url(#paint4_linear_316_1075)"/>
<defs>
<linearGradient id="paint0_linear_316_1075" x1="139.5" y1="642" x2="139.5" y2="814" gradientUnits="userSpaceOnUse">
<stop stop-color="#6546ED"/>
<stop offset="1" stop-color="#957CFF"/>
</linearGradient>
<linearGradient id="paint1_linear_316_1075" x1="273" y1="683" x2="273" y2="814" gradientUnits="userSpaceOnUse">
<stop stop-color="#6546ED"/>
<stop offset="1" stop-color="#957CFF"/>
</linearGradient>
<linearGradient id="paint2_linear_316_1075" x1="353" y1="746" x2="353" y2="814" gradientUnits="userSpaceOnUse">
<stop stop-color="#6546ED"/>
<stop offset="1" stop-color="#957CFF"/>
</linearGradient>
<linearGradient id="paint3_linear_316_1075" x1="1318" y1="599" x2="1318" y2="814" gradientUnits="userSpaceOnUse">
<stop stop-color="#6546ED"/>
<stop offset="1" stop-color="#957CFF"/>
</linearGradient>
<linearGradient id="paint4_linear_316_1075" x1="1244.5" y1="660" x2="1244.5" y2="814" gradientUnits="userSpaceOnUse">
<stop stop-color="#6546ED"/>
<stop offset="1" stop-color="#957CFF"/>
</linearGradient>
</defs>
</svg>
